<svg xmlns="http://www.w3.org/2000/svg" xmlns:xlink="http://www.w3.org/1999/xlink" width="100" zoomAndPan="magnify" viewBox="0 0 75 74.999997" height="100" preserveAspectRatio="xMidYMid meet" version="1.0"><defs><g/><clipPath id="cf990ade06"><path d="M 1.121094 16.945312 L 21.371094 16.945312 L 21.371094 19 L 1.121094 19 Z M 1.121094 16.945312 " clip-rule="nonzero"/></clipPath><clipPath id="b0c41a6d85"><path d="M 3 21 L 19 21 L 19 44.695312 L 3 44.695312 Z M 3 21 " clip-rule="nonzero"/></clipPath></defs><path fill="#ffffff" d="M 19 19.367188 L 3.160156 19.367188 C 2.84375 19.367188 2.585938 19.621094 2.585938 19.941406 C 2.585938 20.257812 2.84375 20.515625 3.160156 20.515625 L 19 20.515625 C 19.316406 20.515625 19.574219 20.257812 19.574219 19.941406 C 19.574219 19.621094 19.316406 19.367188 19 19.367188 " fill-opacity="1" fill-rule="nonzero"/><g clip-path="url(#cf990ade06)"><path fill="#ffffff" d="M 20.449219 16.945312 L 1.707031 16.945312 C 1.390625 16.945312 1.132812 17.203125 1.132812 17.519531 C 1.132812 17.839844 1.390625 18.09375 1.707031 18.09375 L 20.449219 18.09375 C 20.769531 18.09375 21.027344 17.839844 21.027344 17.519531 C 21.027344 17.203125 20.769531 16.945312 20.449219 16.945312 " fill-opacity="1" fill-rule="nonzero"/></g><g clip-path="url(#b0c41a6d85)"><path fill="#f8c13c" d="M 4.339844 22.902344 L 4.351562 22.902344 C 5.738281 22.902344 6.859375 24.023438 6.859375 25.40625 L 6.859375 40.429688 L 8.769531 39.398438 L 8.769531 22.902344 L 10.125 22.902344 L 10.125 44.683594 L 12.035156 43.65625 L 12.035156 22.902344 L 13.390625 22.902344 L 13.390625 40.429688 L 15.300781 39.398438 L 15.300781 25.40625 C 15.300781 24.023438 16.421875 22.902344 17.804688 22.902344 C 18.117188 22.902344 18.382812 22.660156 18.394531 22.347656 C 18.40625 22.019531 18.144531 21.75 17.820312 21.75 L 4.351562 21.75 C 4.042969 21.75 3.777344 21.996094 3.765625 22.304688 C 3.753906 22.632812 4.015625 22.902344 4.339844 22.902344 " fill-opacity="1" fill-rule="nonzero"/></g><g fill="#ffffff" fill-opacity="1"><g transform="translate(21.033691, 26.177224)"><g><path d="M 0.203125 0.078125 C 0.179688 0.046875 0.164062 0.015625 0.15625 -0.015625 C 0.144531 -0.0546875 0.140625 -0.0976562 0.140625 -0.140625 L 0.140625 -0.15625 C 0.140625 -0.15625 0.140625 -0.160156 0.140625 -0.171875 C 0.148438 -0.304688 0.195312 -0.398438 0.28125 -0.453125 C 0.332031 -0.484375 0.414062 -0.5 0.53125 -0.5 C 0.632812 -0.5 0.707031 -0.515625 0.75 -0.546875 C 0.78125 -0.566406 0.800781 -0.597656 0.8125 -0.640625 C 0.820312 -0.703125 0.832031 -0.789062 0.84375 -0.90625 L 0.84375 -3.984375 C 0.832031 -4.097656 0.820312 -4.191406 0.8125 -4.265625 C 0.8125 -4.273438 0.804688 -4.285156 0.796875 -4.296875 C 0.796875 -4.304688 0.789062 -4.316406 0.78125 -4.328125 C 0.769531 -4.335938 0.757812 -4.34375 0.75 -4.34375 C 0.707031 -4.375 0.632812 -4.390625 0.53125 -4.390625 L 0.484375 -4.390625 C 0.460938 -4.390625 0.441406 -4.390625 0.421875 -4.390625 C 0.410156 -4.398438 0.390625 -4.40625 0.359375 -4.40625 C 0.335938 -4.40625 0.316406 -4.410156 0.296875 -4.421875 C 0.273438 -4.429688 0.257812 -4.445312 0.25 -4.46875 C 0.238281 -4.476562 0.226562 -4.488281 0.21875 -4.5 C 0.207031 -4.507812 0.195312 -4.515625 0.1875 -4.515625 C 0.1875 -4.523438 0.179688 -4.535156 0.171875 -4.546875 C 0.171875 -4.554688 0.164062 -4.566406 0.15625 -4.578125 C 0.15625 -4.585938 0.15625 -4.597656 0.15625 -4.609375 C 0.15625 -4.617188 0.148438 -4.625 0.140625 -4.625 C 0.140625 -4.632812 0.140625 -4.644531 0.140625 -4.65625 C 0.140625 -4.675781 0.140625 -4.6875 0.140625 -4.6875 C 0.140625 -4.695312 0.140625 -4.707031 0.140625 -4.71875 C 0.140625 -4.726562 0.140625 -4.734375 0.140625 -4.734375 L 0.140625 -4.75 C 0.140625 -4.84375 0.160156 -4.921875 0.203125 -4.984375 C 0.234375 -5.023438 0.269531 -5.054688 0.3125 -5.078125 C 0.363281 -5.109375 0.414062 -5.125 0.46875 -5.125 C 0.8125 -5.101562 1.117188 -5.09375 1.390625 -5.09375 C 1.691406 -5.09375 2.015625 -5.101562 2.359375 -5.125 C 2.390625 -5.125 2.421875 -5.117188 2.453125 -5.109375 C 2.492188 -5.097656 2.523438 -5.082031 2.546875 -5.0625 C 2.578125 -5.039062 2.601562 -5.015625 2.625 -4.984375 C 2.644531 -4.953125 2.660156 -4.914062 2.671875 -4.875 C 2.679688 -4.832031 2.6875 -4.789062 2.6875 -4.75 L 2.6875 -4.734375 C 2.675781 -4.585938 2.628906 -4.488281 2.546875 -4.4375 C 2.503906 -4.414062 2.46875 -4.398438 2.4375 -4.390625 C 2.40625 -4.390625 2.363281 -4.390625 2.3125 -4.390625 C 2.195312 -4.390625 2.125 -4.375 2.09375 -4.34375 C 2.050781 -4.320312 2.03125 -4.296875 2.03125 -4.265625 C 2.007812 -4.191406 2 -4.097656 2 -3.984375 L 2 -0.796875 C 2.007812 -0.710938 2.019531 -0.644531 2.03125 -0.59375 C 2.03125 -0.582031 2.03125 -0.578125 2.03125 -0.578125 C 2.039062 -0.578125 2.046875 -0.570312 2.046875 -0.5625 C 2.054688 -0.550781 2.066406 -0.546875 2.078125 -0.546875 C 2.097656 -0.535156 2.128906 -0.523438 2.171875 -0.515625 C 2.210938 -0.503906 2.269531 -0.5 2.34375 -0.5 L 3.046875 -0.5 C 3.191406 -0.507812 3.296875 -0.53125 3.359375 -0.5625 C 3.421875 -0.601562 3.46875 -0.660156 3.5 -0.734375 C 3.519531 -0.785156 3.546875 -0.851562 3.578125 -0.9375 C 3.617188 -1.03125 3.65625 -1.140625 3.6875 -1.265625 L 3.6875 -1.28125 L 3.703125 -1.28125 C 3.734375 -1.375 3.789062 -1.4375 3.875 -1.46875 C 3.96875 -1.507812 4.066406 -1.523438 4.171875 -1.515625 L 4.171875 -1.5 C 4.210938 -1.5 4.25 -1.488281 4.28125 -1.46875 C 4.320312 -1.445312 4.359375 -1.425781 4.390625 -1.40625 C 4.484375 -1.332031 4.523438 -1.238281 4.515625 -1.125 L 4.515625 -1.109375 L 4.359375 -0.125 L 4.359375 -0.109375 C 4.347656 -0.0546875 4.332031 -0.015625 4.3125 0.015625 C 4.289062 0.0546875 4.253906 0.09375 4.203125 0.125 C 4.140625 0.164062 4.050781 0.1875 3.9375 0.1875 L 1.390625 0.1875 C 1.253906 0.1875 1.109375 0.1875 0.953125 0.1875 C 0.804688 0.195312 0.644531 0.207031 0.46875 0.21875 C 0.351562 0.21875 0.265625 0.171875 0.203125 0.078125 Z M 0.203125 0.078125 "/></g></g></g><g fill="#ffffff" fill-opacity="1"><g transform="translate(25.47164, 26.177224)"><g><path d="M 1.671875 0.109375 C 1.367188 -0.0351562 1.132812 -0.238281 0.96875 -0.5 C 0.800781 -0.757812 0.71875 -1.039062 0.71875 -1.34375 L 0.71875 -3.984375 C 0.707031 -4.097656 0.695312 -4.191406 0.6875 -4.265625 C 0.675781 -4.273438 0.664062 -4.285156 0.65625 -4.296875 C 0.65625 -4.316406 0.644531 -4.332031 0.625 -4.34375 C 0.582031 -4.375 0.507812 -4.390625 0.40625 -4.390625 L 0.359375 -4.390625 C 0.253906 -4.390625 0.175781 -4.414062 0.125 -4.46875 C 0.101562 -4.476562 0.0859375 -4.488281 0.078125 -4.5 C 0.078125 -4.507812 0.0703125 -4.519531 0.0625 -4.53125 C 0.0507812 -4.539062 0.0390625 -4.550781 0.03125 -4.5625 C 0.03125 -4.570312 0.03125 -4.582031 0.03125 -4.59375 C 0.03125 -4.601562 0.0234375 -4.613281 0.015625 -4.625 C 0.015625 -4.632812 0.015625 -4.644531 0.015625 -4.65625 C 0.015625 -4.664062 0.015625 -4.671875 0.015625 -4.671875 C 0.015625 -4.679688 0.015625 -4.691406 0.015625 -4.703125 C 0.015625 -4.722656 0.015625 -4.734375 0.015625 -4.734375 L 0.015625 -4.75 C 0.015625 -4.769531 0.015625 -4.789062 0.015625 -4.8125 C 0.015625 -4.832031 0.015625 -4.851562 0.015625 -4.875 C 0.0234375 -4.894531 0.0351562 -4.910156 0.046875 -4.921875 C 0.0546875 -4.941406 0.0664062 -4.960938 0.078125 -4.984375 C 0.0976562 -5.015625 0.125 -5.039062 0.15625 -5.0625 C 0.1875 -5.082031 0.21875 -5.097656 0.25 -5.109375 C 0.28125 -5.117188 0.3125 -5.125 0.34375 -5.125 L 0.359375 -5.125 C 0.691406 -5.101562 0.992188 -5.09375 1.265625 -5.09375 C 1.578125 -5.09375 1.898438 -5.101562 2.234375 -5.125 C 2.265625 -5.125 2.296875 -5.117188 2.328125 -5.109375 C 2.367188 -5.097656 2.398438 -5.082031 2.421875 -5.0625 C 2.453125 -5.039062 2.476562 -5.015625 2.5 -4.984375 C 2.53125 -4.953125 2.550781 -4.914062 2.5625 -4.875 C 2.570312 -4.832031 2.578125 -4.789062 2.578125 -4.75 L 2.578125 -4.734375 C 2.566406 -4.691406 2.5625 -4.660156 2.5625 -4.640625 C 2.5625 -4.628906 2.550781 -4.601562 2.53125 -4.5625 C 2.507812 -4.519531 2.484375 -4.488281 2.453125 -4.46875 C 2.398438 -4.414062 2.320312 -4.390625 2.21875 -4.390625 C 2.09375 -4.390625 2.007812 -4.375 1.96875 -4.34375 C 1.945312 -4.332031 1.929688 -4.320312 1.921875 -4.3125 C 1.910156 -4.300781 1.90625 -4.285156 1.90625 -4.265625 C 1.882812 -4.203125 1.875 -4.109375 1.875 -3.984375 L 1.875 -1.5625 C 1.875 -1.25 1.945312 -0.988281 2.09375 -0.78125 C 2.21875 -0.59375 2.488281 -0.5 2.90625 -0.5 C 3.332031 -0.5 3.625 -0.585938 3.78125 -0.765625 C 3.945312 -0.953125 4.03125 -1.179688 4.03125 -1.453125 L 4.03125 -3.5 C 4.03125 -3.84375 4.015625 -4.082031 3.984375 -4.21875 C 3.984375 -4.25 3.976562 -4.273438 3.96875 -4.296875 C 3.957031 -4.328125 3.945312 -4.34375 3.9375 -4.34375 L 3.9375 -4.359375 C 3.894531 -4.378906 3.789062 -4.390625 3.625 -4.390625 L 3.578125 -4.390625 C 3.535156 -4.390625 3.492188 -4.394531 3.453125 -4.40625 C 3.421875 -4.414062 3.390625 -4.429688 3.359375 -4.453125 C 3.328125 -4.484375 3.300781 -4.519531 3.28125 -4.5625 C 3.257812 -4.601562 3.25 -4.628906 3.25 -4.640625 C 3.25 -4.660156 3.242188 -4.691406 3.234375 -4.734375 L 3.234375 -4.75 C 3.234375 -4.769531 3.234375 -4.785156 3.234375 -4.796875 C 3.234375 -4.804688 3.234375 -4.816406 3.234375 -4.828125 C 3.242188 -4.847656 3.25 -4.863281 3.25 -4.875 C 3.257812 -4.882812 3.265625 -4.894531 3.265625 -4.90625 C 3.273438 -4.925781 3.28125 -4.941406 3.28125 -4.953125 C 3.289062 -4.960938 3.300781 -4.972656 3.3125 -4.984375 C 3.34375 -5.023438 3.378906 -5.054688 3.421875 -5.078125 C 3.472656 -5.109375 3.523438 -5.125 3.578125 -5.125 C 3.742188 -5.113281 3.898438 -5.101562 4.046875 -5.09375 C 4.191406 -5.09375 4.320312 -5.09375 4.4375 -5.09375 C 4.5 -5.09375 4.5625 -5.09375 4.625 -5.09375 C 4.695312 -5.09375 4.769531 -5.09375 4.84375 -5.09375 C 4.914062 -5.101562 4.988281 -5.109375 5.0625 -5.109375 C 5.132812 -5.109375 5.210938 -5.113281 5.296875 -5.125 L 5.3125 -5.125 C 5.425781 -5.125 5.515625 -5.078125 5.578125 -4.984375 C 5.617188 -4.921875 5.640625 -4.84375 5.640625 -4.75 L 5.640625 -4.734375 C 5.628906 -4.609375 5.59375 -4.519531 5.53125 -4.46875 C 5.488281 -4.4375 5.445312 -4.414062 5.40625 -4.40625 C 5.375 -4.394531 5.335938 -4.390625 5.296875 -4.390625 C 5.117188 -4.390625 5.003906 -4.378906 4.953125 -4.359375 C 4.941406 -4.359375 4.9375 -4.351562 4.9375 -4.34375 C 4.9375 -4.34375 4.929688 -4.332031 4.921875 -4.3125 C 4.910156 -4.289062 4.898438 -4.265625 4.890625 -4.234375 C 4.878906 -4.179688 4.867188 -4.09375 4.859375 -3.96875 C 4.859375 -3.851562 4.859375 -3.710938 4.859375 -3.546875 L 4.859375 -1.375 C 4.859375 -1.25 4.84375 -1.128906 4.8125 -1.015625 C 4.789062 -0.898438 4.753906 -0.789062 4.703125 -0.6875 C 4.660156 -0.582031 4.597656 -0.484375 4.515625 -0.390625 C 4.304688 -0.128906 4.039062 0.0546875 3.71875 0.171875 C 3.414062 0.285156 3.101562 0.34375 2.78125 0.34375 C 2.351562 0.34375 1.984375 0.265625 1.671875 0.109375 Z M 1.671875 0.109375 "/></g></g></g><g fill="#ffffff" fill-opacity="1"><g transform="translate(31.067655, 26.177224)"><g><path d="M 1.21875 0.078125 C 1.164062 0.015625 1.140625 -0.0546875 1.140625 -0.140625 L 1.140625 -0.15625 C 1.148438 -0.300781 1.203125 -0.398438 1.296875 -0.453125 C 1.347656 -0.484375 1.425781 -0.5 1.53125 -0.5 C 1.632812 -0.5 1.707031 -0.515625 1.75 -0.546875 C 1.769531 -0.554688 1.78125 -0.566406 1.78125 -0.578125 C 1.789062 -0.597656 1.800781 -0.617188 1.8125 -0.640625 C 1.8125 -0.648438 1.8125 -0.664062 1.8125 -0.6875 C 1.820312 -0.707031 1.828125 -0.726562 1.828125 -0.75 C 1.828125 -0.78125 1.828125 -0.804688 1.828125 -0.828125 C 1.835938 -0.859375 1.84375 -0.882812 1.84375 -0.90625 L 1.84375 -1.875 C 1.820312 -1.96875 1.695312 -2.238281 1.46875 -2.6875 C 1.21875 -3.207031 1.015625 -3.613281 0.859375 -3.90625 C 0.765625 -4.0625 0.664062 -4.175781 0.5625 -4.25 C 0.46875 -4.332031 0.34375 -4.382812 0.1875 -4.40625 L 0.1875 -4.421875 L 0.171875 -4.421875 C 0.171875 -4.421875 0.164062 -4.421875 0.15625 -4.421875 C 0.144531 -4.421875 0.132812 -4.421875 0.125 -4.421875 C 0.113281 -4.421875 0.101562 -4.425781 0.09375 -4.4375 C 0 -4.457031 -0.0664062 -4.503906 -0.109375 -4.578125 C -0.128906 -4.609375 -0.140625 -4.640625 -0.140625 -4.671875 C -0.148438 -4.703125 -0.15625 -4.738281 -0.15625 -4.78125 C -0.15625 -4.914062 -0.109375 -5.015625 -0.015625 -5.078125 C 0.046875 -5.117188 0.128906 -5.140625 0.234375 -5.140625 C 0.679688 -5.140625 1.035156 -5.078125 1.296875 -4.953125 C 1.566406 -4.816406 1.800781 -4.570312 2 -4.21875 C 2.09375 -4.039062 2.21875 -3.796875 2.375 -3.484375 C 2.414062 -3.410156 2.453125 -3.335938 2.484375 -3.265625 C 2.515625 -3.191406 2.546875 -3.125 2.578125 -3.0625 C 2.609375 -3.007812 2.632812 -2.957031 2.65625 -2.90625 L 2.90625 -3.40625 L 3.359375 -4.296875 C 3.367188 -4.328125 3.378906 -4.359375 3.390625 -4.390625 C 3.335938 -4.390625 3.269531 -4.390625 3.1875 -4.390625 L 3.140625 -4.390625 C 3.046875 -4.390625 2.96875 -4.414062 2.90625 -4.46875 C 2.875 -4.5 2.847656 -4.53125 2.828125 -4.5625 C 2.816406 -4.601562 2.8125 -4.628906 2.8125 -4.640625 C 2.8125 -4.660156 2.804688 -4.691406 2.796875 -4.734375 L 2.796875 -4.75 C 2.796875 -4.769531 2.796875 -4.785156 2.796875 -4.796875 C 2.796875 -4.804688 2.796875 -4.816406 2.796875 -4.828125 C 2.804688 -4.847656 2.8125 -4.863281 2.8125 -4.875 C 2.820312 -4.882812 2.828125 -4.894531 2.828125 -4.90625 C 2.835938 -4.925781 2.84375 -4.941406 2.84375 -4.953125 C 2.851562 -4.960938 2.863281 -4.972656 2.875 -4.984375 C 2.882812 -5.003906 2.898438 -5.019531 2.921875 -5.03125 C 2.941406 -5.050781 2.960938 -5.066406 2.984375 -5.078125 C 3.003906 -5.097656 3.023438 -5.109375 3.046875 -5.109375 C 3.078125 -5.117188 3.101562 -5.125 3.125 -5.125 L 3.140625 -5.125 C 3.304688 -5.113281 3.457031 -5.101562 3.59375 -5.09375 C 3.738281 -5.09375 3.863281 -5.09375 3.96875 -5.09375 C 4.0625 -5.09375 4.171875 -5.09375 4.296875 -5.09375 C 4.429688 -5.101562 4.582031 -5.113281 4.75 -5.125 L 4.765625 -5.125 C 4.878906 -5.125 4.96875 -5.078125 5.03125 -4.984375 C 5.070312 -4.921875 5.09375 -4.84375 5.09375 -4.75 L 5.09375 -4.734375 C 5.082031 -4.609375 5.046875 -4.519531 4.984375 -4.46875 C 4.929688 -4.414062 4.851562 -4.390625 4.75 -4.390625 C 4.65625 -4.390625 4.570312 -4.378906 4.5 -4.359375 C 4.4375 -4.347656 4.378906 -4.328125 4.328125 -4.296875 C 4.285156 -4.273438 4.238281 -4.234375 4.1875 -4.171875 C 4.144531 -4.117188 4.101562 -4.050781 4.0625 -3.96875 L 3.578125 -3.0625 L 3.1875 -2.328125 C 3.175781 -2.304688 3.160156 -2.28125 3.140625 -2.25 C 3.128906 -2.21875 3.113281 -2.179688 3.09375 -2.140625 C 3.082031 -2.109375 3.070312 -2.078125 3.0625 -2.046875 C 3.050781 -2.023438 3.039062 -2.003906 3.03125 -1.984375 C 3.019531 -1.960938 3.015625 -1.941406 3.015625 -1.921875 C 3.003906 -1.878906 3 -1.835938 3 -1.796875 C 3 -1.753906 3 -1.707031 3 -1.65625 L 3 -0.90625 C 3 -0.84375 3 -0.789062 3 -0.75 C 3.007812 -0.707031 3.019531 -0.671875 3.03125 -0.640625 C 3.03125 -0.617188 3.035156 -0.597656 3.046875 -0.578125 C 3.054688 -0.566406 3.070312 -0.554688 3.09375 -0.546875 C 3.125 -0.515625 3.195312 -0.5 3.3125 -0.5 L 3.359375 -0.5 C 3.453125 -0.5 3.53125 -0.472656 3.59375 -0.421875 C 3.65625 -0.367188 3.691406 -0.28125 3.703125 -0.15625 L 3.703125 -0.140625 C 3.703125 -0.0546875 3.675781 0.015625 3.625 0.078125 C 3.601562 0.117188 3.566406 0.148438 3.515625 0.171875 C 3.472656 0.203125 3.425781 0.21875 3.375 0.21875 L 3.359375 0.21875 C 3.253906 0.207031 3.144531 0.203125 3.03125 0.203125 C 2.925781 0.203125 2.820312 0.195312 2.71875 0.1875 C 2.625 0.1875 2.53125 0.1875 2.4375 0.1875 C 2.132812 0.1875 1.816406 0.195312 1.484375 0.21875 L 1.46875 0.21875 C 1.351562 0.21875 1.269531 0.171875 1.21875 0.078125 Z M 1.21875 0.078125 "/></g></g></g><g fill="#ffffff" fill-opacity="1"><g transform="translate(35.894215, 26.177224)"><g><path d="M 0.703125 0.03125 C 0.359375 -0.195312 0.1875 -0.53125 0.1875 -0.96875 C 0.1875 -1.207031 0.269531 -1.40625 0.4375 -1.5625 C 0.601562 -1.71875 0.816406 -1.796875 1.078125 -1.796875 C 1.128906 -1.796875 1.175781 -1.789062 1.21875 -1.78125 C 1.257812 -1.769531 1.300781 -1.753906 1.34375 -1.734375 C 1.382812 -1.710938 1.421875 -1.6875 1.453125 -1.65625 C 1.503906 -1.613281 1.546875 -1.566406 1.578125 -1.515625 C 1.609375 -1.472656 1.625 -1.421875 1.625 -1.359375 C 1.625 -1.328125 1.617188 -1.300781 1.609375 -1.28125 C 1.609375 -1.257812 1.601562 -1.238281 1.59375 -1.21875 C 1.582031 -1.207031 1.566406 -1.195312 1.546875 -1.1875 C 1.535156 -1.175781 1.523438 -1.164062 1.515625 -1.15625 C 1.503906 -1.15625 1.492188 -1.15625 1.484375 -1.15625 C 1.472656 -1.15625 1.460938 -1.15625 1.453125 -1.15625 C 1.421875 -1.132812 1.394531 -1.101562 1.375 -1.0625 C 1.351562 -1.03125 1.34375 -0.984375 1.34375 -0.921875 C 1.34375 -0.734375 1.394531 -0.59375 1.5 -0.5 C 1.613281 -0.394531 1.800781 -0.34375 2.0625 -0.34375 C 2.238281 -0.34375 2.394531 -0.378906 2.53125 -0.453125 C 2.65625 -0.515625 2.75 -0.601562 2.8125 -0.71875 C 2.882812 -0.820312 2.921875 -0.929688 2.921875 -1.046875 C 2.921875 -1.179688 2.878906 -1.300781 2.796875 -1.40625 C 2.703125 -1.519531 2.59375 -1.613281 2.46875 -1.6875 C 2.394531 -1.726562 2.304688 -1.773438 2.203125 -1.828125 C 2.097656 -1.878906 1.976562 -1.9375 1.84375 -2 C 1.519531 -2.144531 1.265625 -2.273438 1.078125 -2.390625 C 0.859375 -2.515625 0.675781 -2.679688 0.53125 -2.890625 C 0.363281 -3.117188 0.28125 -3.394531 0.28125 -3.71875 C 0.28125 -3.96875 0.328125 -4.191406 0.421875 -4.390625 C 0.515625 -4.585938 0.648438 -4.75 0.828125 -4.875 C 1.003906 -5 1.203125 -5.09375 1.421875 -5.15625 C 1.640625 -5.21875 1.882812 -5.25 2.15625 -5.25 C 2.582031 -5.25 2.957031 -5.160156 3.28125 -4.984375 C 3.644531 -4.773438 3.828125 -4.472656 3.828125 -4.078125 C 3.828125 -3.835938 3.742188 -3.632812 3.578125 -3.46875 C 3.515625 -3.414062 3.445312 -3.375 3.375 -3.34375 C 3.3125 -3.3125 3.242188 -3.285156 3.171875 -3.265625 C 3.097656 -3.242188 3.019531 -3.234375 2.9375 -3.234375 C 2.769531 -3.242188 2.640625 -3.289062 2.546875 -3.375 C 2.441406 -3.46875 2.390625 -3.566406 2.390625 -3.671875 C 2.390625 -3.753906 2.40625 -3.8125 2.4375 -3.84375 C 2.476562 -3.882812 2.515625 -3.90625 2.546875 -3.90625 L 2.59375 -3.90625 C 2.644531 -3.925781 2.6875 -3.953125 2.71875 -3.984375 C 2.738281 -4.015625 2.75 -4.0625 2.75 -4.125 C 2.75 -4.1875 2.738281 -4.238281 2.71875 -4.28125 C 2.695312 -4.332031 2.660156 -4.378906 2.609375 -4.421875 C 2.554688 -4.460938 2.492188 -4.492188 2.421875 -4.515625 C 2.347656 -4.535156 2.265625 -4.546875 2.171875 -4.546875 C 2.023438 -4.546875 1.90625 -4.53125 1.8125 -4.5 C 1.71875 -4.46875 1.640625 -4.425781 1.578125 -4.375 C 1.515625 -4.3125 1.46875 -4.25 1.4375 -4.1875 C 1.40625 -4.125 1.390625 -4.050781 1.390625 -3.96875 C 1.390625 -3.832031 1.425781 -3.722656 1.5 -3.640625 C 1.582031 -3.535156 1.722656 -3.429688 1.921875 -3.328125 C 1.972656 -3.296875 2.03125 -3.265625 2.09375 -3.234375 C 2.15625 -3.203125 2.21875 -3.171875 2.28125 -3.140625 C 2.34375 -3.109375 2.410156 -3.078125 2.484375 -3.046875 C 2.648438 -2.972656 2.800781 -2.898438 2.9375 -2.828125 C 3.070312 -2.753906 3.191406 -2.6875 3.296875 -2.625 C 3.515625 -2.488281 3.695312 -2.304688 3.84375 -2.078125 C 3.988281 -1.835938 4.0625 -1.550781 4.0625 -1.21875 C 4.0625 -0.914062 3.96875 -0.640625 3.78125 -0.390625 C 3.601562 -0.160156 3.359375 0.0195312 3.046875 0.15625 C 2.773438 0.269531 2.476562 0.332031 2.15625 0.34375 C 2.125 0.34375 2.09375 0.34375 2.0625 0.34375 C 1.476562 0.34375 1.023438 0.238281 0.703125 0.03125 Z M 0.703125 0.03125 "/></g></g></g><g fill="#ffffff" fill-opacity="1"><g transform="translate(40.130084, 26.177224)"><g><path d="M -0.21875 0.078125 C -0.257812 0.015625 -0.28125 -0.0546875 -0.28125 -0.140625 L -0.28125 -0.15625 C -0.28125 -0.15625 -0.28125 -0.160156 -0.28125 -0.171875 C -0.269531 -0.304688 -0.222656 -0.398438 -0.140625 -0.453125 C -0.0859375 -0.484375 -0.0234375 -0.5 0.046875 -0.5 L 0.109375 -0.5 C 0.210938 -0.5 0.28125 -0.519531 0.3125 -0.5625 C 0.375 -0.625 0.421875 -0.695312 0.453125 -0.78125 C 0.460938 -0.800781 0.46875 -0.816406 0.46875 -0.828125 C 0.476562 -0.847656 0.484375 -0.863281 0.484375 -0.875 C 0.492188 -0.882812 0.5 -0.894531 0.5 -0.90625 C 0.507812 -0.914062 0.515625 -0.925781 0.515625 -0.9375 C 0.523438 -0.945312 0.53125 -0.957031 0.53125 -0.96875 C 0.539062 -0.976562 0.546875 -0.984375 0.546875 -0.984375 L 0.734375 -1.421875 L 1.90625 -4.203125 C 1.925781 -4.253906 1.9375 -4.289062 1.9375 -4.3125 L 1.921875 -4.34375 C 1.867188 -4.375 1.785156 -4.398438 1.671875 -4.421875 C 1.554688 -4.441406 1.476562 -4.46875 1.4375 -4.5 C 1.363281 -4.5625 1.328125 -4.660156 1.328125 -4.796875 C 1.328125 -4.929688 1.375 -5.023438 1.46875 -5.078125 C 1.53125 -5.117188 1.617188 -5.140625 1.734375 -5.140625 C 1.828125 -5.140625 1.910156 -5.132812 1.984375 -5.125 C 2.066406 -5.125 2.140625 -5.117188 2.203125 -5.109375 C 2.273438 -5.109375 2.34375 -5.097656 2.40625 -5.078125 C 2.582031 -5.023438 2.742188 -4.929688 2.890625 -4.796875 C 3.015625 -4.660156 3.132812 -4.457031 3.25 -4.1875 L 4.546875 -0.984375 C 4.617188 -0.796875 4.6875 -0.660156 4.75 -0.578125 C 4.769531 -0.554688 4.789062 -0.535156 4.8125 -0.515625 C 4.84375 -0.503906 4.878906 -0.5 4.921875 -0.5 L 4.96875 -0.5 C 5.070312 -0.5 5.148438 -0.472656 5.203125 -0.421875 C 5.210938 -0.421875 5.222656 -0.414062 5.234375 -0.40625 C 5.242188 -0.394531 5.25 -0.382812 5.25 -0.375 C 5.257812 -0.363281 5.265625 -0.351562 5.265625 -0.34375 C 5.273438 -0.332031 5.28125 -0.320312 5.28125 -0.3125 C 5.28125 -0.3125 5.28125 -0.300781 5.28125 -0.28125 C 5.289062 -0.269531 5.296875 -0.257812 5.296875 -0.25 C 5.296875 -0.25 5.296875 -0.242188 5.296875 -0.234375 C 5.296875 -0.222656 5.296875 -0.210938 5.296875 -0.203125 C 5.304688 -0.203125 5.3125 -0.195312 5.3125 -0.1875 C 5.3125 -0.175781 5.3125 -0.164062 5.3125 -0.15625 L 5.3125 -0.140625 C 5.3125 -0.0546875 5.285156 0.015625 5.234375 0.078125 C 5.210938 0.109375 5.1875 0.132812 5.15625 0.15625 C 5.132812 0.175781 5.109375 0.191406 5.078125 0.203125 C 5.046875 0.210938 5.015625 0.21875 4.984375 0.21875 L 4.96875 0.21875 C 4.632812 0.195312 4.351562 0.1875 4.125 0.1875 C 3.820312 0.1875 3.503906 0.195312 3.171875 0.21875 L 3.15625 0.21875 C 3.125 0.21875 3.09375 0.210938 3.0625 0.203125 C 3.03125 0.191406 3 0.175781 2.96875 0.15625 C 2.9375 0.132812 2.910156 0.109375 2.890625 0.078125 C 2.867188 0.046875 2.851562 0.015625 2.84375 -0.015625 C 2.832031 -0.0546875 2.828125 -0.0976562 2.828125 -0.140625 L 2.828125 -0.15625 C 2.835938 -0.28125 2.875 -0.367188 2.9375 -0.421875 C 2.988281 -0.472656 3.066406 -0.5 3.171875 -0.5 C 3.304688 -0.5 3.398438 -0.507812 3.453125 -0.53125 C 3.453125 -0.539062 3.453125 -0.546875 3.453125 -0.546875 C 3.453125 -0.546875 3.445312 -0.554688 3.4375 -0.578125 C 3.4375 -0.609375 3.429688 -0.644531 3.421875 -0.6875 C 3.410156 -0.738281 3.394531 -0.789062 3.375 -0.84375 L 3.15625 -1.359375 L 1.5 -1.359375 C 1.445312 -1.234375 1.410156 -1.132812 1.390625 -1.0625 C 1.359375 -1 1.335938 -0.957031 1.328125 -0.9375 C 1.328125 -0.925781 1.320312 -0.910156 1.3125 -0.890625 C 1.3125 -0.878906 1.3125 -0.867188 1.3125 -0.859375 C 1.3125 -0.859375 1.3125 -0.851562 1.3125 -0.84375 C 1.289062 -0.769531 1.269531 -0.703125 1.25 -0.640625 C 1.238281 -0.585938 1.234375 -0.550781 1.234375 -0.53125 C 1.296875 -0.507812 1.414062 -0.5 1.59375 -0.5 L 1.640625 -0.5 C 1.734375 -0.5 1.8125 -0.472656 1.875 -0.421875 C 1.9375 -0.367188 1.972656 -0.28125 1.984375 -0.15625 L 1.984375 -0.140625 C 1.984375 -0.0546875 1.957031 0.015625 1.90625 0.078125 C 1.875 0.117188 1.832031 0.148438 1.78125 0.171875 C 1.738281 0.203125 1.691406 0.21875 1.640625 0.21875 C 1.472656 0.207031 1.316406 0.195312 1.171875 0.1875 C 1.035156 0.1875 0.910156 0.1875 0.796875 0.1875 C 0.640625 0.1875 0.390625 0.195312 0.046875 0.21875 C -0.0664062 0.21875 -0.15625 0.171875 -0.21875 0.078125 Z M 1.8125 -2.078125 L 2.859375 -2.078125 L 2.359375 -3.390625 Z M 1.8125 -2.078125 "/></g></g></g><g fill="#ffffff" fill-opacity="1"><g transform="translate(21.033691, 34.07284)"><g><path d="M 1.46875 0.046875 C 1.070312 -0.160156 0.757812 -0.472656 0.53125 -0.890625 C 0.300781 -1.304688 0.1875 -1.816406 0.1875 -2.421875 C 0.1875 -2.972656 0.3125 -3.460938 0.5625 -3.890625 C 0.8125 -4.328125 1.15625 -4.664062 1.59375 -4.90625 C 1.96875 -5.09375 2.382812 -5.203125 2.84375 -5.234375 C 2.863281 -5.234375 2.890625 -5.234375 2.921875 -5.234375 C 2.953125 -5.242188 2.976562 -5.25 3 -5.25 C 3.03125 -5.25 3.0625 -5.25 3.09375 -5.25 C 3.375 -5.25 3.644531 -5.207031 3.90625 -5.125 C 4 -5.09375 4.085938 -5.054688 4.171875 -5.015625 C 4.265625 -4.984375 4.347656 -4.941406 4.421875 -4.890625 C 4.492188 -4.835938 4.5625 -4.78125 4.625 -4.71875 C 4.832031 -4.507812 4.9375 -4.253906 4.9375 -3.953125 C 4.9375 -3.890625 4.929688 -3.828125 4.921875 -3.765625 C 4.910156 -3.703125 4.894531 -3.640625 4.875 -3.578125 C 4.851562 -3.515625 4.828125 -3.457031 4.796875 -3.40625 C 4.765625 -3.351562 4.726562 -3.300781 4.6875 -3.25 C 4.601562 -3.144531 4.5 -3.0625 4.375 -3 C 4.257812 -2.945312 4.132812 -2.921875 4 -2.921875 C 3.945312 -2.921875 3.898438 -2.925781 3.859375 -2.9375 C 3.816406 -2.945312 3.769531 -2.957031 3.71875 -2.96875 C 3.675781 -2.988281 3.632812 -3.007812 3.59375 -3.03125 C 3.519531 -3.0625 3.457031 -3.109375 3.40625 -3.171875 C 3.363281 -3.234375 3.335938 -3.304688 3.328125 -3.390625 L 3.328125 -3.40625 C 3.328125 -3.457031 3.332031 -3.5 3.34375 -3.53125 C 3.363281 -3.570312 3.382812 -3.59375 3.40625 -3.59375 C 3.425781 -3.601562 3.445312 -3.613281 3.46875 -3.625 C 3.5 -3.632812 3.515625 -3.640625 3.515625 -3.640625 C 3.535156 -3.648438 3.550781 -3.660156 3.5625 -3.671875 C 3.582031 -3.691406 3.597656 -3.710938 3.609375 -3.734375 C 3.628906 -3.753906 3.648438 -3.78125 3.671875 -3.8125 C 3.703125 -3.863281 3.71875 -3.929688 3.71875 -4.015625 C 3.71875 -4.171875 3.660156 -4.296875 3.546875 -4.390625 C 3.398438 -4.492188 3.21875 -4.546875 3 -4.546875 C 2.957031 -4.546875 2.914062 -4.546875 2.875 -4.546875 C 2.644531 -4.523438 2.429688 -4.445312 2.234375 -4.3125 C 2.179688 -4.269531 2.128906 -4.222656 2.078125 -4.171875 C 2.023438 -4.128906 1.972656 -4.078125 1.921875 -4.015625 C 1.878906 -3.960938 1.835938 -3.898438 1.796875 -3.828125 C 1.765625 -3.765625 1.726562 -3.695312 1.6875 -3.625 C 1.625 -3.457031 1.570312 -3.273438 1.53125 -3.078125 C 1.5 -2.890625 1.484375 -2.6875 1.484375 -2.46875 C 1.484375 -2.03125 1.550781 -1.65625 1.6875 -1.34375 C 1.820312 -1.039062 2.003906 -0.8125 2.234375 -0.65625 C 2.316406 -0.601562 2.398438 -0.554688 2.484375 -0.515625 C 2.566406 -0.484375 2.65625 -0.457031 2.75 -0.4375 C 2.851562 -0.425781 2.957031 -0.421875 3.0625 -0.421875 C 3.132812 -0.421875 3.203125 -0.421875 3.265625 -0.421875 C 3.335938 -0.429688 3.40625 -0.4375 3.46875 -0.4375 C 3.5 -0.445312 3.535156 -0.457031 3.578125 -0.46875 C 3.628906 -0.476562 3.671875 -0.488281 3.703125 -0.5 L 3.703125 -1.140625 C 3.703125 -1.304688 3.695312 -1.421875 3.6875 -1.484375 C 3.6875 -1.492188 3.679688 -1.503906 3.671875 -1.515625 C 3.628906 -1.535156 3.539062 -1.546875 3.40625 -1.546875 C 3.300781 -1.546875 3.222656 -1.566406 3.171875 -1.609375 C 3.085938 -1.660156 3.039062 -1.753906 3.03125 -1.890625 L 3.03125 -1.90625 C 3.03125 -2 3.0625 -2.082031 3.125 -2.15625 C 3.1875 -2.226562 3.273438 -2.265625 3.390625 -2.265625 L 3.40625 -2.265625 C 3.726562 -2.253906 4.007812 -2.25 4.25 -2.25 C 4.320312 -2.25 4.398438 -2.25 4.484375 -2.25 C 4.578125 -2.25 4.671875 -2.25 4.765625 -2.25 C 4.867188 -2.257812 4.972656 -2.265625 5.078125 -2.265625 L 5.09375 -2.265625 C 5.195312 -2.265625 5.28125 -2.222656 5.34375 -2.140625 C 5.394531 -2.078125 5.421875 -2 5.421875 -1.90625 L 5.421875 -1.890625 C 5.421875 -1.859375 5.421875 -1.832031 5.421875 -1.8125 C 5.421875 -1.800781 5.414062 -1.78125 5.40625 -1.75 C 5.394531 -1.71875 5.378906 -1.691406 5.359375 -1.671875 C 5.347656 -1.648438 5.328125 -1.628906 5.296875 -1.609375 C 5.253906 -1.578125 5.21875 -1.554688 5.1875 -1.546875 C 5.15625 -1.546875 5.113281 -1.546875 5.0625 -1.546875 C 4.945312 -1.546875 4.867188 -1.535156 4.828125 -1.515625 C 4.804688 -1.492188 4.796875 -1.472656 4.796875 -1.453125 C 4.796875 -1.441406 4.789062 -1.421875 4.78125 -1.390625 C 4.78125 -1.359375 4.78125 -1.320312 4.78125 -1.28125 C 4.78125 -1.238281 4.78125 -1.191406 4.78125 -1.140625 L 4.78125 -0.09375 L 4.671875 -0.046875 C 4.503906 0.0234375 4.347656 0.0859375 4.203125 0.140625 C 4.054688 0.191406 3.914062 0.234375 3.78125 0.265625 C 3.726562 0.273438 3.671875 0.285156 3.609375 0.296875 C 3.367188 0.328125 3.09375 0.34375 2.78125 0.34375 C 2.300781 0.34375 1.863281 0.242188 1.46875 0.046875 Z M 1.46875 0.046875 "/></g></g></g><g fill="#ffffff" fill-opacity="1"><g transform="translate(26.412081, 34.07284)"><g><path d="M 1.671875 0.109375 C 1.367188 -0.0351562 1.132812 -0.238281 0.96875 -0.5 C 0.800781 -0.757812 0.71875 -1.039062 0.71875 -1.34375 L 0.71875 -3.984375 C 0.707031 -4.097656 0.695312 -4.191406 0.6875 -4.265625 C 0.675781 -4.273438 0.664062 -4.285156 0.65625 -4.296875 C 0.65625 -4.316406 0.644531 -4.332031 0.625 -4.34375 C 0.582031 -4.375 0.507812 -4.390625 0.40625 -4.390625 L 0.359375 -4.390625 C 0.253906 -4.390625 0.175781 -4.414062 0.125 -4.46875 C 0.101562 -4.476562 0.0859375 -4.488281 0.078125 -4.5 C 0.078125 -4.507812 0.0703125 -4.519531 0.0625 -4.53125 C 0.0507812 -4.539062 0.0390625 -4.550781 0.03125 -4.5625 C 0.03125 -4.570312 0.03125 -4.582031 0.03125 -4.59375 C 0.03125 -4.601562 0.0234375 -4.613281 0.015625 -4.625 C 0.015625 -4.632812 0.015625 -4.644531 0.015625 -4.65625 C 0.015625 -4.664062 0.015625 -4.671875 0.015625 -4.671875 C 0.015625 -4.679688 0.015625 -4.691406 0.015625 -4.703125 C 0.015625 -4.722656 0.015625 -4.734375 0.015625 -4.734375 L 0.015625 -4.75 C 0.015625 -4.769531 0.015625 -4.789062 0.015625 -4.8125 C 0.015625 -4.832031 0.015625 -4.851562 0.015625 -4.875 C 0.0234375 -4.894531 0.0351562 -4.910156 0.046875 -4.921875 C 0.0546875 -4.941406 0.0664062 -4.960938 0.078125 -4.984375 C 0.0976562 -5.015625 0.125 -5.039062 0.15625 -5.0625 C 0.1875 -5.082031 0.21875 -5.097656 0.25 -5.109375 C 0.28125 -5.117188 0.3125 -5.125 0.34375 -5.125 L 0.359375 -5.125 C 0.691406 -5.101562 0.992188 -5.09375 1.265625 -5.09375 C 1.578125 -5.09375 1.898438 -5.101562 2.234375 -5.125 C 2.265625 -5.125 2.296875 -5.117188 2.328125 -5.109375 C 2.367188 -5.097656 2.398438 -5.082031 2.421875 -5.0625 C 2.453125 -5.039062 2.476562 -5.015625 2.5 -4.984375 C 2.53125 -4.953125 2.550781 -4.914062 2.5625 -4.875 C 2.570312 -4.832031 2.578125 -4.789062 2.578125 -4.75 L 2.578125 -4.734375 C 2.566406 -4.691406 2.5625 -4.660156 2.5625 -4.640625 C 2.5625 -4.628906 2.550781 -4.601562 2.53125 -4.5625 C 2.507812 -4.519531 2.484375 -4.488281 2.453125 -4.46875 C 2.398438 -4.414062 2.320312 -4.390625 2.21875 -4.390625 C 2.09375 -4.390625 2.007812 -4.375 1.96875 -4.34375 C 1.945312 -4.332031 1.929688 -4.320312 1.921875 -4.3125 C 1.910156 -4.300781 1.90625 -4.285156 1.90625 -4.265625 C 1.882812 -4.203125 1.875 -4.109375 1.875 -3.984375 L 1.875 -1.5625 C 1.875 -1.25 1.945312 -0.988281 2.09375 -0.78125 C 2.21875 -0.59375 2.488281 -0.5 2.90625 -0.5 C 3.332031 -0.5 3.625 -0.585938 3.78125 -0.765625 C 3.945312 -0.953125 4.03125 -1.179688 4.03125 -1.453125 L 4.03125 -3.5 C 4.03125 -3.84375 4.015625 -4.082031 3.984375 -4.21875 C 3.984375 -4.25 3.976562 -4.273438 3.96875 -4.296875 C 3.957031 -4.328125 3.945312 -4.34375 3.9375 -4.34375 L 3.9375 -4.359375 C 3.894531 -4.378906 3.789062 -4.390625 3.625 -4.390625 L 3.578125 -4.390625 C 3.535156 -4.390625 3.492188 -4.394531 3.453125 -4.40625 C 3.421875 -4.414062 3.390625 -4.429688 3.359375 -4.453125 C 3.328125 -4.484375 3.300781 -4.519531 3.28125 -4.5625 C 3.257812 -4.601562 3.25 -4.628906 3.25 -4.640625 C 3.25 -4.660156 3.242188 -4.691406 3.234375 -4.734375 L 3.234375 -4.75 C 3.234375 -4.769531 3.234375 -4.785156 3.234375 -4.796875 C 3.234375 -4.804688 3.234375 -4.816406 3.234375 -4.828125 C 3.242188 -4.847656 3.25 -4.863281 3.25 -4.875 C 3.257812 -4.882812 3.265625 -4.894531 3.265625 -4.90625 C 3.273438 -4.925781 3.28125 -4.941406 3.28125 -4.953125 C 3.289062 -4.960938 3.300781 -4.972656 3.3125 -4.984375 C 3.34375 -5.023438 3.378906 -5.054688 3.421875 -5.078125 C 3.472656 -5.109375 3.523438 -5.125 3.578125 -5.125 C 3.742188 -5.113281 3.898438 -5.101562 4.046875 -5.09375 C 4.191406 -5.09375 4.320312 -5.09375 4.4375 -5.09375 C 4.5 -5.09375 4.5625 -5.09375 4.625 -5.09375 C 4.695312 -5.09375 4.769531 -5.09375 4.84375 -5.09375 C 4.914062 -5.101562 4.988281 -5.109375 5.0625 -5.109375 C 5.132812 -5.109375 5.210938 -5.113281 5.296875 -5.125 L 5.3125 -5.125 C 5.425781 -5.125 5.515625 -5.078125 5.578125 -4.984375 C 5.617188 -4.921875 5.640625 -4.84375 5.640625 -4.75 L 5.640625 -4.734375 C 5.628906 -4.609375 5.59375 -4.519531 5.53125 -4.46875 C 5.488281 -4.4375 5.445312 -4.414062 5.40625 -4.40625 C 5.375 -4.394531 5.335938 -4.390625 5.296875 -4.390625 C 5.117188 -4.390625 5.003906 -4.378906 4.953125 -4.359375 C 4.941406 -4.359375 4.9375 -4.351562 4.9375 -4.34375 C 4.9375 -4.34375 4.929688 -4.332031 4.921875 -4.3125 C 4.910156 -4.289062 4.898438 -4.265625 4.890625 -4.234375 C 4.878906 -4.179688 4.867188 -4.09375 4.859375 -3.96875 C 4.859375 -3.851562 4.859375 -3.710938 4.859375 -3.546875 L 4.859375 -1.375 C 4.859375 -1.25 4.84375 -1.128906 4.8125 -1.015625 C 4.789062 -0.898438 4.753906 -0.789062 4.703125 -0.6875 C 4.660156 -0.582031 4.597656 -0.484375 4.515625 -0.390625 C 4.304688 -0.128906 4.039062 0.0546875 3.71875 0.171875 C 3.414062 0.285156 3.101562 0.34375 2.78125 0.34375 C 2.351562 0.34375 1.984375 0.265625 1.671875 0.109375 Z M 1.671875 0.109375 "/></g></g></g><g fill="#ffffff" fill-opacity="1"><g transform="translate(32.008096, 34.07284)"><g><path d="M 0.203125 0.078125 C 0.171875 0.046875 0.148438 0.015625 0.140625 -0.015625 C 0.128906 -0.0546875 0.125 -0.0976562 0.125 -0.140625 L 0.125 -0.15625 C 0.132812 -0.300781 0.1875 -0.398438 0.28125 -0.453125 C 0.34375 -0.484375 0.421875 -0.5 0.515625 -0.5 C 0.628906 -0.5 0.703125 -0.515625 0.734375 -0.546875 C 0.773438 -0.578125 0.800781 -0.609375 0.8125 -0.640625 C 0.8125 -0.671875 0.816406 -0.707031 0.828125 -0.75 C 0.835938 -0.800781 0.84375 -0.851562 0.84375 -0.90625 L 0.84375 -3.984375 C 0.832031 -4.046875 0.820312 -4.097656 0.8125 -4.140625 C 0.8125 -4.191406 0.8125 -4.234375 0.8125 -4.265625 C 0.800781 -4.296875 0.773438 -4.320312 0.734375 -4.34375 C 0.703125 -4.375 0.628906 -4.390625 0.515625 -4.390625 L 0.46875 -4.390625 C 0.375 -4.390625 0.300781 -4.414062 0.25 -4.46875 C 0.21875 -4.488281 0.191406 -4.519531 0.171875 -4.5625 C 0.148438 -4.601562 0.140625 -4.628906 0.140625 -4.640625 C 0.140625 -4.660156 0.132812 -4.691406 0.125 -4.734375 L 0.125 -4.75 C 0.125 -4.769531 0.125 -4.789062 0.125 -4.8125 C 0.132812 -4.832031 0.140625 -4.851562 0.140625 -4.875 C 0.148438 -4.894531 0.160156 -4.910156 0.171875 -4.921875 C 0.179688 -4.941406 0.191406 -4.960938 0.203125 -4.984375 C 0.222656 -5.015625 0.242188 -5.039062 0.265625 -5.0625 C 0.296875 -5.082031 0.328125 -5.097656 0.359375 -5.109375 C 0.398438 -5.117188 0.4375 -5.125 0.46875 -5.125 C 0.550781 -5.113281 0.632812 -5.109375 0.71875 -5.109375 C 0.800781 -5.109375 0.878906 -5.101562 0.953125 -5.09375 C 1.035156 -5.09375 1.113281 -5.09375 1.1875 -5.09375 C 1.257812 -5.09375 1.328125 -5.09375 1.390625 -5.09375 C 1.691406 -5.09375 2.015625 -5.101562 2.359375 -5.125 C 2.390625 -5.125 2.421875 -5.117188 2.453125 -5.109375 C 2.492188 -5.097656 2.523438 -5.082031 2.546875 -5.0625 C 2.578125 -5.039062 2.601562 -5.015625 2.625 -4.984375 C 2.644531 -4.953125 2.660156 -4.914062 2.671875 -4.875 C 2.679688 -4.832031 2.6875 -4.789062 2.6875 -4.75 L 2.6875 -4.734375 C 2.675781 -4.585938 2.628906 -4.488281 2.546875 -4.4375 C 2.503906 -4.414062 2.460938 -4.398438 2.421875 -4.390625 C 2.390625 -4.390625 2.347656 -4.390625 2.296875 -4.390625 C 2.191406 -4.390625 2.117188 -4.375 2.078125 -4.34375 C 2.046875 -4.320312 2.023438 -4.296875 2.015625 -4.265625 C 2.003906 -4.191406 1.992188 -4.097656 1.984375 -3.984375 L 1.984375 -0.90625 C 1.992188 -0.84375 2 -0.789062 2 -0.75 C 2 -0.707031 2.003906 -0.671875 2.015625 -0.640625 C 2.023438 -0.617188 2.03125 -0.597656 2.03125 -0.578125 C 2.039062 -0.566406 2.054688 -0.554688 2.078125 -0.546875 C 2.117188 -0.515625 2.191406 -0.5 2.296875 -0.5 L 2.34375 -0.5 C 2.394531 -0.5 2.4375 -0.492188 2.46875 -0.484375 C 2.507812 -0.484375 2.546875 -0.46875 2.578125 -0.4375 C 2.640625 -0.382812 2.675781 -0.289062 2.6875 -0.15625 L 2.6875 -0.140625 C 2.6875 -0.0546875 2.664062 0.015625 2.625 0.078125 C 2.601562 0.109375 2.578125 0.132812 2.546875 0.15625 C 2.523438 0.175781 2.492188 0.191406 2.453125 0.203125 C 2.421875 0.210938 2.390625 0.21875 2.359375 0.21875 C 2.023438 0.195312 1.703125 0.1875 1.390625 0.1875 C 1.117188 0.1875 0.8125 0.195312 0.46875 0.21875 C 0.351562 0.21875 0.265625 0.171875 0.203125 0.078125 Z M 0.203125 0.078125 "/></g></g></g><g fill="#ffffff" fill-opacity="1"><g transform="translate(34.837191, 34.07284)"><g><path d="M 2.984375 0.03125 L 1.59375 -3.109375 L 1.59375 -0.921875 C 1.601562 -0.785156 1.613281 -0.6875 1.625 -0.625 C 1.632812 -0.59375 1.65625 -0.566406 1.6875 -0.546875 C 1.71875 -0.515625 1.785156 -0.5 1.890625 -0.5 L 1.9375 -0.5 C 1.988281 -0.5 2.03125 -0.492188 2.0625 -0.484375 C 2.101562 -0.484375 2.140625 -0.46875 2.171875 -0.4375 C 2.242188 -0.382812 2.285156 -0.289062 2.296875 -0.15625 L 2.296875 -0.140625 C 2.296875 -0.0546875 2.269531 0.015625 2.21875 0.078125 C 2.1875 0.117188 2.144531 0.148438 2.09375 0.171875 C 2.050781 0.203125 2.003906 0.21875 1.953125 0.21875 L 1.75 0.203125 C 1.507812 0.191406 1.34375 0.1875 1.25 0.1875 C 1.082031 0.1875 0.828125 0.195312 0.484375 0.21875 C 0.367188 0.21875 0.28125 0.171875 0.21875 0.078125 C 0.1875 0.046875 0.164062 0.015625 0.15625 -0.015625 C 0.144531 -0.0546875 0.140625 -0.0976562 0.140625 -0.140625 L 0.140625 -0.15625 C 0.140625 -0.15625 0.140625 -0.160156 0.140625 -0.171875 C 0.148438 -0.304688 0.195312 -0.398438 0.28125 -0.453125 C 0.34375 -0.484375 0.425781 -0.5 0.53125 -0.5 C 0.59375 -0.5 0.640625 -0.503906 0.671875 -0.515625 C 0.710938 -0.523438 0.738281 -0.535156 0.75 -0.546875 C 0.78125 -0.566406 0.796875 -0.59375 0.796875 -0.625 C 0.804688 -0.65625 0.8125 -0.695312 0.8125 -0.75 C 0.820312 -0.800781 0.828125 -0.859375 0.828125 -0.921875 L 0.84375 -2.5 L 0.84375 -3.984375 C 0.84375 -4.117188 0.832031 -4.210938 0.8125 -4.265625 C 0.789062 -4.304688 0.769531 -4.332031 0.75 -4.34375 C 0.6875 -4.375 0.597656 -4.398438 0.484375 -4.421875 L 0.46875 -4.421875 C 0.46875 -4.421875 0.460938 -4.421875 0.453125 -4.421875 C 0.441406 -4.429688 0.429688 -4.4375 0.421875 -4.4375 C 0.410156 -4.4375 0.398438 -4.4375 0.390625 -4.4375 C 0.285156 -4.457031 0.210938 -4.503906 0.171875 -4.578125 C 0.148438 -4.617188 0.132812 -4.65625 0.125 -4.6875 C 0.125 -4.71875 0.125 -4.753906 0.125 -4.796875 C 0.125 -4.929688 0.171875 -5.023438 0.265625 -5.078125 C 0.335938 -5.117188 0.425781 -5.140625 0.53125 -5.140625 C 0.851562 -5.140625 1.117188 -5.117188 1.328125 -5.078125 C 1.554688 -5.035156 1.753906 -4.941406 1.921875 -4.796875 C 2.097656 -4.660156 2.242188 -4.460938 2.359375 -4.203125 L 3.515625 -1.59375 L 3.953125 -2.671875 L 4.890625 -4.96875 L 4.9375 -5.09375 L 5.5 -5.09375 C 5.5625 -5.09375 5.617188 -5.09375 5.671875 -5.09375 C 5.734375 -5.09375 5.796875 -5.09375 5.859375 -5.09375 C 5.921875 -5.101562 5.976562 -5.109375 6.03125 -5.109375 C 6.09375 -5.109375 6.15625 -5.109375 6.21875 -5.109375 C 6.289062 -5.109375 6.359375 -5.113281 6.421875 -5.125 L 6.4375 -5.125 C 6.539062 -5.125 6.625 -5.078125 6.6875 -4.984375 C 6.738281 -4.921875 6.765625 -4.84375 6.765625 -4.75 L 6.765625 -4.734375 C 6.753906 -4.585938 6.703125 -4.488281 6.609375 -4.4375 C 6.566406 -4.414062 6.53125 -4.398438 6.5 -4.390625 C 6.46875 -4.390625 6.425781 -4.390625 6.375 -4.390625 C 6.269531 -4.390625 6.195312 -4.375 6.15625 -4.34375 C 6.125 -4.320312 6.101562 -4.296875 6.09375 -4.265625 C 6.09375 -4.242188 6.085938 -4.21875 6.078125 -4.1875 C 6.078125 -4.15625 6.070312 -4.125 6.0625 -4.09375 C 6.0625 -4.0625 6.0625 -4.023438 6.0625 -3.984375 L 6.0625 -0.90625 C 6.070312 -0.789062 6.082031 -0.703125 6.09375 -0.640625 C 6.101562 -0.617188 6.109375 -0.597656 6.109375 -0.578125 C 6.117188 -0.566406 6.132812 -0.554688 6.15625 -0.546875 C 6.195312 -0.515625 6.269531 -0.5 6.375 -0.5 L 6.421875 -0.5 C 6.515625 -0.5 6.585938 -0.476562 6.640625 -0.4375 C 6.710938 -0.382812 6.753906 -0.289062 6.765625 -0.15625 L 6.765625 -0.140625 C 6.765625 -0.0546875 6.738281 0.015625 6.6875 0.078125 C 6.664062 0.109375 6.640625 0.132812 6.609375 0.15625 C 6.585938 0.175781 6.554688 0.191406 6.515625 0.203125 C 6.484375 0.210938 6.457031 0.21875 6.4375 0.21875 L 6.421875 0.21875 C 6.085938 0.195312 5.78125 0.1875 5.5 0.1875 C 5.207031 0.1875 4.890625 0.195312 4.546875 0.21875 C 4.429688 0.21875 4.34375 0.171875 4.28125 0.078125 C 4.226562 0.015625 4.203125 -0.0546875 4.203125 -0.140625 L 4.203125 -0.15625 C 4.222656 -0.300781 4.269531 -0.398438 4.34375 -0.453125 C 4.40625 -0.484375 4.488281 -0.5 4.59375 -0.5 C 4.707031 -0.5 4.78125 -0.515625 4.8125 -0.546875 C 4.851562 -0.566406 4.875 -0.597656 4.875 -0.640625 C 4.894531 -0.703125 4.90625 -0.789062 4.90625 -0.90625 L 4.90625 -3.046875 L 4.65625 -2.4375 L 3.65625 0.03125 C 3.601562 0.164062 3.492188 0.234375 3.328125 0.234375 C 3.171875 0.234375 3.0625 0.175781 3 0.0625 L 2.984375 0.046875 Z M 2.984375 0.03125 "/></g></g></g><g fill="#ffffff" fill-opacity="1"><g transform="translate(41.746712, 34.07284)"><g><path d="M -0.21875 0.078125 C -0.257812 0.015625 -0.28125 -0.0546875 -0.28125 -0.140625 L -0.28125 -0.15625 C -0.28125 -0.15625 -0.28125 -0.160156 -0.28125 -0.171875 C -0.269531 -0.304688 -0.222656 -0.398438 -0.140625 -0.453125 C -0.0859375 -0.484375 -0.0234375 -0.5 0.046875 -0.5 L 0.109375 -0.5 C 0.210938 -0.5 0.28125 -0.519531 0.3125 -0.5625 C 0.375 -0.625 0.421875 -0.695312 0.453125 -0.78125 C 0.460938 -0.800781 0.46875 -0.816406 0.46875 -0.828125 C 0.476562 -0.847656 0.484375 -0.863281 0.484375 -0.875 C 0.492188 -0.882812 0.5 -0.894531 0.5 -0.90625 C 0.507812 -0.914062 0.515625 -0.925781 0.515625 -0.9375 C 0.523438 -0.945312 0.53125 -0.957031 0.53125 -0.96875 C 0.539062 -0.976562 0.546875 -0.984375 0.546875 -0.984375 L 0.734375 -1.421875 L 1.90625 -4.203125 C 1.925781 -4.253906 1.9375 -4.289062 1.9375 -4.3125 L 1.921875 -4.34375 C 1.867188 -4.375 1.785156 -4.398438 1.671875 -4.421875 C 1.554688 -4.441406 1.476562 -4.46875 1.4375 -4.5 C 1.363281 -4.5625 1.328125 -4.660156 1.328125 -4.796875 C 1.328125 -4.929688 1.375 -5.023438 1.46875 -5.078125 C 1.53125 -5.117188 1.617188 -5.140625 1.734375 -5.140625 C 1.828125 -5.140625 1.910156 -5.132812 1.984375 -5.125 C 2.066406 -5.125 2.140625 -5.117188 2.203125 -5.109375 C 2.273438 -5.109375 2.34375 -5.097656 2.40625 -5.078125 C 2.582031 -5.023438 2.742188 -4.929688 2.890625 -4.796875 C 3.015625 -4.660156 3.132812 -4.457031 3.25 -4.1875 L 4.546875 -0.984375 C 4.617188 -0.796875 4.6875 -0.660156 4.75 -0.578125 C 4.769531 -0.554688 4.789062 -0.535156 4.8125 -0.515625 C 4.84375 -0.503906 4.878906 -0.5 4.921875 -0.5 L 4.96875 -0.5 C 5.070312 -0.5 5.148438 -0.472656 5.203125 -0.421875 C 5.210938 -0.421875 5.222656 -0.414062 5.234375 -0.40625 C 5.242188 -0.394531 5.25 -0.382812 5.25 -0.375 C 5.257812 -0.363281 5.265625 -0.351562 5.265625 -0.34375 C 5.273438 -0.332031 5.28125 -0.320312 5.28125 -0.3125 C 5.28125 -0.3125 5.28125 -0.300781 5.28125 -0.28125 C 5.289062 -0.269531 5.296875 -0.257812 5.296875 -0.25 C 5.296875 -0.25 5.296875 -0.242188 5.296875 -0.234375 C 5.296875 -0.222656 5.296875 -0.210938 5.296875 -0.203125 C 5.304688 -0.203125 5.3125 -0.195312 5.3125 -0.1875 C 5.3125 -0.175781 5.3125 -0.164062 5.3125 -0.15625 L 5.3125 -0.140625 C 5.3125 -0.0546875 5.285156 0.015625 5.234375 0.078125 C 5.210938 0.109375 5.1875 0.132812 5.15625 0.15625 C 5.132812 0.175781 5.109375 0.191406 5.078125 0.203125 C 5.046875 0.210938 5.015625 0.21875 4.984375 0.21875 L 4.96875 0.21875 C 4.632812 0.195312 4.351562 0.1875 4.125 0.1875 C 3.820312 0.1875 3.503906 0.195312 3.171875 0.21875 L 3.15625 0.21875 C 3.125 0.21875 3.09375 0.210938 3.0625 0.203125 C 3.03125 0.191406 3 0.175781 2.96875 0.15625 C 2.9375 0.132812 2.910156 0.109375 2.890625 0.078125 C 2.867188 0.046875 2.851562 0.015625 2.84375 -0.015625 C 2.832031 -0.0546875 2.828125 -0.0976562 2.828125 -0.140625 L 2.828125 -0.15625 C 2.835938 -0.28125 2.875 -0.367188 2.9375 -0.421875 C 2.988281 -0.472656 3.066406 -0.5 3.171875 -0.5 C 3.304688 -0.5 3.398438 -0.507812 3.453125 -0.53125 C 3.453125 -0.539062 3.453125 -0.546875 3.453125 -0.546875 C 3.453125 -0.546875 3.445312 -0.554688 3.4375 -0.578125 C 3.4375 -0.609375 3.429688 -0.644531 3.421875 -0.6875 C 3.410156 -0.738281 3.394531 -0.789062 3.375 -0.84375 L 3.15625 -1.359375 L 1.5 -1.359375 C 1.445312 -1.234375 1.410156 -1.132812 1.390625 -1.0625 C 1.359375 -1 1.335938 -0.957031 1.328125 -0.9375 C 1.328125 -0.925781 1.320312 -0.910156 1.3125 -0.890625 C 1.3125 -0.878906 1.3125 -0.867188 1.3125 -0.859375 C 1.3125 -0.859375 1.3125 -0.851562 1.3125 -0.84375 C 1.289062 -0.769531 1.269531 -0.703125 1.25 -0.640625 C 1.238281 -0.585938 1.234375 -0.550781 1.234375 -0.53125 C 1.296875 -0.507812 1.414062 -0.5 1.59375 -0.5 L 1.640625 -0.5 C 1.734375 -0.5 1.8125 -0.472656 1.875 -0.421875 C 1.9375 -0.367188 1.972656 -0.28125 1.984375 -0.15625 L 1.984375 -0.140625 C 1.984375 -0.0546875 1.957031 0.015625 1.90625 0.078125 C 1.875 0.117188 1.832031 0.148438 1.78125 0.171875 C 1.738281 0.203125 1.691406 0.21875 1.640625 0.21875 C 1.472656 0.207031 1.316406 0.195312 1.171875 0.1875 C 1.035156 0.1875 0.910156 0.1875 0.796875 0.1875 C 0.640625 0.1875 0.390625 0.195312 0.046875 0.21875 C -0.0664062 0.21875 -0.15625 0.171875 -0.21875 0.078125 Z M 1.8125 -2.078125 L 2.859375 -2.078125 L 2.359375 -3.390625 Z M 1.8125 -2.078125 "/></g></g></g><g fill="#ffffff" fill-opacity="1"><g transform="translate(46.821984, 34.07284)"><g><path d="M 0.203125 0.078125 C 0.179688 0.046875 0.164062 0.015625 0.15625 -0.015625 C 0.144531 -0.0546875 0.140625 -0.0976562 0.140625 -0.140625 L 0.140625 -0.15625 C 0.140625 -0.15625 0.140625 -0.160156 0.140625 -0.171875 C 0.148438 -0.304688 0.195312 -0.398438 0.28125 -0.453125 C 0.332031 -0.484375 0.414062 -0.5 0.53125 -0.5 C 0.632812 -0.5 0.707031 -0.515625 0.75 -0.546875 C 0.78125 -0.566406 0.800781 -0.597656 0.8125 -0.640625 C 0.820312 -0.703125 0.832031 -0.789062 0.84375 -0.90625 L 0.84375 -3.984375 C 0.832031 -4.097656 0.820312 -4.1875 0.8125 -4.25 C 0.800781 -4.289062 0.78125 -4.320312 0.75 -4.34375 C 0.726562 -4.351562 0.695312 -4.363281 0.65625 -4.375 C 0.625 -4.382812 0.582031 -4.390625 0.53125 -4.390625 L 0.484375 -4.390625 C 0.460938 -4.390625 0.441406 -4.390625 0.421875 -4.390625 C 0.410156 -4.398438 0.390625 -4.40625 0.359375 -4.40625 C 0.335938 -4.40625 0.316406 -4.410156 0.296875 -4.421875 C 0.273438 -4.429688 0.257812 -4.445312 0.25 -4.46875 C 0.238281 -4.476562 0.226562 -4.488281 0.21875 -4.5 C 0.207031 -4.507812 0.195312 -4.515625 0.1875 -4.515625 C 0.1875 -4.523438 0.179688 -4.535156 0.171875 -4.546875 C 0.171875 -4.554688 0.164062 -4.566406 0.15625 -4.578125 C 0.15625 -4.585938 0.15625 -4.597656 0.15625 -4.609375 C 0.15625 -4.617188 0.148438 -4.625 0.140625 -4.625 C 0.140625 -4.632812 0.140625 -4.644531 0.140625 -4.65625 C 0.140625 -4.675781 0.140625 -4.6875 0.140625 -4.6875 C 0.140625 -4.695312 0.140625 -4.707031 0.140625 -4.71875 C 0.140625 -4.726562 0.140625 -4.734375 0.140625 -4.734375 L 0.140625 -4.75 C 0.140625 -4.84375 0.160156 -4.921875 0.203125 -4.984375 C 0.222656 -5.015625 0.25 -5.039062 0.28125 -5.0625 C 0.3125 -5.082031 0.34375 -5.097656 0.375 -5.109375 C 0.40625 -5.117188 0.4375 -5.125 0.46875 -5.125 L 0.484375 -5.125 C 0.648438 -5.113281 0.804688 -5.101562 0.953125 -5.09375 C 1.109375 -5.09375 1.253906 -5.09375 1.390625 -5.09375 L 2.734375 -5.09375 C 3.160156 -5.09375 3.519531 -5.023438 3.8125 -4.890625 C 3.863281 -4.859375 3.914062 -4.828125 3.96875 -4.796875 C 4.019531 -4.773438 4.070312 -4.742188 4.125 -4.703125 C 4.175781 -4.671875 4.222656 -4.632812 4.265625 -4.59375 C 4.304688 -4.5625 4.34375 -4.523438 4.375 -4.484375 C 4.414062 -4.441406 4.453125 -4.394531 4.484375 -4.34375 C 4.628906 -4.125 4.703125 -3.890625 4.703125 -3.640625 C 4.703125 -3.472656 4.664062 -3.3125 4.59375 -3.15625 C 4.53125 -3 4.4375 -2.851562 4.3125 -2.71875 C 4.257812 -2.664062 4.203125 -2.613281 4.140625 -2.5625 C 4.078125 -2.519531 4.015625 -2.476562 3.953125 -2.4375 C 3.890625 -2.394531 3.820312 -2.351562 3.75 -2.3125 C 3.6875 -2.28125 3.617188 -2.253906 3.546875 -2.234375 C 3.765625 -1.878906 3.957031 -1.578125 4.125 -1.328125 C 4.289062 -1.097656 4.472656 -0.875 4.671875 -0.65625 C 4.734375 -0.613281 4.789062 -0.578125 4.84375 -0.546875 C 4.90625 -0.523438 4.96875 -0.507812 5.03125 -0.5 C 5.039062 -0.5 5.0625 -0.5 5.09375 -0.5 C 5.175781 -0.488281 5.25 -0.453125 5.3125 -0.390625 C 5.34375 -0.359375 5.363281 -0.320312 5.375 -0.28125 C 5.382812 -0.238281 5.390625 -0.191406 5.390625 -0.140625 C 5.390625 -0.0546875 5.367188 0.015625 5.328125 0.078125 C 5.316406 0.0859375 5.304688 0.0976562 5.296875 0.109375 C 5.285156 0.117188 5.273438 0.128906 5.265625 0.140625 C 5.253906 0.148438 5.238281 0.160156 5.21875 0.171875 C 5.207031 0.179688 5.195312 0.1875 5.1875 0.1875 C 5.175781 0.195312 5.160156 0.203125 5.140625 0.203125 C 5.128906 0.203125 5.113281 0.203125 5.09375 0.203125 C 5.082031 0.210938 5.070312 0.21875 5.0625 0.21875 L 4.859375 0.203125 C 4.628906 0.191406 4.460938 0.1875 4.359375 0.1875 L 4.328125 0.1875 C 4.085938 0.132812 3.882812 0.0507812 3.71875 -0.0625 C 3.664062 -0.101562 3.609375 -0.148438 3.546875 -0.203125 C 3.492188 -0.253906 3.441406 -0.304688 3.390625 -0.359375 C 3.335938 -0.421875 3.285156 -0.488281 3.234375 -0.5625 C 3.078125 -0.757812 2.863281 -1.082031 2.59375 -1.53125 L 2.46875 -1.765625 C 2.445312 -1.785156 2.429688 -1.800781 2.421875 -1.8125 C 2.410156 -1.832031 2.398438 -1.847656 2.390625 -1.859375 C 2.378906 -1.878906 2.367188 -1.894531 2.359375 -1.90625 C 2.347656 -1.914062 2.335938 -1.921875 2.328125 -1.921875 C 2.316406 -1.929688 2.304688 -1.9375 2.296875 -1.9375 C 2.253906 -1.96875 2.164062 -1.984375 2.03125 -1.984375 L 2 -1.984375 L 2 -0.90625 C 2 -0.84375 2 -0.789062 2 -0.75 C 2.007812 -0.707031 2.019531 -0.671875 2.03125 -0.640625 C 2.03125 -0.617188 2.035156 -0.597656 2.046875 -0.578125 C 2.054688 -0.566406 2.070312 -0.554688 2.09375 -0.546875 C 2.125 -0.515625 2.195312 -0.5 2.3125 -0.5 L 2.359375 -0.5 C 2.398438 -0.5 2.4375 -0.492188 2.46875 -0.484375 C 2.507812 -0.472656 2.546875 -0.457031 2.578125 -0.4375 C 2.640625 -0.382812 2.675781 -0.289062 2.6875 -0.15625 L 2.6875 -0.140625 C 2.6875 -0.0546875 2.664062 0.015625 2.625 0.078125 C 2.601562 0.109375 2.578125 0.132812 2.546875 0.15625 C 2.523438 0.175781 2.492188 0.191406 2.453125 0.203125 C 2.421875 0.210938 2.390625 0.21875 2.359375 0.21875 C 2.023438 0.195312 1.703125 0.1875 1.390625 0.1875 C 1.117188 0.1875 0.816406 0.195312 0.484375 0.21875 L 0.46875 0.21875 C 0.351562 0.21875 0.265625 0.171875 0.203125 0.078125 Z M 2.484375 -2.671875 C 2.828125 -2.671875 3.070312 -2.738281 3.21875 -2.875 C 3.375 -3.019531 3.453125 -3.25 3.453125 -3.5625 C 3.453125 -3.800781 3.367188 -4.003906 3.203125 -4.171875 C 3.035156 -4.335938 2.75 -4.421875 2.34375 -4.421875 C 2.226562 -4.421875 2.144531 -4.40625 2.09375 -4.375 C 2.0625 -4.363281 2.039062 -4.34375 2.03125 -4.3125 C 2.019531 -4.28125 2.007812 -4.234375 2 -4.171875 C 2 -4.109375 2 -4.039062 2 -3.96875 L 2 -2.671875 Z M 2.484375 -2.671875 "/></g></g></g><g fill="#ffffff" fill-opacity="1"><g transform="translate(52.037159, 34.07284)"><g><path d="M -0.21875 0.078125 C -0.257812 0.015625 -0.28125 -0.0546875 -0.28125 -0.140625 L -0.28125 -0.15625 C -0.28125 -0.15625 -0.28125 -0.160156 -0.28125 -0.171875 C -0.269531 -0.304688 -0.222656 -0.398438 -0.140625 -0.453125 C -0.0859375 -0.484375 -0.0234375 -0.5 0.046875 -0.5 L 0.109375 -0.5 C 0.210938 -0.5 0.28125 -0.519531 0.3125 -0.5625 C 0.375 -0.625 0.421875 -0.695312 0.453125 -0.78125 C 0.460938 -0.800781 0.46875 -0.816406 0.46875 -0.828125 C 0.476562 -0.847656 0.484375 -0.863281 0.484375 -0.875 C 0.492188 -0.882812 0.5 -0.894531 0.5 -0.90625 C 0.507812 -0.914062 0.515625 -0.925781 0.515625 -0.9375 C 0.523438 -0.945312 0.53125 -0.957031 0.53125 -0.96875 C 0.539062 -0.976562 0.546875 -0.984375 0.546875 -0.984375 L 0.734375 -1.421875 L 1.90625 -4.203125 C 1.925781 -4.253906 1.9375 -4.289062 1.9375 -4.3125 L 1.921875 -4.34375 C 1.867188 -4.375 1.785156 -4.398438 1.671875 -4.421875 C 1.554688 -4.441406 1.476562 -4.46875 1.4375 -4.5 C 1.363281 -4.5625 1.328125 -4.660156 1.328125 -4.796875 C 1.328125 -4.929688 1.375 -5.023438 1.46875 -5.078125 C 1.53125 -5.117188 1.617188 -5.140625 1.734375 -5.140625 C 1.828125 -5.140625 1.910156 -5.132812 1.984375 -5.125 C 2.066406 -5.125 2.140625 -5.117188 2.203125 -5.109375 C 2.273438 -5.109375 2.34375 -5.097656 2.40625 -5.078125 C 2.582031 -5.023438 2.742188 -4.929688 2.890625 -4.796875 C 3.015625 -4.660156 3.132812 -4.457031 3.25 -4.1875 L 4.546875 -0.984375 C 4.617188 -0.796875 4.6875 -0.660156 4.75 -0.578125 C 4.769531 -0.554688 4.789062 -0.535156 4.8125 -0.515625 C 4.84375 -0.503906 4.878906 -0.5 4.921875 -0.5 L 4.96875 -0.5 C 5.070312 -0.5 5.148438 -0.472656 5.203125 -0.421875 C 5.210938 -0.421875 5.222656 -0.414062 5.234375 -0.40625 C 5.242188 -0.394531 5.25 -0.382812 5.25 -0.375 C 5.257812 -0.363281 5.265625 -0.351562 5.265625 -0.34375 C 5.273438 -0.332031 5.28125 -0.320312 5.28125 -0.3125 C 5.28125 -0.3125 5.28125 -0.300781 5.28125 -0.28125 C 5.289062 -0.269531 5.296875 -0.257812 5.296875 -0.25 C 5.296875 -0.25 5.296875 -0.242188 5.296875 -0.234375 C 5.296875 -0.222656 5.296875 -0.210938 5.296875 -0.203125 C 5.304688 -0.203125 5.3125 -0.195312 5.3125 -0.1875 C 5.3125 -0.175781 5.3125 -0.164062 5.3125 -0.15625 L 5.3125 -0.140625 C 5.3125 -0.0546875 5.285156 0.015625 5.234375 0.078125 C 5.210938 0.109375 5.1875 0.132812 5.15625 0.15625 C 5.132812 0.175781 5.109375 0.191406 5.078125 0.203125 C 5.046875 0.210938 5.015625 0.21875 4.984375 0.21875 L 4.96875 0.21875 C 4.632812 0.195312 4.351562 0.1875 4.125 0.1875 C 3.820312 0.1875 3.503906 0.195312 3.171875 0.21875 L 3.15625 0.21875 C 3.125 0.21875 3.09375 0.210938 3.0625 0.203125 C 3.03125 0.191406 3 0.175781 2.96875 0.15625 C 2.9375 0.132812 2.910156 0.109375 2.890625 0.078125 C 2.867188 0.046875 2.851562 0.015625 2.84375 -0.015625 C 2.832031 -0.0546875 2.828125 -0.0976562 2.828125 -0.140625 L 2.828125 -0.15625 C 2.835938 -0.28125 2.875 -0.367188 2.9375 -0.421875 C 2.988281 -0.472656 3.066406 -0.5 3.171875 -0.5 C 3.304688 -0.5 3.398438 -0.507812 3.453125 -0.53125 C 3.453125 -0.539062 3.453125 -0.546875 3.453125 -0.546875 C 3.453125 -0.546875 3.445312 -0.554688 3.4375 -0.578125 C 3.4375 -0.609375 3.429688 -0.644531 3.421875 -0.6875 C 3.410156 -0.738281 3.394531 -0.789062 3.375 -0.84375 L 3.15625 -1.359375 L 1.5 -1.359375 C 1.445312 -1.234375 1.410156 -1.132812 1.390625 -1.0625 C 1.359375 -1 1.335938 -0.957031 1.328125 -0.9375 C 1.328125 -0.925781 1.320312 -0.910156 1.3125 -0.890625 C 1.3125 -0.878906 1.3125 -0.867188 1.3125 -0.859375 C 1.3125 -0.859375 1.3125 -0.851562 1.3125 -0.84375 C 1.289062 -0.769531 1.269531 -0.703125 1.25 -0.640625 C 1.238281 -0.585938 1.234375 -0.550781 1.234375 -0.53125 C 1.296875 -0.507812 1.414062 -0.5 1.59375 -0.5 L 1.640625 -0.5 C 1.734375 -0.5 1.8125 -0.472656 1.875 -0.421875 C 1.9375 -0.367188 1.972656 -0.28125 1.984375 -0.15625 L 1.984375 -0.140625 C 1.984375 -0.0546875 1.957031 0.015625 1.90625 0.078125 C 1.875 0.117188 1.832031 0.148438 1.78125 0.171875 C 1.738281 0.203125 1.691406 0.21875 1.640625 0.21875 C 1.472656 0.207031 1.316406 0.195312 1.171875 0.1875 C 1.035156 0.1875 0.910156 0.1875 0.796875 0.1875 C 0.640625 0.1875 0.390625 0.195312 0.046875 0.21875 C -0.0664062 0.21875 -0.15625 0.171875 -0.21875 0.078125 Z M 1.8125 -2.078125 L 2.859375 -2.078125 L 2.359375 -3.390625 Z M 2.421875 -5.28125 C 2.390625 -5.300781 2.351562 -5.320312 2.3125 -5.34375 C 2.28125 -5.363281 2.25 -5.382812 2.21875 -5.40625 C 2.1875 -5.4375 2.148438 -5.46875 2.109375 -5.5 C 2.035156 -5.550781 1.976562 -5.59375 1.9375 -5.625 C 1.925781 -5.625 1.914062 -5.625 1.90625 -5.625 C 1.90625 -5.632812 1.898438 -5.640625 1.890625 -5.640625 C 1.878906 -5.640625 1.875 -5.640625 1.875 -5.640625 C 1.851562 -5.640625 1.828125 -5.632812 1.796875 -5.625 C 1.773438 -5.625 1.75 -5.613281 1.71875 -5.59375 C 1.632812 -5.539062 1.554688 -5.472656 1.484375 -5.390625 L 1.46875 -5.375 C 1.394531 -5.289062 1.304688 -5.25 1.203125 -5.25 C 1.085938 -5.25 0.992188 -5.296875 0.921875 -5.390625 C 0.898438 -5.421875 0.882812 -5.453125 0.875 -5.484375 C 0.863281 -5.523438 0.859375 -5.566406 0.859375 -5.609375 C 0.859375 -5.648438 0.867188 -5.6875 0.890625 -5.71875 C 0.929688 -5.832031 0.984375 -5.9375 1.046875 -6.03125 C 1.117188 -6.132812 1.203125 -6.222656 1.296875 -6.296875 C 1.484375 -6.460938 1.707031 -6.546875 1.96875 -6.546875 C 2.113281 -6.546875 2.238281 -6.515625 2.34375 -6.453125 C 2.375 -6.453125 2.398438 -6.441406 2.421875 -6.421875 C 2.441406 -6.410156 2.46875 -6.394531 2.5 -6.375 C 2.53125 -6.351562 2.554688 -6.332031 2.578125 -6.3125 C 2.609375 -6.289062 2.640625 -6.269531 2.671875 -6.25 C 2.691406 -6.226562 2.710938 -6.207031 2.734375 -6.1875 C 2.753906 -6.175781 2.769531 -6.164062 2.78125 -6.15625 C 2.800781 -6.144531 2.816406 -6.132812 2.828125 -6.125 C 2.835938 -6.113281 2.847656 -6.109375 2.859375 -6.109375 C 2.867188 -6.109375 2.878906 -6.109375 2.890625 -6.109375 C 2.910156 -6.109375 2.929688 -6.109375 2.953125 -6.109375 C 2.984375 -6.117188 3.019531 -6.132812 3.0625 -6.15625 C 3.132812 -6.207031 3.210938 -6.273438 3.296875 -6.359375 L 3.296875 -6.375 C 3.378906 -6.445312 3.46875 -6.484375 3.5625 -6.484375 C 3.601562 -6.484375 3.644531 -6.476562 3.6875 -6.46875 C 3.726562 -6.457031 3.765625 -6.4375 3.796875 -6.40625 C 3.835938 -6.375 3.863281 -6.335938 3.875 -6.296875 C 3.894531 -6.253906 3.90625 -6.207031 3.90625 -6.15625 C 3.90625 -6.101562 3.890625 -6.039062 3.859375 -5.96875 C 3.765625 -5.757812 3.632812 -5.582031 3.46875 -5.4375 C 3.40625 -5.382812 3.335938 -5.335938 3.265625 -5.296875 C 3.191406 -5.265625 3.117188 -5.238281 3.046875 -5.21875 C 2.972656 -5.195312 2.894531 -5.1875 2.8125 -5.1875 L 2.796875 -5.1875 C 2.660156 -5.195312 2.535156 -5.226562 2.421875 -5.28125 Z M 2.421875 -5.28125 "/></g></g></g><g fill="#ffffff" fill-opacity="1"><g transform="translate(57.112431, 34.07284)"><g><path d="M 0.203125 0.078125 C 0.179688 0.046875 0.164062 0.015625 0.15625 -0.015625 C 0.144531 -0.0546875 0.140625 -0.0976562 0.140625 -0.140625 L 0.140625 -0.15625 C 0.140625 -0.15625 0.140625 -0.160156 0.140625 -0.171875 C 0.148438 -0.304688 0.195312 -0.398438 0.28125 -0.453125 C 0.332031 -0.484375 0.414062 -0.5 0.53125 -0.5 C 0.632812 -0.5 0.707031 -0.515625 0.75 -0.546875 C 0.78125 -0.566406 0.800781 -0.597656 0.8125 -0.640625 C 0.820312 -0.703125 0.832031 -0.789062 0.84375 -0.90625 L 0.84375 -3.984375 C 0.832031 -4.097656 0.820312 -4.191406 0.8125 -4.265625 C 0.8125 -4.273438 0.804688 -4.285156 0.796875 -4.296875 C 0.796875 -4.304688 0.789062 -4.316406 0.78125 -4.328125 C 0.769531 -4.335938 0.757812 -4.34375 0.75 -4.34375 C 0.707031 -4.375 0.632812 -4.390625 0.53125 -4.390625 L 0.484375 -4.390625 C 0.460938 -4.390625 0.441406 -4.390625 0.421875 -4.390625 C 0.410156 -4.398438 0.390625 -4.40625 0.359375 -4.40625 C 0.335938 -4.40625 0.316406 -4.410156 0.296875 -4.421875 C 0.273438 -4.429688 0.257812 -4.445312 0.25 -4.46875 C 0.238281 -4.476562 0.226562 -4.488281 0.21875 -4.5 C 0.207031 -4.507812 0.195312 -4.515625 0.1875 -4.515625 C 0.1875 -4.523438 0.179688 -4.535156 0.171875 -4.546875 C 0.171875 -4.554688 0.164062 -4.566406 0.15625 -4.578125 C 0.15625 -4.585938 0.15625 -4.597656 0.15625 -4.609375 C 0.15625 -4.617188 0.148438 -4.625 0.140625 -4.625 C 0.140625 -4.632812 0.140625 -4.644531 0.140625 -4.65625 C 0.140625 -4.675781 0.140625 -4.6875 0.140625 -4.6875 C 0.140625 -4.695312 0.140625 -4.707031 0.140625 -4.71875 C 0.140625 -4.726562 0.140625 -4.734375 0.140625 -4.734375 L 0.140625 -4.75 C 0.140625 -4.84375 0.160156 -4.921875 0.203125 -4.984375 C 0.234375 -5.023438 0.269531 -5.054688 0.3125 -5.078125 C 0.363281 -5.109375 0.414062 -5.125 0.46875 -5.125 C 0.8125 -5.101562 1.117188 -5.09375 1.390625 -5.09375 L 3.828125 -5.09375 C 3.878906 -5.09375 3.929688 -5.082031 3.984375 -5.0625 C 4.035156 -5.050781 4.082031 -5.023438 4.125 -4.984375 C 4.1875 -4.921875 4.21875 -4.832031 4.21875 -4.71875 L 4.25 -3.625 C 4.25 -3.507812 4.191406 -3.414062 4.078125 -3.34375 C 4.003906 -3.300781 3.925781 -3.28125 3.84375 -3.28125 C 3.832031 -3.28125 3.816406 -3.28125 3.796875 -3.28125 C 3.785156 -3.28125 3.769531 -3.28125 3.75 -3.28125 C 3.738281 -3.28125 3.726562 -3.28125 3.71875 -3.28125 C 3.707031 -3.289062 3.691406 -3.296875 3.671875 -3.296875 C 3.660156 -3.304688 3.644531 -3.3125 3.625 -3.3125 C 3.613281 -3.320312 3.601562 -3.328125 3.59375 -3.328125 C 3.488281 -3.378906 3.425781 -3.460938 3.40625 -3.578125 C 3.375 -3.816406 3.332031 -4 3.28125 -4.125 C 3.25 -4.21875 3.203125 -4.285156 3.140625 -4.328125 C 3.078125 -4.367188 2.976562 -4.390625 2.84375 -4.390625 L 2 -4.390625 L 2 -2.8125 L 3.234375 -2.8125 C 3.328125 -2.789062 3.398438 -2.738281 3.453125 -2.65625 C 3.492188 -2.59375 3.515625 -2.519531 3.515625 -2.4375 C 3.515625 -2.414062 3.515625 -2.394531 3.515625 -2.375 C 3.515625 -2.363281 3.507812 -2.347656 3.5 -2.328125 C 3.5 -2.304688 3.492188 -2.285156 3.484375 -2.265625 C 3.472656 -2.253906 3.460938 -2.238281 3.453125 -2.21875 C 3.429688 -2.175781 3.394531 -2.144531 3.34375 -2.125 C 3.300781 -2.101562 3.253906 -2.09375 3.203125 -2.09375 L 2 -2.09375 L 2 -0.828125 C 2.007812 -0.734375 2.019531 -0.65625 2.03125 -0.59375 C 2.03125 -0.582031 2.050781 -0.566406 2.09375 -0.546875 C 2.132812 -0.515625 2.21875 -0.5 2.34375 -0.5 L 3.0625 -0.5 C 3.132812 -0.507812 3.195312 -0.519531 3.25 -0.53125 C 3.300781 -0.539062 3.34375 -0.550781 3.375 -0.5625 C 3.4375 -0.601562 3.484375 -0.660156 3.515625 -0.734375 C 3.535156 -0.785156 3.5625 -0.851562 3.59375 -0.9375 C 3.632812 -1.03125 3.671875 -1.140625 3.703125 -1.265625 L 3.703125 -1.28125 L 3.71875 -1.28125 C 3.75 -1.375 3.804688 -1.4375 3.890625 -1.46875 C 3.984375 -1.507812 4.082031 -1.523438 4.1875 -1.515625 C 4.226562 -1.503906 4.265625 -1.488281 4.296875 -1.46875 C 4.335938 -1.445312 4.375 -1.425781 4.40625 -1.40625 C 4.445312 -1.375 4.476562 -1.332031 4.5 -1.28125 C 4.53125 -1.226562 4.539062 -1.175781 4.53125 -1.125 L 4.53125 -1.109375 L 4.375 -0.125 L 4.375 -0.109375 C 4.363281 -0.0546875 4.347656 -0.015625 4.328125 0.015625 C 4.304688 0.0546875 4.269531 0.09375 4.21875 0.125 C 4.15625 0.164062 4.066406 0.1875 3.953125 0.1875 L 1.390625 0.1875 C 1.253906 0.1875 1.109375 0.1875 0.953125 0.1875 C 0.804688 0.195312 0.644531 0.207031 0.46875 0.21875 C 0.351562 0.21875 0.265625 0.171875 0.203125 0.078125 Z M 0.203125 0.078125 "/></g></g></g><g fill="#ffffff" fill-opacity="1"><g transform="translate(61.72914, 34.07284)"><g><path d="M 0.703125 0.03125 C 0.359375 -0.195312 0.1875 -0.53125 0.1875 -0.96875 C 0.1875 -1.207031 0.269531 -1.40625 0.4375 -1.5625 C 0.601562 -1.71875 0.816406 -1.796875 1.078125 -1.796875 C 1.128906 -1.796875 1.175781 -1.789062 1.21875 -1.78125 C 1.257812 -1.769531 1.300781 -1.753906 1.34375 -1.734375 C 1.382812 -1.710938 1.421875 -1.6875 1.453125 -1.65625 C 1.503906 -1.613281 1.546875 -1.566406 1.578125 -1.515625 C 1.609375 -1.472656 1.625 -1.421875 1.625 -1.359375 C 1.625 -1.328125 1.617188 -1.300781 1.609375 -1.28125 C 1.609375 -1.257812 1.601562 -1.238281 1.59375 -1.21875 C 1.582031 -1.207031 1.566406 -1.195312 1.546875 -1.1875 C 1.535156 -1.175781 1.523438 -1.164062 1.515625 -1.15625 C 1.503906 -1.15625 1.492188 -1.15625 1.484375 -1.15625 C 1.472656 -1.15625 1.460938 -1.15625 1.453125 -1.15625 C 1.421875 -1.132812 1.394531 -1.101562 1.375 -1.0625 C 1.351562 -1.03125 1.34375 -0.984375 1.34375 -0.921875 C 1.34375 -0.734375 1.394531 -0.59375 1.5 -0.5 C 1.613281 -0.394531 1.800781 -0.34375 2.0625 -0.34375 C 2.238281 -0.34375 2.394531 -0.378906 2.53125 -0.453125 C 2.65625 -0.515625 2.75 -0.601562 2.8125 -0.71875 C 2.882812 -0.820312 2.921875 -0.929688 2.921875 -1.046875 C 2.921875 -1.179688 2.878906 -1.300781 2.796875 -1.40625 C 2.703125 -1.519531 2.59375 -1.613281 2.46875 -1.6875 C 2.394531 -1.726562 2.304688 -1.773438 2.203125 -1.828125 C 2.097656 -1.878906 1.976562 -1.9375 1.84375 -2 C 1.519531 -2.144531 1.265625 -2.273438 1.078125 -2.390625 C 0.859375 -2.515625 0.675781 -2.679688 0.53125 -2.890625 C 0.363281 -3.117188 0.28125 -3.394531 0.28125 -3.71875 C 0.28125 -3.96875 0.328125 -4.191406 0.421875 -4.390625 C 0.515625 -4.585938 0.648438 -4.75 0.828125 -4.875 C 1.003906 -5 1.203125 -5.09375 1.421875 -5.15625 C 1.640625 -5.21875 1.882812 -5.25 2.15625 -5.25 C 2.582031 -5.25 2.957031 -5.160156 3.28125 -4.984375 C 3.644531 -4.773438 3.828125 -4.472656 3.828125 -4.078125 C 3.828125 -3.835938 3.742188 -3.632812 3.578125 -3.46875 C 3.515625 -3.414062 3.445312 -3.375 3.375 -3.34375 C 3.3125 -3.3125 3.242188 -3.285156 3.171875 -3.265625 C 3.097656 -3.242188 3.019531 -3.234375 2.9375 -3.234375 C 2.769531 -3.242188 2.640625 -3.289062 2.546875 -3.375 C 2.441406 -3.46875 2.390625 -3.566406 2.390625 -3.671875 C 2.390625 -3.753906 2.40625 -3.8125 2.4375 -3.84375 C 2.476562 -3.882812 2.515625 -3.90625 2.546875 -3.90625 L 2.59375 -3.90625 C 2.644531 -3.925781 2.6875 -3.953125 2.71875 -3.984375 C 2.738281 -4.015625 2.75 -4.0625 2.75 -4.125 C 2.75 -4.1875 2.738281 -4.238281 2.71875 -4.28125 C 2.695312 -4.332031 2.660156 -4.378906 2.609375 -4.421875 C 2.554688 -4.460938 2.492188 -4.492188 2.421875 -4.515625 C 2.347656 -4.535156 2.265625 -4.546875 2.171875 -4.546875 C 2.023438 -4.546875 1.90625 -4.53125 1.8125 -4.5 C 1.71875 -4.46875 1.640625 -4.425781 1.578125 -4.375 C 1.515625 -4.3125 1.46875 -4.25 1.4375 -4.1875 C 1.40625 -4.125 1.390625 -4.050781 1.390625 -3.96875 C 1.390625 -3.832031 1.425781 -3.722656 1.5 -3.640625 C 1.582031 -3.535156 1.722656 -3.429688 1.921875 -3.328125 C 1.972656 -3.296875 2.03125 -3.265625 2.09375 -3.234375 C 2.15625 -3.203125 2.21875 -3.171875 2.28125 -3.140625 C 2.34375 -3.109375 2.410156 -3.078125 2.484375 -3.046875 C 2.648438 -2.972656 2.800781 -2.898438 2.9375 -2.828125 C 3.070312 -2.753906 3.191406 -2.6875 3.296875 -2.625 C 3.515625 -2.488281 3.695312 -2.304688 3.84375 -2.078125 C 3.988281 -1.835938 4.0625 -1.550781 4.0625 -1.21875 C 4.0625 -0.914062 3.96875 -0.640625 3.78125 -0.390625 C 3.601562 -0.160156 3.359375 0.0195312 3.046875 0.15625 C 2.773438 0.269531 2.476562 0.332031 2.15625 0.34375 C 2.125 0.34375 2.09375 0.34375 2.0625 0.34375 C 1.476562 0.34375 1.023438 0.238281 0.703125 0.03125 Z M 0.703125 0.03125 "/></g></g></g><g fill="#ffffff" fill-opacity="1"><g transform="translate(20.369342, 40.75682)"><g><path d="M 1.515625 -1.703125 C 1.492188 -1.804688 1.4375 -1.890625 1.34375 -1.953125 C 1.25 -2.015625 1.132812 -2.046875 1 -2.046875 C 0.851562 -2.046875 0.734375 -2.007812 0.640625 -1.9375 C 0.546875 -1.875 0.5 -1.785156 0.5 -1.671875 C 0.5 -1.585938 0.523438 -1.519531 0.578125 -1.46875 C 0.628906 -1.425781 0.6875 -1.390625 0.75 -1.359375 C 0.820312 -1.335938 0.882812 -1.316406 0.9375 -1.296875 L 1.171875 -1.234375 C 1.234375 -1.222656 1.296875 -1.203125 1.359375 -1.171875 C 1.429688 -1.140625 1.5 -1.097656 1.5625 -1.046875 C 1.632812 -1.003906 1.691406 -0.945312 1.734375 -0.875 C 1.785156 -0.800781 1.8125 -0.710938 1.8125 -0.609375 C 1.8125 -0.492188 1.773438 -0.382812 1.703125 -0.28125 C 1.640625 -0.1875 1.546875 -0.109375 1.421875 -0.046875 C 1.304688 0.015625 1.160156 0.046875 0.984375 0.046875 C 0.742188 0.046875 0.550781 -0.0078125 0.40625 -0.125 C 0.269531 -0.25 0.191406 -0.398438 0.171875 -0.578125 L 0.453125 -0.578125 C 0.460938 -0.492188 0.492188 -0.421875 0.546875 -0.359375 C 0.597656 -0.304688 0.660156 -0.265625 0.734375 -0.234375 C 0.816406 -0.210938 0.898438 -0.203125 0.984375 -0.203125 C 1.085938 -0.203125 1.179688 -0.21875 1.265625 -0.25 C 1.347656 -0.289062 1.414062 -0.34375 1.46875 -0.40625 C 1.519531 -0.46875 1.546875 -0.539062 1.546875 -0.625 C 1.546875 -0.695312 1.523438 -0.753906 1.484375 -0.796875 C 1.441406 -0.847656 1.382812 -0.882812 1.3125 -0.90625 C 1.238281 -0.9375 1.164062 -0.96875 1.09375 -1 L 0.8125 -1.078125 C 0.632812 -1.128906 0.492188 -1.203125 0.390625 -1.296875 C 0.285156 -1.390625 0.234375 -1.507812 0.234375 -1.65625 C 0.234375 -1.78125 0.265625 -1.890625 0.328125 -1.984375 C 0.398438 -2.085938 0.492188 -2.164062 0.609375 -2.21875 C 0.734375 -2.269531 0.867188 -2.296875 1.015625 -2.296875 C 1.160156 -2.296875 1.285156 -2.269531 1.390625 -2.21875 C 1.503906 -2.164062 1.59375 -2.09375 1.65625 -2 C 1.726562 -1.90625 1.769531 -1.804688 1.78125 -1.703125 Z M 1.515625 -1.703125 "/></g></g></g><g fill="#ffffff" fill-opacity="1"><g transform="translate(22.683213, 40.75682)"><g><path d="M 2.1875 -1.125 C 2.1875 -0.882812 2.140625 -0.675781 2.046875 -0.5 C 1.960938 -0.332031 1.84375 -0.203125 1.6875 -0.109375 C 1.539062 -0.015625 1.375 0.03125 1.1875 0.03125 C 0.988281 0.03125 0.8125 -0.015625 0.65625 -0.109375 C 0.507812 -0.203125 0.394531 -0.332031 0.3125 -0.5 C 0.226562 -0.675781 0.1875 -0.882812 0.1875 -1.125 C 0.1875 -1.363281 0.226562 -1.570312 0.3125 -1.75 C 0.394531 -1.925781 0.507812 -2.0625 0.65625 -2.15625 C 0.8125 -2.25 0.988281 -2.296875 1.1875 -2.296875 C 1.375 -2.296875 1.539062 -2.25 1.6875 -2.15625 C 1.84375 -2.0625 1.960938 -1.925781 2.046875 -1.75 C 2.140625 -1.570312 2.1875 -1.363281 2.1875 -1.125 Z M 1.921875 -1.125 C 1.921875 -1.320312 1.882812 -1.488281 1.8125 -1.625 C 1.75 -1.757812 1.660156 -1.859375 1.546875 -1.921875 C 1.441406 -1.992188 1.320312 -2.03125 1.1875 -2.03125 C 1.050781 -2.03125 0.925781 -1.992188 0.8125 -1.921875 C 0.695312 -1.859375 0.609375 -1.757812 0.546875 -1.625 C 0.484375 -1.488281 0.453125 -1.320312 0.453125 -1.125 C 0.453125 -0.9375 0.484375 -0.773438 0.546875 -0.640625 C 0.609375 -0.503906 0.695312 -0.398438 0.8125 -0.328125 C 0.925781 -0.253906 1.050781 -0.21875 1.1875 -0.21875 C 1.320312 -0.21875 1.441406 -0.253906 1.546875 -0.328125 C 1.660156 -0.398438 1.75 -0.503906 1.8125 -0.640625 C 1.882812 -0.773438 1.921875 -0.9375 1.921875 -1.125 Z M 1.921875 -1.125 "/></g></g></g><g fill="#ffffff" fill-opacity="1"><g transform="translate(25.380467, 40.75682)"><g><path d="M 2.09375 -1.546875 L 1.8125 -1.546875 C 1.789062 -1.660156 1.75 -1.75 1.6875 -1.8125 C 1.625 -1.882812 1.546875 -1.9375 1.453125 -1.96875 C 1.367188 -2.007812 1.28125 -2.03125 1.1875 -2.03125 C 1.050781 -2.03125 0.925781 -1.992188 0.8125 -1.921875 C 0.695312 -1.859375 0.609375 -1.757812 0.546875 -1.625 C 0.484375 -1.488281 0.453125 -1.320312 0.453125 -1.125 C 0.453125 -0.9375 0.484375 -0.773438 0.546875 -0.640625 C 0.609375 -0.503906 0.695312 -0.398438 0.8125 -0.328125 C 0.925781 -0.253906 1.050781 -0.21875 1.1875 -0.21875 C 1.28125 -0.21875 1.367188 -0.234375 1.453125 -0.265625 C 1.546875 -0.304688 1.625 -0.363281 1.6875 -0.4375 C 1.75 -0.507812 1.789062 -0.597656 1.8125 -0.703125 L 2.09375 -0.703125 C 2.0625 -0.546875 2.003906 -0.410156 1.921875 -0.296875 C 1.835938 -0.191406 1.726562 -0.109375 1.59375 -0.046875 C 1.46875 0.00390625 1.332031 0.03125 1.1875 0.03125 C 0.988281 0.03125 0.8125 -0.015625 0.65625 -0.109375 C 0.507812 -0.203125 0.394531 -0.332031 0.3125 -0.5 C 0.226562 -0.675781 0.1875 -0.882812 0.1875 -1.125 C 0.1875 -1.363281 0.226562 -1.570312 0.3125 -1.75 C 0.394531 -1.925781 0.507812 -2.0625 0.65625 -2.15625 C 0.8125 -2.25 0.988281 -2.296875 1.1875 -2.296875 C 1.332031 -2.296875 1.46875 -2.265625 1.59375 -2.203125 C 1.726562 -2.140625 1.835938 -2.050781 1.921875 -1.9375 C 2.003906 -1.832031 2.0625 -1.703125 2.09375 -1.546875 Z M 2.09375 -1.546875 "/></g></g></g><g fill="#ffffff" fill-opacity="1"><g transform="translate(27.971961, 40.75682)"><g><path d="M 0.546875 -2.265625 L 0.546875 0 L 0.28125 0 L 0.28125 -2.265625 Z M 0.546875 -2.265625 "/></g></g></g><g fill="#ffffff" fill-opacity="1"><g transform="translate(29.126859, 40.75682)"><g><path d="M 0.28125 0 L 0.28125 -2.265625 L 1.640625 -2.265625 L 1.640625 -2.015625 L 0.546875 -2.015625 L 0.546875 -1.25 L 1.5625 -1.25 L 1.5625 -1.015625 L 0.546875 -1.015625 L 0.546875 -0.25 L 1.65625 -0.25 L 1.65625 0 Z M 0.28125 0 "/></g></g></g><g fill="#ffffff" fill-opacity="1"><g transform="translate(31.317339, 40.75682)"><g><path d="M 0.96875 0 L 0.28125 0 L 0.28125 -2.265625 L 1 -2.265625 C 1.21875 -2.265625 1.40625 -2.21875 1.5625 -2.125 C 1.71875 -2.03125 1.835938 -1.898438 1.921875 -1.734375 C 2.003906 -1.566406 2.046875 -1.367188 2.046875 -1.140625 C 2.046875 -0.898438 2.003906 -0.691406 1.921875 -0.515625 C 1.835938 -0.347656 1.710938 -0.21875 1.546875 -0.125 C 1.390625 -0.0390625 1.195312 0 0.96875 0 Z M 0.546875 -0.25 L 0.953125 -0.25 C 1.234375 -0.25 1.441406 -0.328125 1.578125 -0.484375 C 1.710938 -0.640625 1.78125 -0.859375 1.78125 -1.140625 C 1.78125 -1.410156 1.710938 -1.625 1.578125 -1.78125 C 1.441406 -1.9375 1.242188 -2.015625 0.984375 -2.015625 L 0.546875 -2.015625 Z M 0.546875 -0.25 "/></g></g></g><g fill="#ffffff" fill-opacity="1"><g transform="translate(33.88239, 40.75682)"><g><path d="M 0.359375 0 L 0.078125 0 L 0.90625 -2.265625 L 1.1875 -2.265625 L 2.015625 0 L 1.734375 0 L 1.515625 -0.640625 L 0.59375 -0.640625 Z M 0.6875 -0.890625 L 1.421875 -0.890625 L 1.0625 -1.90625 L 1.046875 -1.90625 Z M 0.6875 -0.890625 "/></g></g></g><g fill="#ffffff" fill-opacity="1"><g transform="translate(36.315243, 40.75682)"><g><path d="M 0.96875 0 L 0.28125 0 L 0.28125 -2.265625 L 1 -2.265625 C 1.21875 -2.265625 1.40625 -2.21875 1.5625 -2.125 C 1.71875 -2.03125 1.835938 -1.898438 1.921875 -1.734375 C 2.003906 -1.566406 2.046875 -1.367188 2.046875 -1.140625 C 2.046875 -0.898438 2.003906 -0.691406 1.921875 -0.515625 C 1.835938 -0.347656 1.710938 -0.21875 1.546875 -0.125 C 1.390625 -0.0390625 1.195312 0 0.96875 0 Z M 0.546875 -0.25 L 0.953125 -0.25 C 1.234375 -0.25 1.441406 -0.328125 1.578125 -0.484375 C 1.710938 -0.640625 1.78125 -0.859375 1.78125 -1.140625 C 1.78125 -1.410156 1.710938 -1.625 1.578125 -1.78125 C 1.441406 -1.9375 1.242188 -2.015625 0.984375 -2.015625 L 0.546875 -2.015625 Z M 0.546875 -0.25 "/></g></g></g><g fill="#ffffff" fill-opacity="1"><g transform="translate(38.880294, 40.75682)"><g><path d="M 0.28125 0 L 0.28125 -2.265625 L 1.640625 -2.265625 L 1.640625 -2.015625 L 0.546875 -2.015625 L 0.546875 -1.25 L 1.5625 -1.25 L 1.5625 -1.015625 L 0.546875 -1.015625 L 0.546875 -0.25 L 1.65625 -0.25 L 1.65625 0 Z M 0.28125 0 "/></g></g></g><g fill="#ffffff" fill-opacity="1"><g transform="translate(41.070774, 40.75682)"><g/></g></g><g fill="#ffffff" fill-opacity="1"><g transform="translate(42.278554, 40.75682)"><g><path d="M 0.96875 0 L 0.28125 0 L 0.28125 -2.265625 L 1 -2.265625 C 1.21875 -2.265625 1.40625 -2.21875 1.5625 -2.125 C 1.71875 -2.03125 1.835938 -1.898438 1.921875 -1.734375 C 2.003906 -1.566406 2.046875 -1.367188 2.046875 -1.140625 C 2.046875 -0.898438 2.003906 -0.691406 1.921875 -0.515625 C 1.835938 -0.347656 1.710938 -0.21875 1.546875 -0.125 C 1.390625 -0.0390625 1.195312 0 0.96875 0 Z M 0.546875 -0.25 L 0.953125 -0.25 C 1.234375 -0.25 1.441406 -0.328125 1.578125 -0.484375 C 1.710938 -0.640625 1.78125 -0.859375 1.78125 -1.140625 C 1.78125 -1.410156 1.710938 -1.625 1.578125 -1.78125 C 1.441406 -1.9375 1.242188 -2.015625 0.984375 -2.015625 L 0.546875 -2.015625 Z M 0.546875 -0.25 "/></g></g></g><g fill="#ffffff" fill-opacity="1"><g transform="translate(44.843606, 40.75682)"><g><path d="M 0.28125 0 L 0.28125 -2.265625 L 1.640625 -2.265625 L 1.640625 -2.015625 L 0.546875 -2.015625 L 0.546875 -1.25 L 1.5625 -1.25 L 1.5625 -1.015625 L 0.546875 -1.015625 L 0.546875 -0.25 L 1.65625 -0.25 L 1.65625 0 Z M 0.28125 0 "/></g></g></g><g fill="#ffffff" fill-opacity="1"><g transform="translate(47.034086, 40.75682)"><g/></g></g><g fill="#ffffff" fill-opacity="1"><g transform="translate(48.241866, 40.75682)"><g><path d="M 0.359375 0 L 0.078125 0 L 0.90625 -2.265625 L 1.1875 -2.265625 L 2.015625 0 L 1.734375 0 L 1.515625 -0.640625 L 0.59375 -0.640625 Z M 0.6875 -0.890625 L 1.421875 -0.890625 L 1.0625 -1.90625 L 1.046875 -1.90625 Z M 0.6875 -0.890625 "/></g></g></g><g fill="#ffffff" fill-opacity="1"><g transform="translate(50.67472, 40.75682)"><g><path d="M 0.96875 0 L 0.28125 0 L 0.28125 -2.265625 L 1 -2.265625 C 1.21875 -2.265625 1.40625 -2.21875 1.5625 -2.125 C 1.71875 -2.03125 1.835938 -1.898438 1.921875 -1.734375 C 2.003906 -1.566406 2.046875 -1.367188 2.046875 -1.140625 C 2.046875 -0.898438 2.003906 -0.691406 1.921875 -0.515625 C 1.835938 -0.347656 1.710938 -0.21875 1.546875 -0.125 C 1.390625 -0.0390625 1.195312 0 0.96875 0 Z M 0.546875 -0.25 L 0.953125 -0.25 C 1.234375 -0.25 1.441406 -0.328125 1.578125 -0.484375 C 1.710938 -0.640625 1.78125 -0.859375 1.78125 -1.140625 C 1.78125 -1.410156 1.710938 -1.625 1.578125 -1.78125 C 1.441406 -1.9375 1.242188 -2.015625 0.984375 -2.015625 L 0.546875 -2.015625 Z M 0.546875 -0.25 "/></g></g></g><g fill="#ffffff" fill-opacity="1"><g transform="translate(53.239772, 40.75682)"><g><path d="M 0.359375 -2.265625 L 1.03125 -0.359375 L 1.0625 -0.359375 L 1.734375 -2.265625 L 2.015625 -2.265625 L 1.1875 0 L 0.90625 0 L 0.078125 -2.265625 Z M 0.359375 -2.265625 "/></g></g></g><g fill="#ffffff" fill-opacity="1"><g transform="translate(55.672624, 40.75682)"><g><path d="M 2.1875 -1.125 C 2.1875 -0.882812 2.140625 -0.675781 2.046875 -0.5 C 1.960938 -0.332031 1.84375 -0.203125 1.6875 -0.109375 C 1.539062 -0.015625 1.375 0.03125 1.1875 0.03125 C 0.988281 0.03125 0.8125 -0.015625 0.65625 -0.109375 C 0.507812 -0.203125 0.394531 -0.332031 0.3125 -0.5 C 0.226562 -0.675781 0.1875 -0.882812 0.1875 -1.125 C 0.1875 -1.363281 0.226562 -1.570312 0.3125 -1.75 C 0.394531 -1.925781 0.507812 -2.0625 0.65625 -2.15625 C 0.8125 -2.25 0.988281 -2.296875 1.1875 -2.296875 C 1.375 -2.296875 1.539062 -2.25 1.6875 -2.15625 C 1.84375 -2.0625 1.960938 -1.925781 2.046875 -1.75 C 2.140625 -1.570312 2.1875 -1.363281 2.1875 -1.125 Z M 1.921875 -1.125 C 1.921875 -1.320312 1.882812 -1.488281 1.8125 -1.625 C 1.75 -1.757812 1.660156 -1.859375 1.546875 -1.921875 C 1.441406 -1.992188 1.320312 -2.03125 1.1875 -2.03125 C 1.050781 -2.03125 0.925781 -1.992188 0.8125 -1.921875 C 0.695312 -1.859375 0.609375 -1.757812 0.546875 -1.625 C 0.484375 -1.488281 0.453125 -1.320312 0.453125 -1.125 C 0.453125 -0.9375 0.484375 -0.773438 0.546875 -0.640625 C 0.609375 -0.503906 0.695312 -0.398438 0.8125 -0.328125 C 0.925781 -0.253906 1.050781 -0.21875 1.1875 -0.21875 C 1.320312 -0.21875 1.441406 -0.253906 1.546875 -0.328125 C 1.660156 -0.398438 1.75 -0.503906 1.8125 -0.640625 C 1.882812 -0.773438 1.921875 -0.9375 1.921875 -1.125 Z M 1.921875 -1.125 "/></g></g></g><g fill="#ffffff" fill-opacity="1"><g transform="translate(58.369878, 40.75682)"><g><path d="M 1.8125 -1.546875 C 1.769531 -1.703125 1.691406 -1.820312 1.578125 -1.90625 C 1.472656 -1.988281 1.335938 -2.03125 1.171875 -2.03125 C 1.035156 -2.03125 0.910156 -1.992188 0.796875 -1.921875 C 0.691406 -1.859375 0.609375 -1.757812 0.546875 -1.625 C 0.484375 -1.488281 0.453125 -1.320312 0.453125 -1.125 C 0.453125 -0.9375 0.484375 -0.773438 0.546875 -0.640625 C 0.609375 -0.503906 0.695312 -0.398438 0.8125 -0.328125 C 0.925781 -0.253906 1.050781 -0.21875 1.1875 -0.21875 C 1.320312 -0.21875 1.4375 -0.242188 1.53125 -0.296875 C 1.625 -0.359375 1.695312 -0.4375 1.75 -0.53125 C 1.8125 -0.632812 1.84375 -0.753906 1.84375 -0.890625 L 1.25 -0.890625 L 1.25 -1.125 L 2.109375 -1.125 L 2.109375 -0.890625 C 2.109375 -0.703125 2.066406 -0.539062 1.984375 -0.40625 C 1.910156 -0.269531 1.804688 -0.160156 1.671875 -0.078125 C 1.535156 -0.00390625 1.375 0.03125 1.1875 0.03125 C 0.988281 0.03125 0.8125 -0.015625 0.65625 -0.109375 C 0.507812 -0.203125 0.394531 -0.332031 0.3125 -0.5 C 0.226562 -0.675781 0.1875 -0.882812 0.1875 -1.125 C 0.1875 -1.363281 0.226562 -1.570312 0.3125 -1.75 C 0.394531 -1.925781 0.507812 -2.0625 0.65625 -2.15625 C 0.8125 -2.25 0.984375 -2.296875 1.171875 -2.296875 C 1.328125 -2.296875 1.46875 -2.265625 1.59375 -2.203125 C 1.726562 -2.140625 1.835938 -2.050781 1.921875 -1.9375 C 2.015625 -1.820312 2.078125 -1.691406 2.109375 -1.546875 Z M 1.8125 -1.546875 "/></g></g></g><g fill="#ffffff" fill-opacity="1"><g transform="translate(61.009846, 40.75682)"><g><path d="M 0.359375 0 L 0.078125 0 L 0.90625 -2.265625 L 1.1875 -2.265625 L 2.015625 0 L 1.734375 0 L 1.515625 -0.640625 L 0.59375 -0.640625 Z M 0.6875 -0.890625 L 1.421875 -0.890625 L 1.0625 -1.90625 L 1.046875 -1.90625 Z M 0.6875 -0.890625 "/></g></g></g><g fill="#ffffff" fill-opacity="1"><g transform="translate(63.442698, 40.75682)"><g><path d="M 0.96875 0 L 0.28125 0 L 0.28125 -2.265625 L 1 -2.265625 C 1.21875 -2.265625 1.40625 -2.21875 1.5625 -2.125 C 1.71875 -2.03125 1.835938 -1.898438 1.921875 -1.734375 C 2.003906 -1.566406 2.046875 -1.367188 2.046875 -1.140625 C 2.046875 -0.898438 2.003906 -0.691406 1.921875 -0.515625 C 1.835938 -0.347656 1.710938 -0.21875 1.546875 -0.125 C 1.390625 -0.0390625 1.195312 0 0.96875 0 Z M 0.546875 -0.25 L 0.953125 -0.25 C 1.234375 -0.25 1.441406 -0.328125 1.578125 -0.484375 C 1.710938 -0.640625 1.78125 -0.859375 1.78125 -1.140625 C 1.78125 -1.410156 1.710938 -1.625 1.578125 -1.78125 C 1.441406 -1.9375 1.242188 -2.015625 0.984375 -2.015625 L 0.546875 -2.015625 Z M 0.546875 -0.25 "/></g></g></g><g fill="#ffffff" fill-opacity="1"><g transform="translate(66.00775, 40.75682)"><g><path d="M 2.1875 -1.125 C 2.1875 -0.882812 2.140625 -0.675781 2.046875 -0.5 C 1.960938 -0.332031 1.84375 -0.203125 1.6875 -0.109375 C 1.539062 -0.015625 1.375 0.03125 1.1875 0.03125 C 0.988281 0.03125 0.8125 -0.015625 0.65625 -0.109375 C 0.507812 -0.203125 0.394531 -0.332031 0.3125 -0.5 C 0.226562 -0.675781 0.1875 -0.882812 0.1875 -1.125 C 0.1875 -1.363281 0.226562 -1.570312 0.3125 -1.75 C 0.394531 -1.925781 0.507812 -2.0625 0.65625 -2.15625 C 0.8125 -2.25 0.988281 -2.296875 1.1875 -2.296875 C 1.375 -2.296875 1.539062 -2.25 1.6875 -2.15625 C 1.84375 -2.0625 1.960938 -1.925781 2.046875 -1.75 C 2.140625 -1.570312 2.1875 -1.363281 2.1875 -1.125 Z M 1.921875 -1.125 C 1.921875 -1.320312 1.882812 -1.488281 1.8125 -1.625 C 1.75 -1.757812 1.660156 -1.859375 1.546875 -1.921875 C 1.441406 -1.992188 1.320312 -2.03125 1.1875 -2.03125 C 1.050781 -2.03125 0.925781 -1.992188 0.8125 -1.921875 C 0.695312 -1.859375 0.609375 -1.757812 0.546875 -1.625 C 0.484375 -1.488281 0.453125 -1.320312 0.453125 -1.125 C 0.453125 -0.9375 0.484375 -0.773438 0.546875 -0.640625 C 0.609375 -0.503906 0.695312 -0.398438 0.8125 -0.328125 C 0.925781 -0.253906 1.050781 -0.21875 1.1875 -0.21875 C 1.320312 -0.21875 1.441406 -0.253906 1.546875 -0.328125 C 1.660156 -0.398438 1.75 -0.503906 1.8125 -0.640625 C 1.882812 -0.773438 1.921875 -0.9375 1.921875 -1.125 Z M 1.921875 -1.125 "/></g></g></g><g fill="#ffffff" fill-opacity="1"><g transform="translate(68.705004, 40.75682)"><g><path d="M 1.515625 -1.703125 C 1.492188 -1.804688 1.4375 -1.890625 1.34375 -1.953125 C 1.25 -2.015625 1.132812 -2.046875 1 -2.046875 C 0.851562 -2.046875 0.734375 -2.007812 0.640625 -1.9375 C 0.546875 -1.875 0.5 -1.785156 0.5 -1.671875 C 0.5 -1.585938 0.523438 -1.519531 0.578125 -1.46875 C 0.628906 -1.425781 0.6875 -1.390625 0.75 -1.359375 C 0.820312 -1.335938 0.882812 -1.316406 0.9375 -1.296875 L 1.171875 -1.234375 C 1.234375 -1.222656 1.296875 -1.203125 1.359375 -1.171875 C 1.429688 -1.140625 1.5 -1.097656 1.5625 -1.046875 C 1.632812 -1.003906 1.691406 -0.945312 1.734375 -0.875 C 1.785156 -0.800781 1.8125 -0.710938 1.8125 -0.609375 C 1.8125 -0.492188 1.773438 -0.382812 1.703125 -0.28125 C 1.640625 -0.1875 1.546875 -0.109375 1.421875 -0.046875 C 1.304688 0.015625 1.160156 0.046875 0.984375 0.046875 C 0.742188 0.046875 0.550781 -0.0078125 0.40625 -0.125 C 0.269531 -0.25 0.191406 -0.398438 0.171875 -0.578125 L 0.453125 -0.578125 C 0.460938 -0.492188 0.492188 -0.421875 0.546875 -0.359375 C 0.597656 -0.304688 0.660156 -0.265625 0.734375 -0.234375 C 0.816406 -0.210938 0.898438 -0.203125 0.984375 -0.203125 C 1.085938 -0.203125 1.179688 -0.21875 1.265625 -0.25 C 1.347656 -0.289062 1.414062 -0.34375 1.46875 -0.40625 C 1.519531 -0.46875 1.546875 -0.539062 1.546875 -0.625 C 1.546875 -0.695312 1.523438 -0.753906 1.484375 -0.796875 C 1.441406 -0.847656 1.382812 -0.882812 1.3125 -0.90625 C 1.238281 -0.9375 1.164062 -0.96875 1.09375 -1 L 0.8125 -1.078125 C 0.632812 -1.128906 0.492188 -1.203125 0.390625 -1.296875 C 0.285156 -1.390625 0.234375 -1.507812 0.234375 -1.65625 C 0.234375 -1.78125 0.265625 -1.890625 0.328125 -1.984375 C 0.398438 -2.085938 0.492188 -2.164062 0.609375 -2.21875 C 0.734375 -2.269531 0.867188 -2.296875 1.015625 -2.296875 C 1.160156 -2.296875 1.285156 -2.269531 1.390625 -2.21875 C 1.503906 -2.164062 1.59375 -2.09375 1.65625 -2 C 1.726562 -1.90625 1.769531 -1.804688 1.78125 -1.703125 Z M 1.515625 -1.703125 "/></g></g></g></svg>