<svg xmlns="http://www.w3.org/2000/svg" xmlns:xlink="http://www.w3.org/1999/xlink" width="500" zoomAndPan="magnify" viewBox="0 0 375 374.999991" height="500" preserveAspectRatio="xMidYMid meet" version="1.0"><defs><filter x="0%" y="0%" width="100%" height="100%" id="48e96c19ba"><feColorMatrix values="0 0 0 0 1 0 0 0 0 1 0 0 0 0 1 0 0 0 1 0" color-interpolation-filters="sRGB"/></filter><g/><mask id="2f4c6d6a3b"><g filter="url(#48e96c19ba)"><rect x="-37.5" width="450" fill="#000000" y="-37.499999" height="449.999989" fill-opacity="0.32"/></g></mask><clipPath id="493877cb27"><path d="M 0.570312 0.570312 L 268.429688 0.570312 L 268.429688 268.429688 L 0.570312 268.429688 Z M 0.570312 0.570312 " clip-rule="nonzero"/></clipPath><clipPath id="ba3576e434"><rect x="0" width="269" y="0" height="269"/></clipPath><clipPath id="c4c10c1d8a"><path d="M 113.230469 155.492188 L 159.300781 155.492188 L 159.300781 159 L 113.230469 159 Z M 113.230469 155.492188 " clip-rule="nonzero"/></clipPath><clipPath id="43292c7986"><path d="M 119 166 L 154 166 L 154 219.242188 L 119 219.242188 Z M 119 166 " clip-rule="nonzero"/></clipPath></defs><g mask="url(#2f4c6d6a3b)"><g transform="matrix(1, 0, 0, 1, 53, 53)"><g clip-path="url(#ba3576e434)"><g clip-path="url(#493877cb27)"><path fill="#073332" d="M 0.570312 0.570312 L 268.429688 0.570312 L 268.429688 268.429688 L 0.570312 268.429688 Z M 0.570312 0.570312 " fill-opacity="1" fill-rule="nonzero"/></g></g></g></g><path fill="#ffffff" d="M 154.472656 161.078125 L 117.921875 161.078125 C 117.191406 161.078125 116.597656 161.671875 116.597656 162.402344 C 116.597656 163.136719 117.191406 163.726562 117.921875 163.726562 L 154.472656 163.726562 C 155.203125 163.726562 155.796875 163.136719 155.796875 162.402344 C 155.796875 161.671875 155.203125 161.078125 154.472656 161.078125 " fill-opacity="1" fill-rule="nonzero"/><g clip-path="url(#c4c10c1d8a)"><path fill="#ffffff" d="M 157.824219 155.496094 L 114.570312 155.496094 C 113.835938 155.496094 113.246094 156.089844 113.246094 156.820312 C 113.246094 157.554688 113.835938 158.148438 114.570312 158.148438 L 157.824219 158.148438 C 158.554688 158.148438 159.148438 157.554688 159.148438 156.820312 C 159.148438 156.089844 158.554688 155.496094 157.824219 155.496094 " fill-opacity="1" fill-rule="nonzero"/></g><g clip-path="url(#43292c7986)"><path fill="#f8c13c" d="M 120.640625 169.234375 L 120.675781 169.234375 C 123.867188 169.234375 126.457031 171.824219 126.457031 175.019531 L 126.457031 209.679688 L 130.863281 207.308594 L 130.863281 169.234375 L 133.992188 169.234375 L 133.992188 219.5 L 138.398438 217.128906 L 138.398438 169.234375 L 141.53125 169.234375 L 141.53125 209.679688 L 145.933594 207.308594 L 145.933594 175.019531 C 145.933594 171.824219 148.523438 169.234375 151.71875 169.234375 C 152.4375 169.234375 153.050781 168.675781 153.074219 167.957031 C 153.101562 167.203125 152.5 166.582031 151.75 166.582031 L 120.675781 166.582031 C 119.957031 166.582031 119.34375 167.144531 119.316406 167.859375 C 119.289062 168.613281 119.894531 169.234375 120.640625 169.234375 " fill-opacity="1" fill-rule="nonzero"/></g><g fill="#ffffff" fill-opacity="1"><g transform="translate(161.75097, 176.789021)"><g><path d="M 0.484375 0.203125 C 0.421875 0.117188 0.378906 0.03125 0.359375 -0.0625 C 0.335938 -0.15625 0.328125 -0.25 0.328125 -0.34375 L 0.328125 -0.375 C 0.328125 -0.375 0.328125 -0.382812 0.328125 -0.40625 C 0.347656 -0.71875 0.453125 -0.929688 0.640625 -1.046875 C 0.773438 -1.128906 0.96875 -1.171875 1.21875 -1.171875 C 1.46875 -1.171875 1.632812 -1.195312 1.71875 -1.25 C 1.800781 -1.3125 1.847656 -1.382812 1.859375 -1.46875 C 1.898438 -1.625 1.925781 -1.832031 1.9375 -2.09375 L 1.9375 -9.21875 C 1.925781 -9.476562 1.898438 -9.6875 1.859375 -9.84375 C 1.859375 -9.875 1.851562 -9.898438 1.84375 -9.921875 C 1.832031 -9.941406 1.816406 -9.960938 1.796875 -9.984375 C 1.785156 -10.015625 1.757812 -10.035156 1.71875 -10.046875 C 1.632812 -10.117188 1.46875 -10.15625 1.21875 -10.15625 L 1.109375 -10.15625 C 1.066406 -10.15625 1.023438 -10.15625 0.984375 -10.15625 C 0.953125 -10.164062 0.90625 -10.171875 0.84375 -10.171875 C 0.789062 -10.179688 0.738281 -10.195312 0.6875 -10.21875 C 0.644531 -10.25 0.609375 -10.285156 0.578125 -10.328125 C 0.546875 -10.335938 0.519531 -10.351562 0.5 -10.375 C 0.476562 -10.40625 0.460938 -10.425781 0.453125 -10.4375 C 0.441406 -10.457031 0.425781 -10.476562 0.40625 -10.5 C 0.394531 -10.53125 0.382812 -10.550781 0.375 -10.5625 C 0.375 -10.582031 0.367188 -10.609375 0.359375 -10.640625 C 0.359375 -10.671875 0.351562 -10.691406 0.34375 -10.703125 C 0.34375 -10.722656 0.34375 -10.742188 0.34375 -10.765625 C 0.34375 -10.796875 0.335938 -10.816406 0.328125 -10.828125 C 0.328125 -10.847656 0.328125 -10.867188 0.328125 -10.890625 C 0.328125 -10.910156 0.328125 -10.925781 0.328125 -10.9375 L 0.328125 -10.984375 C 0.335938 -11.179688 0.390625 -11.359375 0.484375 -11.515625 C 0.546875 -11.609375 0.628906 -11.679688 0.734375 -11.734375 C 0.835938 -11.796875 0.953125 -11.828125 1.078125 -11.828125 L 1.09375 -11.828125 C 1.882812 -11.785156 2.585938 -11.765625 3.203125 -11.765625 C 3.910156 -11.765625 4.65625 -11.785156 5.4375 -11.828125 L 5.453125 -11.828125 C 5.523438 -11.828125 5.597656 -11.8125 5.671875 -11.78125 C 5.753906 -11.757812 5.828125 -11.722656 5.890625 -11.671875 C 5.953125 -11.628906 6.007812 -11.578125 6.0625 -11.515625 C 6.125 -11.429688 6.164062 -11.34375 6.1875 -11.25 C 6.207031 -11.164062 6.21875 -11.078125 6.21875 -10.984375 L 6.21875 -10.9375 C 6.195312 -10.601562 6.078125 -10.378906 5.859375 -10.265625 C 5.773438 -10.210938 5.691406 -10.179688 5.609375 -10.171875 C 5.535156 -10.160156 5.441406 -10.15625 5.328125 -10.15625 C 5.078125 -10.15625 4.910156 -10.117188 4.828125 -10.046875 C 4.742188 -9.992188 4.695312 -9.925781 4.6875 -9.84375 C 4.644531 -9.6875 4.617188 -9.476562 4.609375 -9.21875 L 4.609375 -1.84375 C 4.628906 -1.644531 4.65625 -1.484375 4.6875 -1.359375 C 4.6875 -1.347656 4.691406 -1.335938 4.703125 -1.328125 C 4.710938 -1.328125 4.722656 -1.316406 4.734375 -1.296875 C 4.753906 -1.285156 4.78125 -1.269531 4.8125 -1.25 C 4.851562 -1.226562 4.921875 -1.207031 5.015625 -1.1875 C 5.117188 -1.175781 5.253906 -1.171875 5.421875 -1.171875 L 7.03125 -1.171875 C 7.363281 -1.179688 7.601562 -1.226562 7.75 -1.3125 C 7.894531 -1.394531 8.007812 -1.523438 8.09375 -1.703125 C 8.132812 -1.804688 8.191406 -1.960938 8.265625 -2.171875 C 8.347656 -2.390625 8.429688 -2.640625 8.515625 -2.921875 L 8.515625 -2.9375 L 8.53125 -2.953125 C 8.613281 -3.171875 8.757812 -3.320312 8.96875 -3.40625 C 9.175781 -3.5 9.394531 -3.53125 9.625 -3.5 L 9.65625 -3.5 L 9.65625 -3.484375 C 9.75 -3.472656 9.832031 -3.445312 9.90625 -3.40625 C 9.988281 -3.363281 10.066406 -3.316406 10.140625 -3.265625 C 10.359375 -3.085938 10.457031 -2.859375 10.4375 -2.578125 L 10.4375 -2.5625 L 10.078125 -0.3125 L 10.078125 -0.28125 L 10.0625 -0.265625 C 10.039062 -0.148438 10.003906 -0.046875 9.953125 0.046875 C 9.910156 0.148438 9.832031 0.238281 9.71875 0.3125 C 9.570312 0.40625 9.367188 0.453125 9.109375 0.453125 L 3.234375 0.453125 C 2.910156 0.453125 2.570312 0.453125 2.21875 0.453125 C 1.863281 0.460938 1.488281 0.476562 1.09375 0.5 L 1.078125 0.5 C 0.828125 0.5 0.628906 0.398438 0.484375 0.203125 Z M 0.484375 0.203125 "/></g></g></g><g fill="#ffffff" fill-opacity="1"><g transform="translate(171.988813, 176.789021)"><g><path d="M 3.875 0.265625 C 3.15625 -0.0859375 2.601562 -0.566406 2.21875 -1.171875 C 1.84375 -1.765625 1.65625 -2.410156 1.65625 -3.109375 L 1.65625 -9.21875 C 1.632812 -9.476562 1.609375 -9.6875 1.578125 -9.84375 C 1.566406 -9.882812 1.550781 -9.921875 1.53125 -9.953125 C 1.507812 -9.992188 1.476562 -10.023438 1.4375 -10.046875 C 1.351562 -10.117188 1.1875 -10.15625 0.9375 -10.15625 L 0.828125 -10.15625 C 0.597656 -10.15625 0.414062 -10.210938 0.28125 -10.328125 C 0.25 -10.359375 0.222656 -10.378906 0.203125 -10.390625 C 0.179688 -10.410156 0.160156 -10.4375 0.140625 -10.46875 C 0.128906 -10.5 0.117188 -10.519531 0.109375 -10.53125 C 0.0976562 -10.550781 0.0859375 -10.578125 0.078125 -10.609375 C 0.078125 -10.640625 0.0703125 -10.660156 0.0625 -10.671875 C 0.0507812 -10.691406 0.046875 -10.71875 0.046875 -10.75 C 0.046875 -10.78125 0.0390625 -10.800781 0.03125 -10.8125 C 0.03125 -10.820312 0.03125 -10.84375 0.03125 -10.875 C 0.03125 -10.914062 0.03125 -10.9375 0.03125 -10.9375 L 0.03125 -10.984375 C 0.03125 -11.023438 0.03125 -11.066406 0.03125 -11.109375 C 0.0390625 -11.160156 0.0507812 -11.207031 0.0625 -11.25 C 0.0820312 -11.289062 0.101562 -11.332031 0.125 -11.375 C 0.144531 -11.414062 0.171875 -11.460938 0.203125 -11.515625 C 0.242188 -11.578125 0.296875 -11.628906 0.359375 -11.671875 C 0.429688 -11.722656 0.503906 -11.757812 0.578125 -11.78125 C 0.660156 -11.8125 0.738281 -11.828125 0.8125 -11.828125 L 0.828125 -11.828125 C 1.585938 -11.785156 2.285156 -11.765625 2.921875 -11.765625 C 3.640625 -11.765625 4.378906 -11.785156 5.140625 -11.828125 L 5.171875 -11.828125 C 5.242188 -11.828125 5.316406 -11.8125 5.390625 -11.78125 C 5.460938 -11.757812 5.53125 -11.722656 5.59375 -11.671875 C 5.664062 -11.628906 5.726562 -11.578125 5.78125 -11.515625 C 5.832031 -11.429688 5.867188 -11.34375 5.890625 -11.25 C 5.921875 -11.164062 5.9375 -11.078125 5.9375 -10.984375 L 5.9375 -10.9375 C 5.925781 -10.84375 5.914062 -10.773438 5.90625 -10.734375 C 5.90625 -10.691406 5.882812 -10.625 5.84375 -10.53125 C 5.800781 -10.445312 5.742188 -10.375 5.671875 -10.3125 C 5.535156 -10.207031 5.351562 -10.15625 5.125 -10.15625 C 4.84375 -10.15625 4.644531 -10.117188 4.53125 -10.046875 C 4.488281 -10.003906 4.453125 -9.972656 4.421875 -9.953125 C 4.398438 -9.929688 4.390625 -9.898438 4.390625 -9.859375 C 4.359375 -9.722656 4.335938 -9.507812 4.328125 -9.21875 L 4.328125 -3.625 C 4.328125 -2.894531 4.492188 -2.285156 4.828125 -1.796875 C 5.128906 -1.359375 5.757812 -1.140625 6.71875 -1.140625 C 7.6875 -1.140625 8.359375 -1.347656 8.734375 -1.765625 C 9.117188 -2.191406 9.3125 -2.726562 9.3125 -3.375 L 9.3125 -8.09375 C 9.3125 -8.882812 9.28125 -9.429688 9.21875 -9.734375 C 9.207031 -9.816406 9.191406 -9.882812 9.171875 -9.9375 C 9.148438 -10 9.128906 -10.035156 9.109375 -10.046875 L 9.09375 -10.0625 C 8.988281 -10.125 8.75 -10.15625 8.375 -10.15625 L 8.265625 -10.15625 C 8.171875 -10.15625 8.082031 -10.164062 8 -10.1875 C 7.914062 -10.207031 7.832031 -10.25 7.75 -10.3125 C 7.675781 -10.375 7.617188 -10.445312 7.578125 -10.53125 C 7.535156 -10.625 7.507812 -10.691406 7.5 -10.734375 C 7.5 -10.773438 7.492188 -10.84375 7.484375 -10.9375 L 7.484375 -10.984375 C 7.484375 -11.015625 7.484375 -11.046875 7.484375 -11.078125 C 7.484375 -11.109375 7.484375 -11.132812 7.484375 -11.15625 C 7.492188 -11.1875 7.503906 -11.21875 7.515625 -11.25 C 7.523438 -11.28125 7.535156 -11.3125 7.546875 -11.34375 C 7.554688 -11.375 7.566406 -11.40625 7.578125 -11.4375 C 7.597656 -11.46875 7.617188 -11.492188 7.640625 -11.515625 C 7.710938 -11.609375 7.800781 -11.679688 7.90625 -11.734375 C 8.019531 -11.796875 8.132812 -11.828125 8.25 -11.828125 L 8.265625 -11.828125 C 8.648438 -11.796875 9.007812 -11.773438 9.34375 -11.765625 C 9.675781 -11.765625 9.984375 -11.765625 10.265625 -11.765625 C 10.398438 -11.765625 10.539062 -11.765625 10.6875 -11.765625 C 10.84375 -11.765625 11.003906 -11.765625 11.171875 -11.765625 C 11.335938 -11.773438 11.507812 -11.78125 11.6875 -11.78125 C 11.875 -11.789062 12.0625 -11.804688 12.25 -11.828125 L 12.265625 -11.828125 C 12.523438 -11.828125 12.726562 -11.722656 12.875 -11.515625 C 12.988281 -11.359375 13.046875 -11.179688 13.046875 -10.984375 L 13.046875 -10.9375 C 13.015625 -10.644531 12.921875 -10.4375 12.765625 -10.3125 C 12.679688 -10.238281 12.597656 -10.191406 12.515625 -10.171875 C 12.429688 -10.160156 12.335938 -10.15625 12.234375 -10.15625 C 11.816406 -10.15625 11.546875 -10.125 11.421875 -10.0625 C 11.410156 -10.0625 11.398438 -10.054688 11.390625 -10.046875 C 11.390625 -10.046875 11.375 -10.019531 11.34375 -9.96875 C 11.320312 -9.925781 11.304688 -9.863281 11.296875 -9.78125 C 11.273438 -9.65625 11.253906 -9.453125 11.234375 -9.171875 C 11.210938 -8.898438 11.203125 -8.578125 11.203125 -8.203125 L 11.203125 -3.1875 C 11.203125 -2.894531 11.175781 -2.613281 11.125 -2.34375 C 11.070312 -2.070312 10.988281 -1.816406 10.875 -1.578125 C 10.757812 -1.335938 10.613281 -1.117188 10.4375 -0.921875 C 9.945312 -0.316406 9.332031 0.117188 8.59375 0.390625 C 7.882812 0.671875 7.164062 0.8125 6.4375 0.8125 C 5.445312 0.8125 4.59375 0.628906 3.875 0.265625 Z M 3.875 0.265625 "/></g></g></g><g fill="#ffffff" fill-opacity="1"><g transform="translate(184.898181, 176.789021)"><g><path d="M 2.796875 0.203125 C 2.691406 0.046875 2.640625 -0.132812 2.640625 -0.34375 L 2.640625 -0.375 C 2.660156 -0.707031 2.78125 -0.9375 3 -1.0625 C 3.125 -1.132812 3.300781 -1.171875 3.53125 -1.171875 C 3.78125 -1.171875 3.945312 -1.195312 4.03125 -1.25 C 4.082031 -1.289062 4.113281 -1.328125 4.125 -1.359375 C 4.144531 -1.398438 4.160156 -1.4375 4.171875 -1.46875 C 4.191406 -1.507812 4.203125 -1.550781 4.203125 -1.59375 C 4.210938 -1.644531 4.21875 -1.695312 4.21875 -1.75 C 4.226562 -1.800781 4.234375 -1.859375 4.234375 -1.921875 C 4.242188 -1.984375 4.25 -2.039062 4.25 -2.09375 L 4.25 -4.328125 C 4.195312 -4.546875 3.914062 -5.175781 3.40625 -6.21875 C 2.820312 -7.414062 2.34375 -8.347656 1.96875 -9.015625 C 1.769531 -9.390625 1.550781 -9.660156 1.3125 -9.828125 C 1.082031 -10.003906 0.789062 -10.125 0.4375 -10.1875 L 0.4375 -10.203125 L 0.40625 -10.203125 C 0.394531 -10.203125 0.378906 -10.203125 0.359375 -10.203125 C 0.347656 -10.210938 0.328125 -10.21875 0.296875 -10.21875 C 0.273438 -10.21875 0.25 -10.226562 0.21875 -10.25 C -0.0078125 -10.289062 -0.171875 -10.394531 -0.265625 -10.5625 C -0.316406 -10.644531 -0.347656 -10.722656 -0.359375 -10.796875 C -0.367188 -10.867188 -0.375 -10.953125 -0.375 -11.046875 C -0.375 -11.359375 -0.265625 -11.582031 -0.046875 -11.71875 C 0.0976562 -11.8125 0.300781 -11.859375 0.5625 -11.859375 C 1.582031 -11.859375 2.394531 -11.710938 3 -11.421875 C 3.613281 -11.128906 4.15625 -10.578125 4.625 -9.765625 L 4.625 -9.734375 C 4.832031 -9.335938 5.113281 -8.769531 5.46875 -8.03125 C 5.5625 -7.863281 5.644531 -7.695312 5.71875 -7.53125 C 5.800781 -7.375 5.878906 -7.226562 5.953125 -7.09375 C 6.023438 -6.957031 6.085938 -6.832031 6.140625 -6.71875 L 6.71875 -7.875 L 7.75 -9.921875 C 7.78125 -10.003906 7.8125 -10.078125 7.84375 -10.140625 C 7.71875 -10.148438 7.5625 -10.15625 7.375 -10.15625 L 7.265625 -10.15625 C 7.035156 -10.15625 6.851562 -10.210938 6.71875 -10.328125 C 6.65625 -10.390625 6.601562 -10.460938 6.5625 -10.546875 C 6.519531 -10.640625 6.5 -10.703125 6.5 -10.734375 C 6.5 -10.765625 6.488281 -10.832031 6.46875 -10.9375 L 6.46875 -10.984375 C 6.46875 -11.015625 6.46875 -11.046875 6.46875 -11.078125 C 6.46875 -11.109375 6.472656 -11.132812 6.484375 -11.15625 C 6.492188 -11.1875 6.503906 -11.21875 6.515625 -11.25 C 6.523438 -11.28125 6.535156 -11.3125 6.546875 -11.34375 C 6.554688 -11.375 6.566406 -11.40625 6.578125 -11.4375 C 6.585938 -11.46875 6.609375 -11.492188 6.640625 -11.515625 C 6.671875 -11.566406 6.707031 -11.609375 6.75 -11.640625 C 6.789062 -11.671875 6.835938 -11.703125 6.890625 -11.734375 C 6.953125 -11.765625 7.007812 -11.785156 7.0625 -11.796875 C 7.113281 -11.816406 7.171875 -11.828125 7.234375 -11.828125 L 7.25 -11.828125 C 7.632812 -11.796875 7.988281 -11.773438 8.3125 -11.765625 C 8.632812 -11.765625 8.925781 -11.765625 9.1875 -11.765625 C 9.394531 -11.765625 9.648438 -11.765625 9.953125 -11.765625 C 10.253906 -11.773438 10.597656 -11.796875 10.984375 -11.828125 L 11 -11.828125 C 11.257812 -11.828125 11.460938 -11.722656 11.609375 -11.515625 C 11.710938 -11.359375 11.765625 -11.179688 11.765625 -10.984375 L 11.765625 -10.9375 C 11.742188 -10.65625 11.660156 -10.453125 11.515625 -10.328125 C 11.378906 -10.210938 11.203125 -10.15625 10.984375 -10.15625 C 10.765625 -10.15625 10.578125 -10.132812 10.421875 -10.09375 C 10.265625 -10.0625 10.128906 -10.007812 10.015625 -9.9375 C 9.910156 -9.875 9.804688 -9.773438 9.703125 -9.640625 C 9.597656 -9.515625 9.488281 -9.359375 9.375 -9.171875 L 8.265625 -7.078125 L 7.359375 -5.359375 C 7.347656 -5.316406 7.320312 -5.257812 7.28125 -5.1875 C 7.25 -5.125 7.203125 -5.039062 7.140625 -4.9375 C 7.117188 -4.863281 7.09375 -4.796875 7.0625 -4.734375 C 7.039062 -4.671875 7.019531 -4.613281 7 -4.5625 C 6.988281 -4.519531 6.984375 -4.476562 6.984375 -4.4375 C 6.953125 -4.351562 6.929688 -4.257812 6.921875 -4.15625 C 6.921875 -4.0625 6.921875 -3.957031 6.921875 -3.84375 L 6.921875 -2.09375 C 6.929688 -1.957031 6.9375 -1.835938 6.9375 -1.734375 C 6.945312 -1.628906 6.96875 -1.539062 7 -1.46875 C 7.007812 -1.4375 7.019531 -1.398438 7.03125 -1.359375 C 7.050781 -1.328125 7.085938 -1.289062 7.140625 -1.25 C 7.222656 -1.195312 7.390625 -1.171875 7.640625 -1.171875 L 7.75 -1.171875 C 7.976562 -1.171875 8.15625 -1.109375 8.28125 -0.984375 C 8.425781 -0.867188 8.507812 -0.664062 8.53125 -0.375 L 8.53125 -0.34375 C 8.53125 -0.132812 8.476562 0.046875 8.375 0.203125 C 8.3125 0.296875 8.226562 0.367188 8.125 0.421875 C 8.019531 0.472656 7.90625 0.5 7.78125 0.5 L 7.765625 0.5 C 7.515625 0.488281 7.265625 0.476562 7.015625 0.46875 C 6.773438 0.46875 6.535156 0.460938 6.296875 0.453125 C 6.066406 0.453125 5.84375 0.453125 5.625 0.453125 C 4.9375 0.453125 4.203125 0.46875 3.421875 0.5 L 3.40625 0.5 C 3.144531 0.5 2.941406 0.398438 2.796875 0.203125 Z M 2.796875 0.203125 "/></g></g></g><g fill="#ffffff" fill-opacity="1"><g transform="translate(196.032505, 176.789021)"><g><path d="M 1.625 0.078125 C 0.832031 -0.453125 0.4375 -1.21875 0.4375 -2.21875 C 0.4375 -2.78125 0.625 -3.25 1 -3.625 C 1.382812 -3.976562 1.875 -4.15625 2.46875 -4.15625 C 2.59375 -4.15625 2.703125 -4.144531 2.796875 -4.125 C 2.898438 -4.101562 3.003906 -4.066406 3.109375 -4.015625 C 3.210938 -3.972656 3.300781 -3.914062 3.375 -3.84375 C 3.488281 -3.738281 3.578125 -3.632812 3.640625 -3.53125 C 3.710938 -3.425781 3.75 -3.300781 3.75 -3.15625 C 3.75 -3.082031 3.742188 -3.015625 3.734375 -2.953125 C 3.722656 -2.898438 3.703125 -2.851562 3.671875 -2.8125 C 3.648438 -2.78125 3.625 -2.75 3.59375 -2.71875 C 3.5625 -2.695312 3.53125 -2.679688 3.5 -2.671875 C 3.476562 -2.671875 3.457031 -2.664062 3.4375 -2.65625 C 3.414062 -2.65625 3.394531 -2.65625 3.375 -2.65625 C 3.363281 -2.65625 3.359375 -2.65625 3.359375 -2.65625 C 3.296875 -2.601562 3.234375 -2.535156 3.171875 -2.453125 C 3.128906 -2.378906 3.109375 -2.265625 3.109375 -2.109375 C 3.109375 -1.679688 3.226562 -1.359375 3.46875 -1.140625 C 3.726562 -0.921875 4.15625 -0.8125 4.75 -0.8125 C 5.164062 -0.8125 5.53125 -0.890625 5.84375 -1.046875 C 6.132812 -1.203125 6.359375 -1.40625 6.515625 -1.65625 C 6.671875 -1.894531 6.75 -2.144531 6.75 -2.40625 C 6.75 -2.726562 6.65625 -3.007812 6.46875 -3.25 C 6.257812 -3.507812 6 -3.726562 5.6875 -3.90625 C 5.519531 -4 5.316406 -4.101562 5.078125 -4.21875 C 4.835938 -4.34375 4.566406 -4.472656 4.265625 -4.609375 C 3.523438 -4.941406 2.925781 -5.25 2.46875 -5.53125 C 1.976562 -5.8125 1.5625 -6.195312 1.21875 -6.6875 C 0.84375 -7.207031 0.65625 -7.835938 0.65625 -8.578125 C 0.65625 -9.160156 0.757812 -9.675781 0.96875 -10.125 C 1.1875 -10.582031 1.503906 -10.960938 1.921875 -11.265625 C 2.316406 -11.546875 2.769531 -11.757812 3.28125 -11.90625 C 3.789062 -12.050781 4.359375 -12.125 4.984375 -12.125 C 5.972656 -12.125 6.84375 -11.914062 7.59375 -11.5 C 8.414062 -11.03125 8.828125 -10.335938 8.828125 -9.421875 C 8.828125 -8.859375 8.632812 -8.390625 8.25 -8.015625 C 8.113281 -7.898438 7.96875 -7.800781 7.8125 -7.71875 C 7.664062 -7.644531 7.503906 -7.585938 7.328125 -7.546875 C 7.160156 -7.503906 6.976562 -7.484375 6.78125 -7.484375 C 6.394531 -7.492188 6.097656 -7.597656 5.890625 -7.796875 C 5.628906 -8.015625 5.5 -8.242188 5.5 -8.484375 C 5.5 -8.660156 5.539062 -8.789062 5.625 -8.875 C 5.71875 -8.96875 5.804688 -9.015625 5.890625 -9.015625 L 6.015625 -9.015625 C 6.117188 -9.066406 6.210938 -9.132812 6.296875 -9.21875 C 6.347656 -9.28125 6.375 -9.382812 6.375 -9.53125 C 6.375 -9.6875 6.34375 -9.816406 6.28125 -9.921875 C 6.226562 -10.023438 6.148438 -10.117188 6.046875 -10.203125 C 5.910156 -10.296875 5.757812 -10.367188 5.59375 -10.421875 C 5.425781 -10.472656 5.226562 -10.5 5 -10.5 C 4.675781 -10.5 4.40625 -10.460938 4.1875 -10.390625 C 3.96875 -10.316406 3.785156 -10.21875 3.640625 -10.09375 C 3.492188 -9.96875 3.390625 -9.828125 3.328125 -9.671875 C 3.265625 -9.523438 3.234375 -9.359375 3.234375 -9.171875 C 3.234375 -8.859375 3.3125 -8.597656 3.46875 -8.390625 C 3.65625 -8.160156 3.976562 -7.921875 4.4375 -7.671875 C 4.5625 -7.597656 4.691406 -7.53125 4.828125 -7.46875 C 4.972656 -7.40625 5.117188 -7.335938 5.265625 -7.265625 C 5.410156 -7.191406 5.5625 -7.117188 5.71875 -7.046875 C 6.113281 -6.867188 6.46875 -6.695312 6.78125 -6.53125 C 7.09375 -6.375 7.367188 -6.21875 7.609375 -6.0625 C 8.109375 -5.738281 8.523438 -5.320312 8.859375 -4.8125 C 9.222656 -4.257812 9.40625 -3.59375 9.40625 -2.8125 C 9.40625 -2.113281 9.179688 -1.484375 8.734375 -0.921875 C 8.316406 -0.378906 7.75 0.046875 7.03125 0.359375 C 6.40625 0.628906 5.722656 0.78125 4.984375 0.8125 C 4.910156 0.8125 4.832031 0.8125 4.75 0.8125 C 3.414062 0.8125 2.375 0.566406 1.625 0.078125 Z M 1.625 0.078125 "/></g></g></g><g fill="#ffffff" fill-opacity="1"><g transform="translate(205.804173, 176.789021)"><g><path d="M -0.5 0.203125 C -0.601562 0.046875 -0.65625 -0.132812 -0.65625 -0.34375 L -0.65625 -0.375 C -0.65625 -0.375 -0.65625 -0.382812 -0.65625 -0.40625 C -0.632812 -0.71875 -0.53125 -0.929688 -0.34375 -1.046875 C -0.207031 -1.128906 -0.0546875 -1.171875 0.109375 -1.171875 L 0.265625 -1.171875 C 0.492188 -1.171875 0.644531 -1.210938 0.71875 -1.296875 C 0.863281 -1.453125 0.976562 -1.617188 1.0625 -1.796875 C 1.070312 -1.835938 1.082031 -1.875 1.09375 -1.90625 C 1.113281 -1.945312 1.128906 -1.984375 1.140625 -2.015625 C 1.160156 -2.046875 1.175781 -2.070312 1.1875 -2.09375 C 1.195312 -2.125 1.203125 -2.148438 1.203125 -2.171875 C 1.210938 -2.191406 1.222656 -2.210938 1.234375 -2.234375 C 1.242188 -2.253906 1.25 -2.269531 1.25 -2.28125 L 1.6875 -3.296875 L 4.390625 -9.703125 C 4.441406 -9.828125 4.46875 -9.910156 4.46875 -9.953125 L 4.453125 -10.03125 C 4.316406 -10.101562 4.125 -10.160156 3.875 -10.203125 C 3.613281 -10.253906 3.425781 -10.320312 3.3125 -10.40625 C 3.144531 -10.53125 3.0625 -10.75 3.0625 -11.0625 C 3.0625 -11.375 3.171875 -11.597656 3.390625 -11.734375 C 3.546875 -11.828125 3.75 -11.875 4 -11.875 C 4.21875 -11.875 4.414062 -11.867188 4.59375 -11.859375 C 4.769531 -11.847656 4.9375 -11.832031 5.09375 -11.8125 C 5.25 -11.789062 5.398438 -11.765625 5.546875 -11.734375 C 5.972656 -11.609375 6.347656 -11.382812 6.671875 -11.0625 C 6.972656 -10.75 7.25 -10.289062 7.5 -9.6875 L 10.515625 -2.265625 C 10.679688 -1.835938 10.835938 -1.53125 10.984375 -1.34375 C 11.023438 -1.28125 11.078125 -1.234375 11.140625 -1.203125 C 11.203125 -1.179688 11.28125 -1.171875 11.375 -1.171875 L 11.484375 -1.171875 C 11.710938 -1.171875 11.890625 -1.109375 12.015625 -0.984375 C 12.035156 -0.972656 12.054688 -0.953125 12.078125 -0.921875 C 12.109375 -0.898438 12.128906 -0.878906 12.140625 -0.859375 C 12.148438 -0.847656 12.160156 -0.828125 12.171875 -0.796875 C 12.191406 -0.773438 12.203125 -0.753906 12.203125 -0.734375 C 12.210938 -0.722656 12.21875 -0.703125 12.21875 -0.671875 C 12.226562 -0.640625 12.234375 -0.617188 12.234375 -0.609375 C 12.242188 -0.597656 12.25 -0.578125 12.25 -0.546875 C 12.25 -0.515625 12.25 -0.492188 12.25 -0.484375 C 12.257812 -0.472656 12.265625 -0.453125 12.265625 -0.421875 C 12.265625 -0.398438 12.265625 -0.382812 12.265625 -0.375 L 12.265625 -0.34375 C 12.265625 -0.132812 12.210938 0.046875 12.109375 0.203125 C 12.054688 0.253906 12 0.304688 11.9375 0.359375 C 11.875 0.410156 11.800781 0.445312 11.71875 0.46875 C 11.644531 0.488281 11.570312 0.5 11.5 0.5 L 11.484375 0.5 C 10.710938 0.46875 10.0625 0.453125 9.53125 0.453125 C 8.820312 0.453125 8.082031 0.46875 7.3125 0.5 L 7.296875 0.5 C 7.222656 0.5 7.144531 0.488281 7.0625 0.46875 C 6.988281 0.445312 6.921875 0.410156 6.859375 0.359375 C 6.796875 0.304688 6.738281 0.253906 6.6875 0.203125 C 6.625 0.117188 6.582031 0.03125 6.5625 -0.0625 C 6.539062 -0.15625 6.53125 -0.25 6.53125 -0.34375 L 6.53125 -0.375 C 6.550781 -0.664062 6.632812 -0.867188 6.78125 -0.984375 C 6.914062 -1.109375 7.09375 -1.171875 7.3125 -1.171875 C 7.632812 -1.171875 7.859375 -1.191406 7.984375 -1.234375 C 7.984375 -1.242188 7.984375 -1.25 7.984375 -1.25 C 7.984375 -1.269531 7.976562 -1.304688 7.96875 -1.359375 C 7.957031 -1.421875 7.9375 -1.503906 7.90625 -1.609375 C 7.875 -1.722656 7.835938 -1.832031 7.796875 -1.9375 L 7.296875 -3.140625 L 3.484375 -3.140625 C 3.359375 -2.847656 3.265625 -2.617188 3.203125 -2.453125 C 3.140625 -2.296875 3.097656 -2.195312 3.078125 -2.15625 C 3.066406 -2.125 3.054688 -2.085938 3.046875 -2.046875 C 3.046875 -2.023438 3.039062 -2.003906 3.03125 -1.984375 C 3.03125 -1.972656 3.03125 -1.960938 3.03125 -1.953125 C 2.96875 -1.785156 2.914062 -1.632812 2.875 -1.5 C 2.84375 -1.363281 2.828125 -1.273438 2.828125 -1.234375 C 2.984375 -1.191406 3.265625 -1.171875 3.671875 -1.171875 L 3.78125 -1.171875 C 4.007812 -1.171875 4.191406 -1.109375 4.328125 -0.984375 C 4.460938 -0.867188 4.546875 -0.664062 4.578125 -0.375 L 4.578125 -0.34375 C 4.578125 -0.132812 4.519531 0.046875 4.40625 0.203125 C 4.34375 0.296875 4.253906 0.367188 4.140625 0.421875 C 4.035156 0.472656 3.921875 0.5 3.796875 0.5 L 3.78125 0.5 C 3.394531 0.476562 3.039062 0.460938 2.71875 0.453125 C 2.394531 0.453125 2.101562 0.453125 1.84375 0.453125 C 1.476562 0.453125 0.90625 0.46875 0.125 0.5 L 0.109375 0.5 C -0.148438 0.5 -0.351562 0.398438 -0.5 0.203125 Z M 4.171875 -4.8125 L 6.625 -4.8125 L 5.4375 -7.84375 Z M 4.171875 -4.8125 "/></g></g></g><g fill="#ffffff" fill-opacity="1"><g transform="translate(161.75097, 195.003306)"><g><path d="M 3.40625 0.109375 C 2.488281 -0.367188 1.757812 -1.09375 1.21875 -2.0625 C 0.695312 -3.03125 0.4375 -4.203125 0.4375 -5.578125 C 0.4375 -6.867188 0.722656 -8.007812 1.296875 -9 C 1.867188 -10 2.660156 -10.769531 3.671875 -11.3125 C 4.535156 -11.769531 5.5 -12.035156 6.5625 -12.109375 C 6.625 -12.109375 6.6875 -12.109375 6.75 -12.109375 C 6.820312 -12.117188 6.890625 -12.125 6.953125 -12.125 C 7.015625 -12.125 7.078125 -12.125 7.140625 -12.125 C 7.785156 -12.125 8.421875 -12.03125 9.046875 -11.84375 C 9.253906 -11.769531 9.457031 -11.6875 9.65625 -11.59375 C 9.851562 -11.507812 10.035156 -11.40625 10.203125 -11.28125 C 10.367188 -11.164062 10.53125 -11.035156 10.6875 -10.890625 C 11.15625 -10.410156 11.390625 -9.828125 11.390625 -9.140625 C 11.390625 -8.992188 11.375 -8.84375 11.34375 -8.6875 C 11.320312 -8.539062 11.285156 -8.394531 11.234375 -8.25 C 11.191406 -8.113281 11.132812 -7.984375 11.0625 -7.859375 C 10.988281 -7.734375 10.90625 -7.613281 10.8125 -7.5 C 10.625 -7.257812 10.394531 -7.078125 10.125 -6.953125 C 9.851562 -6.828125 9.554688 -6.765625 9.234375 -6.765625 C 9.128906 -6.765625 9.019531 -6.769531 8.90625 -6.78125 C 8.800781 -6.800781 8.695312 -6.828125 8.59375 -6.859375 C 8.5 -6.898438 8.40625 -6.945312 8.3125 -7 C 8.132812 -7.082031 7.988281 -7.191406 7.875 -7.328125 C 7.769531 -7.472656 7.707031 -7.640625 7.6875 -7.828125 L 7.6875 -7.859375 C 7.6875 -7.972656 7.703125 -8.070312 7.734375 -8.15625 C 7.773438 -8.238281 7.820312 -8.289062 7.875 -8.3125 C 7.925781 -8.332031 7.976562 -8.347656 8.03125 -8.359375 C 8.082031 -8.378906 8.113281 -8.394531 8.125 -8.40625 C 8.15625 -8.4375 8.1875 -8.46875 8.21875 -8.5 C 8.257812 -8.539062 8.300781 -8.582031 8.34375 -8.625 C 8.382812 -8.675781 8.425781 -8.734375 8.46875 -8.796875 C 8.550781 -8.921875 8.59375 -9.082031 8.59375 -9.28125 C 8.59375 -9.632812 8.453125 -9.921875 8.171875 -10.140625 C 7.847656 -10.390625 7.429688 -10.515625 6.921875 -10.515625 C 6.828125 -10.515625 6.738281 -10.507812 6.65625 -10.5 C 6.113281 -10.457031 5.617188 -10.28125 5.171875 -9.96875 C 5.035156 -9.875 4.910156 -9.769531 4.796875 -9.65625 C 4.679688 -9.550781 4.570312 -9.429688 4.46875 -9.296875 C 4.363281 -9.160156 4.265625 -9.015625 4.171875 -8.859375 C 4.078125 -8.703125 3.988281 -8.535156 3.90625 -8.359375 C 3.75 -7.984375 3.628906 -7.570312 3.546875 -7.125 C 3.460938 -6.6875 3.421875 -6.207031 3.421875 -5.6875 C 3.421875 -4.675781 3.578125 -3.816406 3.890625 -3.109375 C 4.203125 -2.410156 4.628906 -1.875 5.171875 -1.5 C 5.347656 -1.382812 5.535156 -1.285156 5.734375 -1.203125 C 5.941406 -1.128906 6.15625 -1.070312 6.375 -1.03125 C 6.59375 -0.988281 6.820312 -0.96875 7.0625 -0.96875 C 7.25 -0.96875 7.414062 -0.972656 7.5625 -0.984375 C 7.71875 -0.992188 7.863281 -1.003906 8 -1.015625 C 8.082031 -1.035156 8.175781 -1.054688 8.28125 -1.078125 C 8.382812 -1.097656 8.476562 -1.117188 8.5625 -1.140625 L 8.5625 -2.640625 C 8.5625 -3.035156 8.546875 -3.300781 8.515625 -3.4375 C 8.515625 -3.457031 8.5 -3.476562 8.46875 -3.5 C 8.375 -3.539062 8.171875 -3.5625 7.859375 -3.5625 C 7.628906 -3.5625 7.445312 -3.613281 7.3125 -3.71875 C 7.132812 -3.832031 7.035156 -4.046875 7.015625 -4.359375 L 7.015625 -4.390625 C 7.015625 -4.609375 7.078125 -4.800781 7.203125 -4.96875 C 7.359375 -5.144531 7.570312 -5.234375 7.84375 -5.234375 L 7.859375 -5.234375 C 8.609375 -5.203125 9.257812 -5.1875 9.8125 -5.1875 C 9.988281 -5.1875 10.175781 -5.1875 10.375 -5.1875 C 10.570312 -5.195312 10.785156 -5.203125 11.015625 -5.203125 C 11.242188 -5.210938 11.484375 -5.222656 11.734375 -5.234375 L 11.75 -5.234375 C 12 -5.234375 12.203125 -5.140625 12.359375 -4.953125 C 12.472656 -4.796875 12.53125 -4.609375 12.53125 -4.390625 L 12.53125 -4.359375 C 12.53125 -4.285156 12.523438 -4.226562 12.515625 -4.1875 C 12.515625 -4.15625 12.503906 -4.109375 12.484375 -4.046875 C 12.472656 -3.984375 12.445312 -3.921875 12.40625 -3.859375 C 12.363281 -3.804688 12.304688 -3.757812 12.234375 -3.71875 C 12.148438 -3.65625 12.066406 -3.613281 11.984375 -3.59375 C 11.898438 -3.570312 11.800781 -3.5625 11.6875 -3.5625 C 11.425781 -3.5625 11.25 -3.539062 11.15625 -3.5 C 11.101562 -3.457031 11.070312 -3.414062 11.0625 -3.375 C 11.0625 -3.332031 11.054688 -3.28125 11.046875 -3.21875 C 11.046875 -3.15625 11.039062 -3.070312 11.03125 -2.96875 C 11.03125 -2.863281 11.03125 -2.753906 11.03125 -2.640625 L 11.03125 -0.234375 L 10.78125 -0.109375 C 10.40625 0.0546875 10.046875 0.195312 9.703125 0.3125 C 9.367188 0.4375 9.046875 0.535156 8.734375 0.609375 C 8.597656 0.628906 8.460938 0.65625 8.328125 0.6875 C 7.785156 0.769531 7.15625 0.8125 6.4375 0.8125 C 5.320312 0.8125 4.3125 0.578125 3.40625 0.109375 Z M 3.40625 0.109375 "/></g></g></g><g fill="#ffffff" fill-opacity="1"><g transform="translate(174.158302, 195.003306)"><g><path d="M 3.875 0.265625 C 3.15625 -0.0859375 2.601562 -0.566406 2.21875 -1.171875 C 1.84375 -1.765625 1.65625 -2.410156 1.65625 -3.109375 L 1.65625 -9.21875 C 1.632812 -9.476562 1.609375 -9.6875 1.578125 -9.84375 C 1.566406 -9.882812 1.550781 -9.921875 1.53125 -9.953125 C 1.507812 -9.992188 1.476562 -10.023438 1.4375 -10.046875 C 1.351562 -10.117188 1.1875 -10.15625 0.9375 -10.15625 L 0.828125 -10.15625 C 0.597656 -10.15625 0.414062 -10.210938 0.28125 -10.328125 C 0.25 -10.359375 0.222656 -10.378906 0.203125 -10.390625 C 0.179688 -10.410156 0.160156 -10.4375 0.140625 -10.46875 C 0.128906 -10.5 0.117188 -10.519531 0.109375 -10.53125 C 0.0976562 -10.550781 0.0859375 -10.578125 0.078125 -10.609375 C 0.078125 -10.640625 0.0703125 -10.660156 0.0625 -10.671875 C 0.0507812 -10.691406 0.046875 -10.71875 0.046875 -10.75 C 0.046875 -10.78125 0.0390625 -10.800781 0.03125 -10.8125 C 0.03125 -10.820312 0.03125 -10.84375 0.03125 -10.875 C 0.03125 -10.914062 0.03125 -10.9375 0.03125 -10.9375 L 0.03125 -10.984375 C 0.03125 -11.023438 0.03125 -11.066406 0.03125 -11.109375 C 0.0390625 -11.160156 0.0507812 -11.207031 0.0625 -11.25 C 0.0820312 -11.289062 0.101562 -11.332031 0.125 -11.375 C 0.144531 -11.414062 0.171875 -11.460938 0.203125 -11.515625 C 0.242188 -11.578125 0.296875 -11.628906 0.359375 -11.671875 C 0.429688 -11.722656 0.503906 -11.757812 0.578125 -11.78125 C 0.660156 -11.8125 0.738281 -11.828125 0.8125 -11.828125 L 0.828125 -11.828125 C 1.585938 -11.785156 2.285156 -11.765625 2.921875 -11.765625 C 3.640625 -11.765625 4.378906 -11.785156 5.140625 -11.828125 L 5.171875 -11.828125 C 5.242188 -11.828125 5.316406 -11.8125 5.390625 -11.78125 C 5.460938 -11.757812 5.53125 -11.722656 5.59375 -11.671875 C 5.664062 -11.628906 5.726562 -11.578125 5.78125 -11.515625 C 5.832031 -11.429688 5.867188 -11.34375 5.890625 -11.25 C 5.921875 -11.164062 5.9375 -11.078125 5.9375 -10.984375 L 5.9375 -10.9375 C 5.925781 -10.84375 5.914062 -10.773438 5.90625 -10.734375 C 5.90625 -10.691406 5.882812 -10.625 5.84375 -10.53125 C 5.800781 -10.445312 5.742188 -10.375 5.671875 -10.3125 C 5.535156 -10.207031 5.351562 -10.15625 5.125 -10.15625 C 4.84375 -10.15625 4.644531 -10.117188 4.53125 -10.046875 C 4.488281 -10.003906 4.453125 -9.972656 4.421875 -9.953125 C 4.398438 -9.929688 4.390625 -9.898438 4.390625 -9.859375 C 4.359375 -9.722656 4.335938 -9.507812 4.328125 -9.21875 L 4.328125 -3.625 C 4.328125 -2.894531 4.492188 -2.285156 4.828125 -1.796875 C 5.128906 -1.359375 5.757812 -1.140625 6.71875 -1.140625 C 7.6875 -1.140625 8.359375 -1.347656 8.734375 -1.765625 C 9.117188 -2.191406 9.3125 -2.726562 9.3125 -3.375 L 9.3125 -8.09375 C 9.3125 -8.882812 9.28125 -9.429688 9.21875 -9.734375 C 9.207031 -9.816406 9.191406 -9.882812 9.171875 -9.9375 C 9.148438 -10 9.128906 -10.035156 9.109375 -10.046875 L 9.09375 -10.0625 C 8.988281 -10.125 8.75 -10.15625 8.375 -10.15625 L 8.265625 -10.15625 C 8.171875 -10.15625 8.082031 -10.164062 8 -10.1875 C 7.914062 -10.207031 7.832031 -10.25 7.75 -10.3125 C 7.675781 -10.375 7.617188 -10.445312 7.578125 -10.53125 C 7.535156 -10.625 7.507812 -10.691406 7.5 -10.734375 C 7.5 -10.773438 7.492188 -10.84375 7.484375 -10.9375 L 7.484375 -10.984375 C 7.484375 -11.015625 7.484375 -11.046875 7.484375 -11.078125 C 7.484375 -11.109375 7.484375 -11.132812 7.484375 -11.15625 C 7.492188 -11.1875 7.503906 -11.21875 7.515625 -11.25 C 7.523438 -11.28125 7.535156 -11.3125 7.546875 -11.34375 C 7.554688 -11.375 7.566406 -11.40625 7.578125 -11.4375 C 7.597656 -11.46875 7.617188 -11.492188 7.640625 -11.515625 C 7.710938 -11.609375 7.800781 -11.679688 7.90625 -11.734375 C 8.019531 -11.796875 8.132812 -11.828125 8.25 -11.828125 L 8.265625 -11.828125 C 8.648438 -11.796875 9.007812 -11.773438 9.34375 -11.765625 C 9.675781 -11.765625 9.984375 -11.765625 10.265625 -11.765625 C 10.398438 -11.765625 10.539062 -11.765625 10.6875 -11.765625 C 10.84375 -11.765625 11.003906 -11.765625 11.171875 -11.765625 C 11.335938 -11.773438 11.507812 -11.78125 11.6875 -11.78125 C 11.875 -11.789062 12.0625 -11.804688 12.25 -11.828125 L 12.265625 -11.828125 C 12.523438 -11.828125 12.726562 -11.722656 12.875 -11.515625 C 12.988281 -11.359375 13.046875 -11.179688 13.046875 -10.984375 L 13.046875 -10.9375 C 13.015625 -10.644531 12.921875 -10.4375 12.765625 -10.3125 C 12.679688 -10.238281 12.597656 -10.191406 12.515625 -10.171875 C 12.429688 -10.160156 12.335938 -10.15625 12.234375 -10.15625 C 11.816406 -10.15625 11.546875 -10.125 11.421875 -10.0625 C 11.410156 -10.0625 11.398438 -10.054688 11.390625 -10.046875 C 11.390625 -10.046875 11.375 -10.019531 11.34375 -9.96875 C 11.320312 -9.925781 11.304688 -9.863281 11.296875 -9.78125 C 11.273438 -9.65625 11.253906 -9.453125 11.234375 -9.171875 C 11.210938 -8.898438 11.203125 -8.578125 11.203125 -8.203125 L 11.203125 -3.1875 C 11.203125 -2.894531 11.175781 -2.613281 11.125 -2.34375 C 11.070312 -2.070312 10.988281 -1.816406 10.875 -1.578125 C 10.757812 -1.335938 10.613281 -1.117188 10.4375 -0.921875 C 9.945312 -0.316406 9.332031 0.117188 8.59375 0.390625 C 7.882812 0.671875 7.164062 0.8125 6.4375 0.8125 C 5.445312 0.8125 4.59375 0.628906 3.875 0.265625 Z M 3.875 0.265625 "/></g></g></g><g fill="#ffffff" fill-opacity="1"><g transform="translate(187.06767, 195.003306)"><g><path d="M 0.46875 0.203125 C 0.40625 0.117188 0.363281 0.03125 0.34375 -0.0625 C 0.320312 -0.15625 0.3125 -0.25 0.3125 -0.34375 L 0.3125 -0.375 C 0.332031 -0.707031 0.445312 -0.9375 0.65625 -1.0625 C 0.789062 -1.132812 0.972656 -1.171875 1.203125 -1.171875 C 1.453125 -1.171875 1.617188 -1.195312 1.703125 -1.25 C 1.785156 -1.320312 1.835938 -1.394531 1.859375 -1.46875 C 1.878906 -1.539062 1.894531 -1.628906 1.90625 -1.734375 C 1.925781 -1.847656 1.9375 -1.96875 1.9375 -2.09375 L 1.9375 -9.21875 C 1.925781 -9.363281 1.914062 -9.484375 1.90625 -9.578125 C 1.894531 -9.679688 1.878906 -9.769531 1.859375 -9.84375 C 1.835938 -9.914062 1.785156 -9.984375 1.703125 -10.046875 C 1.617188 -10.117188 1.453125 -10.15625 1.203125 -10.15625 L 1.09375 -10.15625 C 0.875 -10.15625 0.703125 -10.207031 0.578125 -10.3125 C 0.503906 -10.375 0.445312 -10.445312 0.40625 -10.53125 C 0.363281 -10.625 0.335938 -10.691406 0.328125 -10.734375 C 0.328125 -10.773438 0.320312 -10.84375 0.3125 -10.9375 L 0.3125 -10.984375 C 0.3125 -11.023438 0.3125 -11.066406 0.3125 -11.109375 C 0.320312 -11.160156 0.332031 -11.207031 0.34375 -11.25 C 0.351562 -11.289062 0.367188 -11.332031 0.390625 -11.375 C 0.421875 -11.414062 0.445312 -11.460938 0.46875 -11.515625 C 0.507812 -11.578125 0.5625 -11.628906 0.625 -11.671875 C 0.695312 -11.722656 0.769531 -11.757812 0.84375 -11.78125 C 0.925781 -11.8125 1.003906 -11.828125 1.078125 -11.828125 L 1.09375 -11.828125 C 1.28125 -11.804688 1.46875 -11.789062 1.65625 -11.78125 C 1.84375 -11.78125 2.023438 -11.773438 2.203125 -11.765625 C 2.378906 -11.765625 2.550781 -11.765625 2.71875 -11.765625 C 2.894531 -11.765625 3.054688 -11.765625 3.203125 -11.765625 C 3.910156 -11.765625 4.65625 -11.785156 5.4375 -11.828125 L 5.453125 -11.828125 C 5.523438 -11.828125 5.597656 -11.8125 5.671875 -11.78125 C 5.753906 -11.757812 5.828125 -11.722656 5.890625 -11.671875 C 5.953125 -11.628906 6.007812 -11.578125 6.0625 -11.515625 C 6.125 -11.429688 6.164062 -11.34375 6.1875 -11.25 C 6.207031 -11.164062 6.21875 -11.078125 6.21875 -10.984375 L 6.21875 -10.9375 C 6.195312 -10.601562 6.078125 -10.378906 5.859375 -10.265625 C 5.773438 -10.210938 5.691406 -10.179688 5.609375 -10.171875 C 5.523438 -10.160156 5.425781 -10.15625 5.3125 -10.15625 C 5.0625 -10.15625 4.894531 -10.117188 4.8125 -10.046875 C 4.726562 -9.992188 4.675781 -9.925781 4.65625 -9.84375 C 4.625 -9.6875 4.601562 -9.476562 4.59375 -9.21875 L 4.59375 -2.09375 C 4.601562 -1.957031 4.609375 -1.835938 4.609375 -1.734375 C 4.617188 -1.628906 4.632812 -1.539062 4.65625 -1.46875 C 4.675781 -1.4375 4.691406 -1.398438 4.703125 -1.359375 C 4.722656 -1.328125 4.757812 -1.289062 4.8125 -1.25 C 4.894531 -1.195312 5.0625 -1.171875 5.3125 -1.171875 L 5.421875 -1.171875 C 5.523438 -1.171875 5.617188 -1.160156 5.703125 -1.140625 C 5.785156 -1.117188 5.867188 -1.070312 5.953125 -1 C 6.109375 -0.882812 6.195312 -0.675781 6.21875 -0.375 L 6.21875 -0.34375 C 6.21875 -0.132812 6.164062 0.046875 6.0625 0.203125 C 6.007812 0.253906 5.953125 0.304688 5.890625 0.359375 C 5.828125 0.410156 5.753906 0.445312 5.671875 0.46875 C 5.597656 0.488281 5.523438 0.5 5.453125 0.5 L 5.4375 0.5 C 4.664062 0.46875 3.929688 0.453125 3.234375 0.453125 C 2.585938 0.453125 1.875 0.46875 1.09375 0.5 L 1.078125 0.5 C 0.816406 0.5 0.613281 0.398438 0.46875 0.203125 Z M 0.46875 0.203125 "/></g></g></g><g fill="#ffffff" fill-opacity="1"><g transform="translate(193.594072, 195.003306)"><g><path d="M 6.890625 0.09375 L 3.671875 -7.1875 L 3.671875 -5.859375 L 3.6875 -2.109375 C 3.707031 -1.816406 3.726562 -1.597656 3.75 -1.453125 C 3.78125 -1.367188 3.828125 -1.300781 3.890625 -1.25 C 3.972656 -1.195312 4.132812 -1.171875 4.375 -1.171875 L 4.484375 -1.171875 C 4.585938 -1.171875 4.679688 -1.160156 4.765625 -1.140625 C 4.847656 -1.117188 4.929688 -1.070312 5.015625 -1 C 5.171875 -0.882812 5.265625 -0.675781 5.296875 -0.375 L 5.296875 -0.34375 C 5.296875 -0.132812 5.238281 0.046875 5.125 0.203125 C 5.050781 0.296875 4.960938 0.367188 4.859375 0.421875 C 4.753906 0.472656 4.640625 0.5 4.515625 0.5 L 4.046875 0.484375 C 3.503906 0.460938 3.117188 0.453125 2.890625 0.453125 C 2.492188 0.453125 1.90625 0.46875 1.125 0.5 L 1.109375 0.5 C 0.847656 0.5 0.644531 0.398438 0.5 0.203125 C 0.4375 0.117188 0.394531 0.03125 0.375 -0.0625 C 0.351562 -0.15625 0.34375 -0.25 0.34375 -0.34375 L 0.34375 -0.375 C 0.34375 -0.375 0.34375 -0.382812 0.34375 -0.40625 C 0.363281 -0.71875 0.46875 -0.929688 0.65625 -1.046875 C 0.789062 -1.128906 0.984375 -1.171875 1.234375 -1.171875 C 1.367188 -1.171875 1.476562 -1.175781 1.5625 -1.1875 C 1.644531 -1.207031 1.695312 -1.226562 1.71875 -1.25 C 1.789062 -1.3125 1.835938 -1.375 1.859375 -1.4375 C 1.878906 -1.507812 1.894531 -1.601562 1.90625 -1.71875 C 1.914062 -1.84375 1.921875 -1.972656 1.921875 -2.109375 L 1.9375 -5.765625 L 1.953125 -9.21875 C 1.953125 -9.53125 1.921875 -9.742188 1.859375 -9.859375 C 1.828125 -9.941406 1.78125 -10.003906 1.71875 -10.046875 C 1.59375 -10.109375 1.390625 -10.160156 1.109375 -10.203125 L 1.109375 -10.21875 L 1.09375 -10.21875 C 1.082031 -10.21875 1.066406 -10.222656 1.046875 -10.234375 C 1.023438 -10.242188 1.003906 -10.25 0.984375 -10.25 C 0.960938 -10.25 0.929688 -10.253906 0.890625 -10.265625 C 0.671875 -10.304688 0.507812 -10.410156 0.40625 -10.578125 C 0.363281 -10.660156 0.335938 -10.738281 0.328125 -10.8125 C 0.316406 -10.882812 0.3125 -10.96875 0.3125 -11.0625 C 0.3125 -11.375 0.414062 -11.597656 0.625 -11.734375 C 0.78125 -11.828125 0.984375 -11.875 1.234375 -11.875 C 1.960938 -11.875 2.570312 -11.828125 3.0625 -11.734375 C 3.59375 -11.617188 4.054688 -11.40625 4.453125 -11.09375 C 4.859375 -10.78125 5.1875 -10.316406 5.4375 -9.703125 L 8.109375 -3.671875 L 9.125 -6.1875 L 11.28125 -11.484375 L 11.390625 -11.765625 L 12.71875 -11.765625 C 12.851562 -11.765625 12.984375 -11.765625 13.109375 -11.765625 C 13.242188 -11.765625 13.378906 -11.765625 13.515625 -11.765625 C 13.660156 -11.773438 13.800781 -11.78125 13.9375 -11.78125 C 14.082031 -11.78125 14.226562 -11.78125 14.375 -11.78125 C 14.519531 -11.789062 14.671875 -11.804688 14.828125 -11.828125 L 14.859375 -11.828125 C 15.117188 -11.828125 15.320312 -11.722656 15.46875 -11.515625 C 15.570312 -11.359375 15.625 -11.179688 15.625 -10.984375 L 15.625 -10.9375 C 15.601562 -10.601562 15.484375 -10.378906 15.265625 -10.265625 C 15.179688 -10.210938 15.097656 -10.179688 15.015625 -10.171875 C 14.941406 -10.160156 14.847656 -10.15625 14.734375 -10.15625 C 14.472656 -10.15625 14.300781 -10.117188 14.21875 -10.046875 C 14.132812 -9.992188 14.085938 -9.925781 14.078125 -9.84375 C 14.066406 -9.800781 14.054688 -9.742188 14.046875 -9.671875 C 14.035156 -9.609375 14.023438 -9.535156 14.015625 -9.453125 C 14.015625 -9.378906 14.015625 -9.300781 14.015625 -9.21875 L 14.015625 -2.09375 C 14.023438 -1.832031 14.046875 -1.625 14.078125 -1.46875 C 14.085938 -1.4375 14.101562 -1.398438 14.125 -1.359375 C 14.144531 -1.328125 14.175781 -1.289062 14.21875 -1.25 C 14.300781 -1.195312 14.472656 -1.171875 14.734375 -1.171875 L 14.828125 -1.171875 C 15.046875 -1.171875 15.222656 -1.113281 15.359375 -1 C 15.515625 -0.882812 15.601562 -0.675781 15.625 -0.375 L 15.625 -0.34375 C 15.625 -0.132812 15.570312 0.046875 15.46875 0.203125 C 15.414062 0.253906 15.351562 0.304688 15.28125 0.359375 C 15.21875 0.410156 15.144531 0.445312 15.0625 0.46875 C 14.988281 0.488281 14.921875 0.5 14.859375 0.5 L 14.828125 0.5 C 14.066406 0.46875 13.359375 0.453125 12.703125 0.453125 C 12.015625 0.453125 11.285156 0.46875 10.515625 0.5 L 10.5 0.5 C 10.226562 0.5 10.023438 0.398438 9.890625 0.203125 C 9.773438 0.046875 9.71875 -0.132812 9.71875 -0.34375 L 9.71875 -0.375 C 9.757812 -0.707031 9.867188 -0.929688 10.046875 -1.046875 C 10.179688 -1.128906 10.375 -1.171875 10.625 -1.171875 C 10.875 -1.171875 11.039062 -1.195312 11.125 -1.25 C 11.207031 -1.3125 11.253906 -1.382812 11.265625 -1.46875 C 11.296875 -1.625 11.320312 -1.832031 11.34375 -2.09375 L 11.34375 -7.046875 L 10.765625 -5.625 L 8.453125 0.078125 C 8.328125 0.378906 8.066406 0.53125 7.671875 0.53125 C 7.328125 0.53125 7.078125 0.398438 6.921875 0.140625 L 6.90625 0.125 Z M 6.890625 0.09375 "/></g></g></g><g fill="#ffffff" fill-opacity="1"><g transform="translate(209.53355, 195.003306)"><g><path d="M -0.5 0.203125 C -0.601562 0.046875 -0.65625 -0.132812 -0.65625 -0.34375 L -0.65625 -0.375 C -0.65625 -0.375 -0.65625 -0.382812 -0.65625 -0.40625 C -0.632812 -0.71875 -0.53125 -0.929688 -0.34375 -1.046875 C -0.207031 -1.128906 -0.0546875 -1.171875 0.109375 -1.171875 L 0.265625 -1.171875 C 0.492188 -1.171875 0.644531 -1.210938 0.71875 -1.296875 C 0.863281 -1.453125 0.976562 -1.617188 1.0625 -1.796875 C 1.070312 -1.835938 1.082031 -1.875 1.09375 -1.90625 C 1.113281 -1.945312 1.128906 -1.984375 1.140625 -2.015625 C 1.160156 -2.046875 1.175781 -2.070312 1.1875 -2.09375 C 1.195312 -2.125 1.203125 -2.148438 1.203125 -2.171875 C 1.210938 -2.191406 1.222656 -2.210938 1.234375 -2.234375 C 1.242188 -2.253906 1.25 -2.269531 1.25 -2.28125 L 1.6875 -3.296875 L 4.390625 -9.703125 C 4.441406 -9.828125 4.46875 -9.910156 4.46875 -9.953125 L 4.453125 -10.03125 C 4.316406 -10.101562 4.125 -10.160156 3.875 -10.203125 C 3.613281 -10.253906 3.425781 -10.320312 3.3125 -10.40625 C 3.144531 -10.53125 3.0625 -10.75 3.0625 -11.0625 C 3.0625 -11.375 3.171875 -11.597656 3.390625 -11.734375 C 3.546875 -11.828125 3.75 -11.875 4 -11.875 C 4.21875 -11.875 4.414062 -11.867188 4.59375 -11.859375 C 4.769531 -11.847656 4.9375 -11.832031 5.09375 -11.8125 C 5.25 -11.789062 5.398438 -11.765625 5.546875 -11.734375 C 5.972656 -11.609375 6.347656 -11.382812 6.671875 -11.0625 C 6.972656 -10.75 7.25 -10.289062 7.5 -9.6875 L 10.515625 -2.265625 C 10.679688 -1.835938 10.835938 -1.53125 10.984375 -1.34375 C 11.023438 -1.28125 11.078125 -1.234375 11.140625 -1.203125 C 11.203125 -1.179688 11.28125 -1.171875 11.375 -1.171875 L 11.484375 -1.171875 C 11.710938 -1.171875 11.890625 -1.109375 12.015625 -0.984375 C 12.035156 -0.972656 12.054688 -0.953125 12.078125 -0.921875 C 12.109375 -0.898438 12.128906 -0.878906 12.140625 -0.859375 C 12.148438 -0.847656 12.160156 -0.828125 12.171875 -0.796875 C 12.191406 -0.773438 12.203125 -0.753906 12.203125 -0.734375 C 12.210938 -0.722656 12.21875 -0.703125 12.21875 -0.671875 C 12.226562 -0.640625 12.234375 -0.617188 12.234375 -0.609375 C 12.242188 -0.597656 12.25 -0.578125 12.25 -0.546875 C 12.25 -0.515625 12.25 -0.492188 12.25 -0.484375 C 12.257812 -0.472656 12.265625 -0.453125 12.265625 -0.421875 C 12.265625 -0.398438 12.265625 -0.382812 12.265625 -0.375 L 12.265625 -0.34375 C 12.265625 -0.132812 12.210938 0.046875 12.109375 0.203125 C 12.054688 0.253906 12 0.304688 11.9375 0.359375 C 11.875 0.410156 11.800781 0.445312 11.71875 0.46875 C 11.644531 0.488281 11.570312 0.5 11.5 0.5 L 11.484375 0.5 C 10.710938 0.46875 10.0625 0.453125 9.53125 0.453125 C 8.820312 0.453125 8.082031 0.46875 7.3125 0.5 L 7.296875 0.5 C 7.222656 0.5 7.144531 0.488281 7.0625 0.46875 C 6.988281 0.445312 6.921875 0.410156 6.859375 0.359375 C 6.796875 0.304688 6.738281 0.253906 6.6875 0.203125 C 6.625 0.117188 6.582031 0.03125 6.5625 -0.0625 C 6.539062 -0.15625 6.53125 -0.25 6.53125 -0.34375 L 6.53125 -0.375 C 6.550781 -0.664062 6.632812 -0.867188 6.78125 -0.984375 C 6.914062 -1.109375 7.09375 -1.171875 7.3125 -1.171875 C 7.632812 -1.171875 7.859375 -1.191406 7.984375 -1.234375 C 7.984375 -1.242188 7.984375 -1.25 7.984375 -1.25 C 7.984375 -1.269531 7.976562 -1.304688 7.96875 -1.359375 C 7.957031 -1.421875 7.9375 -1.503906 7.90625 -1.609375 C 7.875 -1.722656 7.835938 -1.832031 7.796875 -1.9375 L 7.296875 -3.140625 L 3.484375 -3.140625 C 3.359375 -2.847656 3.265625 -2.617188 3.203125 -2.453125 C 3.140625 -2.296875 3.097656 -2.195312 3.078125 -2.15625 C 3.066406 -2.125 3.054688 -2.085938 3.046875 -2.046875 C 3.046875 -2.023438 3.039062 -2.003906 3.03125 -1.984375 C 3.03125 -1.972656 3.03125 -1.960938 3.03125 -1.953125 C 2.96875 -1.785156 2.914062 -1.632812 2.875 -1.5 C 2.84375 -1.363281 2.828125 -1.273438 2.828125 -1.234375 C 2.984375 -1.191406 3.265625 -1.171875 3.671875 -1.171875 L 3.78125 -1.171875 C 4.007812 -1.171875 4.191406 -1.109375 4.328125 -0.984375 C 4.460938 -0.867188 4.546875 -0.664062 4.578125 -0.375 L 4.578125 -0.34375 C 4.578125 -0.132812 4.519531 0.046875 4.40625 0.203125 C 4.34375 0.296875 4.253906 0.367188 4.140625 0.421875 C 4.035156 0.472656 3.921875 0.5 3.796875 0.5 L 3.78125 0.5 C 3.394531 0.476562 3.039062 0.460938 2.71875 0.453125 C 2.394531 0.453125 2.101562 0.453125 1.84375 0.453125 C 1.476562 0.453125 0.90625 0.46875 0.125 0.5 L 0.109375 0.5 C -0.148438 0.5 -0.351562 0.398438 -0.5 0.203125 Z M 4.171875 -4.8125 L 6.625 -4.8125 L 5.4375 -7.84375 Z M 4.171875 -4.8125 "/></g></g></g><g fill="#ffffff" fill-opacity="1"><g transform="translate(221.241623, 195.003306)"><g><path d="M 0.484375 0.203125 C 0.421875 0.117188 0.378906 0.03125 0.359375 -0.0625 C 0.335938 -0.15625 0.328125 -0.25 0.328125 -0.34375 L 0.328125 -0.375 C 0.328125 -0.375 0.328125 -0.382812 0.328125 -0.40625 C 0.347656 -0.71875 0.453125 -0.929688 0.640625 -1.046875 C 0.773438 -1.128906 0.96875 -1.171875 1.21875 -1.171875 C 1.46875 -1.171875 1.632812 -1.195312 1.71875 -1.25 C 1.800781 -1.3125 1.847656 -1.382812 1.859375 -1.46875 C 1.898438 -1.625 1.925781 -1.832031 1.9375 -2.09375 L 1.9375 -9.203125 C 1.925781 -9.472656 1.898438 -9.679688 1.859375 -9.828125 C 1.847656 -9.910156 1.800781 -9.984375 1.71875 -10.046875 C 1.6875 -10.066406 1.628906 -10.085938 1.546875 -10.109375 C 1.460938 -10.140625 1.351562 -10.15625 1.21875 -10.15625 L 1.109375 -10.15625 C 1.066406 -10.15625 1.023438 -10.15625 0.984375 -10.15625 C 0.953125 -10.164062 0.90625 -10.171875 0.84375 -10.171875 C 0.789062 -10.179688 0.738281 -10.195312 0.6875 -10.21875 C 0.644531 -10.25 0.609375 -10.285156 0.578125 -10.328125 C 0.546875 -10.335938 0.519531 -10.351562 0.5 -10.375 C 0.476562 -10.40625 0.460938 -10.425781 0.453125 -10.4375 C 0.441406 -10.457031 0.425781 -10.476562 0.40625 -10.5 C 0.394531 -10.53125 0.382812 -10.550781 0.375 -10.5625 C 0.375 -10.582031 0.367188 -10.609375 0.359375 -10.640625 C 0.359375 -10.671875 0.351562 -10.691406 0.34375 -10.703125 C 0.34375 -10.722656 0.34375 -10.742188 0.34375 -10.765625 C 0.34375 -10.796875 0.335938 -10.816406 0.328125 -10.828125 C 0.328125 -10.847656 0.328125 -10.867188 0.328125 -10.890625 C 0.328125 -10.910156 0.328125 -10.925781 0.328125 -10.9375 L 0.328125 -10.984375 C 0.335938 -11.179688 0.390625 -11.359375 0.484375 -11.515625 C 0.535156 -11.578125 0.59375 -11.628906 0.65625 -11.671875 C 0.71875 -11.722656 0.785156 -11.757812 0.859375 -11.78125 C 0.941406 -11.8125 1.019531 -11.828125 1.09375 -11.828125 L 1.109375 -11.828125 C 1.492188 -11.796875 1.863281 -11.773438 2.21875 -11.765625 C 2.570312 -11.765625 2.910156 -11.765625 3.234375 -11.765625 L 6.3125 -11.765625 C 7.300781 -11.753906 8.132812 -11.59375 8.8125 -11.28125 C 8.9375 -11.21875 9.054688 -11.15625 9.171875 -11.09375 C 9.296875 -11.03125 9.414062 -10.957031 9.53125 -10.875 C 9.644531 -10.789062 9.75 -10.707031 9.84375 -10.625 C 9.9375 -10.539062 10.023438 -10.445312 10.109375 -10.34375 C 10.203125 -10.25 10.28125 -10.148438 10.34375 -10.046875 C 10.6875 -9.535156 10.859375 -8.984375 10.859375 -8.390625 C 10.859375 -8.015625 10.78125 -7.644531 10.625 -7.28125 C 10.46875 -6.925781 10.242188 -6.59375 9.953125 -6.28125 C 9.835938 -6.15625 9.707031 -6.035156 9.5625 -5.921875 C 9.425781 -5.816406 9.285156 -5.710938 9.140625 -5.609375 C 8.992188 -5.515625 8.84375 -5.425781 8.6875 -5.34375 C 8.53125 -5.269531 8.359375 -5.203125 8.171875 -5.140625 C 8.679688 -4.328125 9.132812 -3.640625 9.53125 -3.078125 C 9.914062 -2.535156 10.335938 -2.019531 10.796875 -1.53125 C 10.929688 -1.414062 11.0625 -1.332031 11.1875 -1.28125 C 11.320312 -1.226562 11.460938 -1.191406 11.609375 -1.171875 C 11.640625 -1.171875 11.691406 -1.160156 11.765625 -1.140625 C 11.972656 -1.128906 12.140625 -1.054688 12.265625 -0.921875 C 12.335938 -0.835938 12.390625 -0.742188 12.421875 -0.640625 C 12.453125 -0.546875 12.46875 -0.445312 12.46875 -0.34375 C 12.46875 -0.132812 12.414062 0.046875 12.3125 0.203125 C 12.28125 0.222656 12.253906 0.242188 12.234375 0.265625 C 12.210938 0.296875 12.1875 0.320312 12.15625 0.34375 C 12.132812 0.363281 12.109375 0.382812 12.078125 0.40625 C 12.046875 0.425781 12.015625 0.441406 11.984375 0.453125 C 11.960938 0.460938 11.929688 0.46875 11.890625 0.46875 C 11.859375 0.476562 11.820312 0.484375 11.78125 0.484375 C 11.75 0.492188 11.71875 0.5 11.6875 0.5 L 11.203125 0.484375 C 10.679688 0.460938 10.304688 0.453125 10.078125 0.453125 L 9.984375 0.453125 C 9.453125 0.328125 8.988281 0.128906 8.59375 -0.140625 C 8.457031 -0.234375 8.328125 -0.335938 8.203125 -0.453125 C 8.078125 -0.578125 7.953125 -0.707031 7.828125 -0.84375 C 7.710938 -0.988281 7.597656 -1.140625 7.484375 -1.296875 C 7.117188 -1.753906 6.628906 -2.503906 6.015625 -3.546875 L 5.6875 -4.078125 C 5.644531 -4.117188 5.609375 -4.160156 5.578125 -4.203125 C 5.554688 -4.242188 5.53125 -4.28125 5.5 -4.3125 C 5.476562 -4.34375 5.457031 -4.367188 5.4375 -4.390625 C 5.414062 -4.421875 5.390625 -4.441406 5.359375 -4.453125 C 5.335938 -4.460938 5.320312 -4.472656 5.3125 -4.484375 C 5.21875 -4.546875 5.007812 -4.578125 4.6875 -4.578125 L 4.609375 -4.578125 L 4.609375 -2.09375 C 4.617188 -1.957031 4.625 -1.835938 4.625 -1.734375 C 4.632812 -1.628906 4.65625 -1.539062 4.6875 -1.46875 C 4.695312 -1.4375 4.707031 -1.398438 4.71875 -1.359375 C 4.738281 -1.328125 4.773438 -1.289062 4.828125 -1.25 C 4.910156 -1.195312 5.078125 -1.171875 5.328125 -1.171875 L 5.4375 -1.171875 C 5.53125 -1.171875 5.617188 -1.15625 5.703125 -1.125 C 5.785156 -1.101562 5.867188 -1.0625 5.953125 -1 C 6.109375 -0.882812 6.195312 -0.675781 6.21875 -0.375 L 6.21875 -0.34375 C 6.21875 -0.132812 6.164062 0.046875 6.0625 0.203125 C 6.007812 0.253906 5.953125 0.304688 5.890625 0.359375 C 5.828125 0.410156 5.753906 0.445312 5.671875 0.46875 C 5.597656 0.488281 5.523438 0.5 5.453125 0.5 L 5.4375 0.5 C 4.664062 0.46875 3.921875 0.453125 3.203125 0.453125 C 2.585938 0.453125 1.890625 0.46875 1.109375 0.5 L 1.09375 0.5 C 0.832031 0.5 0.628906 0.398438 0.484375 0.203125 Z M 5.734375 -6.171875 C 6.523438 -6.171875 7.09375 -6.332031 7.4375 -6.65625 C 7.789062 -6.976562 7.96875 -7.503906 7.96875 -8.234375 C 7.96875 -8.796875 7.773438 -9.265625 7.390625 -9.640625 C 7.015625 -10.015625 6.359375 -10.203125 5.421875 -10.203125 C 5.140625 -10.203125 4.941406 -10.171875 4.828125 -10.109375 C 4.753906 -10.085938 4.707031 -10.035156 4.6875 -9.953125 C 4.65625 -9.890625 4.632812 -9.785156 4.625 -9.640625 C 4.613281 -9.503906 4.609375 -9.347656 4.609375 -9.171875 L 4.609375 -6.171875 Z M 5.734375 -6.171875 "/></g></g></g><g fill="#ffffff" fill-opacity="1"><g transform="translate(233.272437, 195.003306)"><g><path d="M -0.5 0.203125 C -0.601562 0.046875 -0.65625 -0.132812 -0.65625 -0.34375 L -0.65625 -0.375 C -0.65625 -0.375 -0.65625 -0.382812 -0.65625 -0.40625 C -0.632812 -0.71875 -0.53125 -0.929688 -0.34375 -1.046875 C -0.207031 -1.128906 -0.0546875 -1.171875 0.109375 -1.171875 L 0.265625 -1.171875 C 0.492188 -1.171875 0.644531 -1.210938 0.71875 -1.296875 C 0.863281 -1.453125 0.976562 -1.617188 1.0625 -1.796875 C 1.070312 -1.835938 1.082031 -1.875 1.09375 -1.90625 C 1.113281 -1.945312 1.128906 -1.984375 1.140625 -2.015625 C 1.160156 -2.046875 1.175781 -2.070312 1.1875 -2.09375 C 1.195312 -2.125 1.203125 -2.148438 1.203125 -2.171875 C 1.210938 -2.191406 1.222656 -2.210938 1.234375 -2.234375 C 1.242188 -2.253906 1.25 -2.269531 1.25 -2.28125 L 1.6875 -3.296875 L 4.390625 -9.703125 C 4.441406 -9.828125 4.46875 -9.910156 4.46875 -9.953125 L 4.453125 -10.03125 C 4.316406 -10.101562 4.125 -10.160156 3.875 -10.203125 C 3.613281 -10.253906 3.425781 -10.320312 3.3125 -10.40625 C 3.144531 -10.53125 3.0625 -10.75 3.0625 -11.0625 C 3.0625 -11.375 3.171875 -11.597656 3.390625 -11.734375 C 3.546875 -11.828125 3.75 -11.875 4 -11.875 C 4.21875 -11.875 4.414062 -11.867188 4.59375 -11.859375 C 4.769531 -11.847656 4.9375 -11.832031 5.09375 -11.8125 C 5.25 -11.789062 5.398438 -11.765625 5.546875 -11.734375 C 5.972656 -11.609375 6.347656 -11.382812 6.671875 -11.0625 C 6.972656 -10.75 7.25 -10.289062 7.5 -9.6875 L 10.515625 -2.265625 C 10.679688 -1.835938 10.835938 -1.53125 10.984375 -1.34375 C 11.023438 -1.28125 11.078125 -1.234375 11.140625 -1.203125 C 11.203125 -1.179688 11.28125 -1.171875 11.375 -1.171875 L 11.484375 -1.171875 C 11.710938 -1.171875 11.890625 -1.109375 12.015625 -0.984375 C 12.035156 -0.972656 12.054688 -0.953125 12.078125 -0.921875 C 12.109375 -0.898438 12.128906 -0.878906 12.140625 -0.859375 C 12.148438 -0.847656 12.160156 -0.828125 12.171875 -0.796875 C 12.191406 -0.773438 12.203125 -0.753906 12.203125 -0.734375 C 12.210938 -0.722656 12.21875 -0.703125 12.21875 -0.671875 C 12.226562 -0.640625 12.234375 -0.617188 12.234375 -0.609375 C 12.242188 -0.597656 12.25 -0.578125 12.25 -0.546875 C 12.25 -0.515625 12.25 -0.492188 12.25 -0.484375 C 12.257812 -0.472656 12.265625 -0.453125 12.265625 -0.421875 C 12.265625 -0.398438 12.265625 -0.382812 12.265625 -0.375 L 12.265625 -0.34375 C 12.265625 -0.132812 12.210938 0.046875 12.109375 0.203125 C 12.054688 0.253906 12 0.304688 11.9375 0.359375 C 11.875 0.410156 11.800781 0.445312 11.71875 0.46875 C 11.644531 0.488281 11.570312 0.5 11.5 0.5 L 11.484375 0.5 C 10.710938 0.46875 10.0625 0.453125 9.53125 0.453125 C 8.820312 0.453125 8.082031 0.46875 7.3125 0.5 L 7.296875 0.5 C 7.222656 0.5 7.144531 0.488281 7.0625 0.46875 C 6.988281 0.445312 6.921875 0.410156 6.859375 0.359375 C 6.796875 0.304688 6.738281 0.253906 6.6875 0.203125 C 6.625 0.117188 6.582031 0.03125 6.5625 -0.0625 C 6.539062 -0.15625 6.53125 -0.25 6.53125 -0.34375 L 6.53125 -0.375 C 6.550781 -0.664062 6.632812 -0.867188 6.78125 -0.984375 C 6.914062 -1.109375 7.09375 -1.171875 7.3125 -1.171875 C 7.632812 -1.171875 7.859375 -1.191406 7.984375 -1.234375 C 7.984375 -1.242188 7.984375 -1.25 7.984375 -1.25 C 7.984375 -1.269531 7.976562 -1.304688 7.96875 -1.359375 C 7.957031 -1.421875 7.9375 -1.503906 7.90625 -1.609375 C 7.875 -1.722656 7.835938 -1.832031 7.796875 -1.9375 L 7.296875 -3.140625 L 3.484375 -3.140625 C 3.359375 -2.847656 3.265625 -2.617188 3.203125 -2.453125 C 3.140625 -2.296875 3.097656 -2.195312 3.078125 -2.15625 C 3.066406 -2.125 3.054688 -2.085938 3.046875 -2.046875 C 3.046875 -2.023438 3.039062 -2.003906 3.03125 -1.984375 C 3.03125 -1.972656 3.03125 -1.960938 3.03125 -1.953125 C 2.96875 -1.785156 2.914062 -1.632812 2.875 -1.5 C 2.84375 -1.363281 2.828125 -1.273438 2.828125 -1.234375 C 2.984375 -1.191406 3.265625 -1.171875 3.671875 -1.171875 L 3.78125 -1.171875 C 4.007812 -1.171875 4.191406 -1.109375 4.328125 -0.984375 C 4.460938 -0.867188 4.546875 -0.664062 4.578125 -0.375 L 4.578125 -0.34375 C 4.578125 -0.132812 4.519531 0.046875 4.40625 0.203125 C 4.34375 0.296875 4.253906 0.367188 4.140625 0.421875 C 4.035156 0.472656 3.921875 0.5 3.796875 0.5 L 3.78125 0.5 C 3.394531 0.476562 3.039062 0.460938 2.71875 0.453125 C 2.394531 0.453125 2.101562 0.453125 1.84375 0.453125 C 1.476562 0.453125 0.90625 0.46875 0.125 0.5 L 0.109375 0.5 C -0.148438 0.5 -0.351562 0.398438 -0.5 0.203125 Z M 4.171875 -4.8125 L 6.625 -4.8125 L 5.4375 -7.84375 Z M 5.625 -12.21875 C 5.550781 -12.257812 5.472656 -12.304688 5.390625 -12.359375 C 5.304688 -12.410156 5.222656 -12.460938 5.140625 -12.515625 C 5.066406 -12.578125 4.976562 -12.640625 4.875 -12.703125 C 4.726562 -12.828125 4.597656 -12.925781 4.484375 -13 C 4.472656 -13 4.457031 -13.003906 4.4375 -13.015625 C 4.425781 -13.035156 4.410156 -13.046875 4.390625 -13.046875 C 4.367188 -13.046875 4.351562 -13.046875 4.34375 -13.046875 C 4.3125 -13.046875 4.265625 -13.035156 4.203125 -13.015625 C 4.140625 -12.992188 4.066406 -12.960938 3.984375 -12.921875 C 3.804688 -12.804688 3.628906 -12.648438 3.453125 -12.453125 L 3.421875 -12.4375 L 3.421875 -12.40625 C 3.234375 -12.226562 3.019531 -12.140625 2.78125 -12.140625 C 2.53125 -12.140625 2.320312 -12.242188 2.15625 -12.453125 C 2.101562 -12.523438 2.0625 -12.601562 2.03125 -12.6875 C 2.007812 -12.78125 2 -12.867188 2 -12.953125 C 2.007812 -13.046875 2.03125 -13.132812 2.0625 -13.21875 C 2.15625 -13.476562 2.28125 -13.71875 2.4375 -13.9375 C 2.59375 -14.164062 2.78125 -14.367188 3 -14.546875 C 3.457031 -14.941406 3.976562 -15.140625 4.5625 -15.140625 L 4.578125 -15.140625 C 4.910156 -15.128906 5.195312 -15.054688 5.4375 -14.921875 C 5.5 -14.898438 5.554688 -14.867188 5.609375 -14.828125 C 5.660156 -14.796875 5.71875 -14.757812 5.78125 -14.71875 C 5.851562 -14.675781 5.914062 -14.628906 5.96875 -14.578125 C 6.03125 -14.535156 6.097656 -14.488281 6.171875 -14.4375 L 6.1875 -14.421875 C 6.238281 -14.367188 6.285156 -14.328125 6.328125 -14.296875 C 6.378906 -14.265625 6.421875 -14.234375 6.453125 -14.203125 C 6.492188 -14.179688 6.53125 -14.160156 6.5625 -14.140625 C 6.59375 -14.117188 6.617188 -14.101562 6.640625 -14.09375 C 6.660156 -14.09375 6.6875 -14.09375 6.71875 -14.09375 C 6.75 -14.09375 6.796875 -14.101562 6.859375 -14.125 C 6.929688 -14.144531 7.007812 -14.175781 7.09375 -14.21875 C 7.269531 -14.332031 7.445312 -14.488281 7.625 -14.6875 L 7.640625 -14.703125 L 7.640625 -14.734375 C 7.835938 -14.910156 8.039062 -15 8.25 -15 C 8.34375 -15 8.4375 -14.976562 8.53125 -14.9375 C 8.632812 -14.90625 8.722656 -14.851562 8.796875 -14.78125 C 8.878906 -14.71875 8.941406 -14.632812 8.984375 -14.53125 C 9.023438 -14.4375 9.046875 -14.332031 9.046875 -14.21875 C 9.046875 -14.09375 9.007812 -13.945312 8.9375 -13.78125 C 8.71875 -13.3125 8.410156 -12.910156 8.015625 -12.578125 C 7.878906 -12.441406 7.726562 -12.332031 7.5625 -12.25 C 7.40625 -12.164062 7.238281 -12.101562 7.0625 -12.0625 C 6.882812 -12.019531 6.703125 -12 6.515625 -12 L 6.5 -12 C 6.164062 -12.007812 5.875 -12.082031 5.625 -12.21875 Z M 5.625 -12.21875 "/></g></g></g><g fill="#ffffff" fill-opacity="1"><g transform="translate(244.980511, 195.003306)"><g><path d="M 0.484375 0.203125 C 0.421875 0.117188 0.378906 0.03125 0.359375 -0.0625 C 0.335938 -0.15625 0.328125 -0.25 0.328125 -0.34375 L 0.328125 -0.375 C 0.328125 -0.375 0.328125 -0.382812 0.328125 -0.40625 C 0.347656 -0.71875 0.453125 -0.929688 0.640625 -1.046875 C 0.773438 -1.128906 0.96875 -1.171875 1.21875 -1.171875 C 1.46875 -1.171875 1.632812 -1.195312 1.71875 -1.25 C 1.800781 -1.3125 1.847656 -1.382812 1.859375 -1.46875 C 1.898438 -1.625 1.925781 -1.832031 1.9375 -2.09375 L 1.9375 -9.21875 C 1.925781 -9.476562 1.898438 -9.6875 1.859375 -9.84375 C 1.859375 -9.875 1.851562 -9.898438 1.84375 -9.921875 C 1.832031 -9.941406 1.816406 -9.960938 1.796875 -9.984375 C 1.785156 -10.015625 1.757812 -10.035156 1.71875 -10.046875 C 1.632812 -10.117188 1.46875 -10.15625 1.21875 -10.15625 L 1.109375 -10.15625 C 1.066406 -10.15625 1.023438 -10.15625 0.984375 -10.15625 C 0.953125 -10.164062 0.90625 -10.171875 0.84375 -10.171875 C 0.789062 -10.179688 0.738281 -10.195312 0.6875 -10.21875 C 0.644531 -10.25 0.609375 -10.285156 0.578125 -10.328125 C 0.546875 -10.335938 0.519531 -10.351562 0.5 -10.375 C 0.476562 -10.40625 0.460938 -10.425781 0.453125 -10.4375 C 0.441406 -10.457031 0.425781 -10.476562 0.40625 -10.5 C 0.394531 -10.53125 0.382812 -10.550781 0.375 -10.5625 C 0.375 -10.582031 0.367188 -10.609375 0.359375 -10.640625 C 0.359375 -10.671875 0.351562 -10.691406 0.34375 -10.703125 C 0.34375 -10.722656 0.34375 -10.742188 0.34375 -10.765625 C 0.34375 -10.796875 0.335938 -10.816406 0.328125 -10.828125 C 0.328125 -10.847656 0.328125 -10.867188 0.328125 -10.890625 C 0.328125 -10.910156 0.328125 -10.925781 0.328125 -10.9375 L 0.328125 -10.984375 C 0.335938 -11.179688 0.390625 -11.359375 0.484375 -11.515625 C 0.546875 -11.609375 0.628906 -11.679688 0.734375 -11.734375 C 0.835938 -11.796875 0.953125 -11.828125 1.078125 -11.828125 L 1.09375 -11.828125 C 1.882812 -11.785156 2.585938 -11.765625 3.203125 -11.765625 L 8.84375 -11.765625 C 8.976562 -11.765625 9.097656 -11.742188 9.203125 -11.703125 C 9.316406 -11.671875 9.425781 -11.609375 9.53125 -11.515625 C 9.6875 -11.359375 9.765625 -11.148438 9.765625 -10.890625 L 9.8125 -8.375 C 9.8125 -8.101562 9.6875 -7.890625 9.4375 -7.734375 C 9.257812 -7.617188 9.070312 -7.5625 8.875 -7.5625 C 8.84375 -7.5625 8.8125 -7.5625 8.78125 -7.5625 C 8.75 -7.5625 8.710938 -7.566406 8.671875 -7.578125 C 8.640625 -7.585938 8.609375 -7.59375 8.578125 -7.59375 C 8.546875 -7.601562 8.515625 -7.613281 8.484375 -7.625 C 8.460938 -7.632812 8.429688 -7.644531 8.390625 -7.65625 C 8.359375 -7.664062 8.332031 -7.675781 8.3125 -7.6875 C 8.070312 -7.8125 7.925781 -8.003906 7.875 -8.265625 C 7.789062 -8.828125 7.695312 -9.25 7.59375 -9.53125 C 7.507812 -9.738281 7.398438 -9.890625 7.265625 -9.984375 C 7.109375 -10.085938 6.875 -10.144531 6.5625 -10.15625 L 4.609375 -10.15625 L 4.609375 -6.5 L 7.484375 -6.5 C 7.691406 -6.457031 7.859375 -6.34375 7.984375 -6.15625 C 8.078125 -6 8.125 -5.820312 8.125 -5.625 C 8.125 -5.582031 8.117188 -5.539062 8.109375 -5.5 C 8.109375 -5.457031 8.101562 -5.414062 8.09375 -5.375 C 8.082031 -5.332031 8.066406 -5.289062 8.046875 -5.25 C 8.023438 -5.207031 8.003906 -5.164062 7.984375 -5.125 C 7.921875 -5.03125 7.832031 -4.957031 7.71875 -4.90625 C 7.613281 -4.851562 7.507812 -4.828125 7.40625 -4.828125 L 4.609375 -4.828125 L 4.609375 -1.90625 C 4.628906 -1.6875 4.65625 -1.507812 4.6875 -1.375 C 4.695312 -1.34375 4.742188 -1.300781 4.828125 -1.25 C 4.921875 -1.175781 5.117188 -1.148438 5.421875 -1.171875 L 7.0625 -1.171875 C 7.25 -1.179688 7.398438 -1.195312 7.515625 -1.21875 C 7.628906 -1.238281 7.71875 -1.269531 7.78125 -1.3125 C 7.925781 -1.394531 8.039062 -1.523438 8.125 -1.703125 C 8.175781 -1.804688 8.238281 -1.960938 8.3125 -2.171875 C 8.394531 -2.390625 8.476562 -2.640625 8.5625 -2.921875 L 8.5625 -2.9375 L 8.578125 -2.953125 C 8.660156 -3.171875 8.800781 -3.320312 9 -3.40625 C 9.207031 -3.5 9.429688 -3.53125 9.671875 -3.5 L 9.6875 -3.5 C 9.78125 -3.476562 9.867188 -3.445312 9.953125 -3.40625 C 10.035156 -3.363281 10.113281 -3.316406 10.1875 -3.265625 C 10.28125 -3.179688 10.351562 -3.078125 10.40625 -2.953125 C 10.46875 -2.835938 10.488281 -2.710938 10.46875 -2.578125 L 10.46875 -2.5625 L 10.109375 -0.3125 L 10.109375 -0.28125 L 10.09375 -0.265625 C 10.070312 -0.148438 10.035156 -0.046875 9.984375 0.046875 C 9.941406 0.148438 9.867188 0.238281 9.765625 0.3125 C 9.617188 0.40625 9.410156 0.453125 9.140625 0.453125 L 3.234375 0.453125 C 2.910156 0.453125 2.570312 0.453125 2.21875 0.453125 C 1.863281 0.460938 1.488281 0.476562 1.09375 0.5 L 1.078125 0.5 C 0.828125 0.5 0.628906 0.398438 0.484375 0.203125 Z M 0.484375 0.203125 "/></g></g></g><g fill="#ffffff" fill-opacity="1"><g transform="translate(255.630734, 195.003306)"><g><path d="M 1.625 0.078125 C 0.832031 -0.453125 0.4375 -1.21875 0.4375 -2.21875 C 0.4375 -2.78125 0.625 -3.25 1 -3.625 C 1.382812 -3.976562 1.875 -4.15625 2.46875 -4.15625 C 2.59375 -4.15625 2.703125 -4.144531 2.796875 -4.125 C 2.898438 -4.101562 3.003906 -4.066406 3.109375 -4.015625 C 3.210938 -3.972656 3.300781 -3.914062 3.375 -3.84375 C 3.488281 -3.738281 3.578125 -3.632812 3.640625 -3.53125 C 3.710938 -3.425781 3.75 -3.300781 3.75 -3.15625 C 3.75 -3.082031 3.742188 -3.015625 3.734375 -2.953125 C 3.722656 -2.898438 3.703125 -2.851562 3.671875 -2.8125 C 3.648438 -2.78125 3.625 -2.75 3.59375 -2.71875 C 3.5625 -2.695312 3.53125 -2.679688 3.5 -2.671875 C 3.476562 -2.671875 3.457031 -2.664062 3.4375 -2.65625 C 3.414062 -2.65625 3.394531 -2.65625 3.375 -2.65625 C 3.363281 -2.65625 3.359375 -2.65625 3.359375 -2.65625 C 3.296875 -2.601562 3.234375 -2.535156 3.171875 -2.453125 C 3.128906 -2.378906 3.109375 -2.265625 3.109375 -2.109375 C 3.109375 -1.679688 3.226562 -1.359375 3.46875 -1.140625 C 3.726562 -0.921875 4.15625 -0.8125 4.75 -0.8125 C 5.164062 -0.8125 5.53125 -0.890625 5.84375 -1.046875 C 6.132812 -1.203125 6.359375 -1.40625 6.515625 -1.65625 C 6.671875 -1.894531 6.75 -2.144531 6.75 -2.40625 C 6.75 -2.726562 6.65625 -3.007812 6.46875 -3.25 C 6.257812 -3.507812 6 -3.726562 5.6875 -3.90625 C 5.519531 -4 5.316406 -4.101562 5.078125 -4.21875 C 4.835938 -4.34375 4.566406 -4.472656 4.265625 -4.609375 C 3.523438 -4.941406 2.925781 -5.25 2.46875 -5.53125 C 1.976562 -5.8125 1.5625 -6.195312 1.21875 -6.6875 C 0.84375 -7.207031 0.65625 -7.835938 0.65625 -8.578125 C 0.65625 -9.160156 0.757812 -9.675781 0.96875 -10.125 C 1.1875 -10.582031 1.503906 -10.960938 1.921875 -11.265625 C 2.316406 -11.546875 2.769531 -11.757812 3.28125 -11.90625 C 3.789062 -12.050781 4.359375 -12.125 4.984375 -12.125 C 5.972656 -12.125 6.84375 -11.914062 7.59375 -11.5 C 8.414062 -11.03125 8.828125 -10.335938 8.828125 -9.421875 C 8.828125 -8.859375 8.632812 -8.390625 8.25 -8.015625 C 8.113281 -7.898438 7.96875 -7.800781 7.8125 -7.71875 C 7.664062 -7.644531 7.503906 -7.585938 7.328125 -7.546875 C 7.160156 -7.503906 6.976562 -7.484375 6.78125 -7.484375 C 6.394531 -7.492188 6.097656 -7.597656 5.890625 -7.796875 C 5.628906 -8.015625 5.5 -8.242188 5.5 -8.484375 C 5.5 -8.660156 5.539062 -8.789062 5.625 -8.875 C 5.71875 -8.96875 5.804688 -9.015625 5.890625 -9.015625 L 6.015625 -9.015625 C 6.117188 -9.066406 6.210938 -9.132812 6.296875 -9.21875 C 6.347656 -9.28125 6.375 -9.382812 6.375 -9.53125 C 6.375 -9.6875 6.34375 -9.816406 6.28125 -9.921875 C 6.226562 -10.023438 6.148438 -10.117188 6.046875 -10.203125 C 5.910156 -10.296875 5.757812 -10.367188 5.59375 -10.421875 C 5.425781 -10.472656 5.226562 -10.5 5 -10.5 C 4.675781 -10.5 4.40625 -10.460938 4.1875 -10.390625 C 3.96875 -10.316406 3.785156 -10.21875 3.640625 -10.09375 C 3.492188 -9.96875 3.390625 -9.828125 3.328125 -9.671875 C 3.265625 -9.523438 3.234375 -9.359375 3.234375 -9.171875 C 3.234375 -8.859375 3.3125 -8.597656 3.46875 -8.390625 C 3.65625 -8.160156 3.976562 -7.921875 4.4375 -7.671875 C 4.5625 -7.597656 4.691406 -7.53125 4.828125 -7.46875 C 4.972656 -7.40625 5.117188 -7.335938 5.265625 -7.265625 C 5.410156 -7.191406 5.5625 -7.117188 5.71875 -7.046875 C 6.113281 -6.867188 6.46875 -6.695312 6.78125 -6.53125 C 7.09375 -6.375 7.367188 -6.21875 7.609375 -6.0625 C 8.109375 -5.738281 8.523438 -5.320312 8.859375 -4.8125 C 9.222656 -4.257812 9.40625 -3.59375 9.40625 -2.8125 C 9.40625 -2.113281 9.179688 -1.484375 8.734375 -0.921875 C 8.316406 -0.378906 7.75 0.046875 7.03125 0.359375 C 6.40625 0.628906 5.722656 0.78125 4.984375 0.8125 C 4.910156 0.8125 4.832031 0.8125 4.75 0.8125 C 3.414062 0.8125 2.375 0.566406 1.625 0.078125 Z M 1.625 0.078125 "/></g></g></g><g fill="#ffffff" fill-opacity="1"><g transform="translate(160.218385, 210.422484)"><g><path d="M 3.46875 -3.90625 C 3.445312 -4.164062 3.328125 -4.363281 3.109375 -4.5 C 2.890625 -4.644531 2.625 -4.71875 2.3125 -4.71875 C 1.96875 -4.71875 1.6875 -4.632812 1.46875 -4.46875 C 1.257812 -4.300781 1.15625 -4.097656 1.15625 -3.859375 C 1.15625 -3.671875 1.210938 -3.519531 1.328125 -3.40625 C 1.441406 -3.289062 1.578125 -3.203125 1.734375 -3.140625 C 1.890625 -3.078125 2.035156 -3.023438 2.171875 -2.984375 L 2.6875 -2.84375 C 2.820312 -2.8125 2.972656 -2.765625 3.140625 -2.703125 C 3.304688 -2.640625 3.46875 -2.550781 3.625 -2.4375 C 3.78125 -2.332031 3.90625 -2.195312 4 -2.03125 C 4.101562 -1.863281 4.15625 -1.65625 4.15625 -1.40625 C 4.15625 -1.125 4.082031 -0.867188 3.9375 -0.640625 C 3.789062 -0.421875 3.578125 -0.242188 3.296875 -0.109375 C 3.015625 0.0234375 2.675781 0.09375 2.28125 0.09375 C 1.71875 0.09375 1.269531 -0.0351562 0.9375 -0.296875 C 0.613281 -0.566406 0.4375 -0.914062 0.40625 -1.34375 L 1.0625 -1.34375 C 1.070312 -1.144531 1.132812 -0.976562 1.25 -0.84375 C 1.375 -0.71875 1.523438 -0.625 1.703125 -0.5625 C 1.878906 -0.507812 2.070312 -0.484375 2.28125 -0.484375 C 2.519531 -0.484375 2.734375 -0.519531 2.921875 -0.59375 C 3.117188 -0.675781 3.269531 -0.785156 3.375 -0.921875 C 3.488281 -1.066406 3.546875 -1.234375 3.546875 -1.421875 C 3.546875 -1.597656 3.5 -1.738281 3.40625 -1.84375 C 3.3125 -1.945312 3.179688 -2.03125 3.015625 -2.09375 C 2.859375 -2.164062 2.691406 -2.226562 2.515625 -2.28125 L 1.875 -2.46875 C 1.46875 -2.582031 1.144531 -2.75 0.90625 -2.96875 C 0.664062 -3.1875 0.546875 -3.472656 0.546875 -3.828125 C 0.546875 -4.117188 0.625 -4.367188 0.78125 -4.578125 C 0.945312 -4.796875 1.160156 -4.96875 1.421875 -5.09375 C 1.691406 -5.21875 1.992188 -5.28125 2.328125 -5.28125 C 2.660156 -5.28125 2.957031 -5.21875 3.21875 -5.09375 C 3.476562 -4.976562 3.6875 -4.816406 3.84375 -4.609375 C 4 -4.398438 4.082031 -4.164062 4.09375 -3.90625 Z M 3.46875 -3.90625 "/></g></g></g><g fill="#ffffff" fill-opacity="1"><g transform="translate(165.55622, 210.422484)"><g><path d="M 5.015625 -2.609375 C 5.015625 -2.054688 4.914062 -1.578125 4.71875 -1.171875 C 4.519531 -0.773438 4.25 -0.46875 3.90625 -0.25 C 3.5625 -0.03125 3.164062 0.078125 2.71875 0.078125 C 2.28125 0.078125 1.882812 -0.03125 1.53125 -0.25 C 1.1875 -0.46875 0.914062 -0.773438 0.71875 -1.171875 C 0.519531 -1.578125 0.421875 -2.054688 0.421875 -2.609375 C 0.421875 -3.148438 0.519531 -3.617188 0.71875 -4.015625 C 0.914062 -4.421875 1.1875 -4.734375 1.53125 -4.953125 C 1.882812 -5.171875 2.28125 -5.28125 2.71875 -5.28125 C 3.164062 -5.28125 3.5625 -5.171875 3.90625 -4.953125 C 4.25 -4.734375 4.519531 -4.421875 4.71875 -4.015625 C 4.914062 -3.617188 5.015625 -3.148438 5.015625 -2.609375 Z M 4.40625 -2.609375 C 4.40625 -3.054688 4.332031 -3.429688 4.1875 -3.734375 C 4.039062 -4.046875 3.835938 -4.28125 3.578125 -4.4375 C 3.328125 -4.601562 3.039062 -4.6875 2.71875 -4.6875 C 2.40625 -4.6875 2.117188 -4.601562 1.859375 -4.4375 C 1.609375 -4.28125 1.40625 -4.046875 1.25 -3.734375 C 1.101562 -3.429688 1.03125 -3.054688 1.03125 -2.609375 C 1.03125 -2.148438 1.101562 -1.765625 1.25 -1.453125 C 1.40625 -1.148438 1.609375 -0.914062 1.859375 -0.75 C 2.117188 -0.59375 2.40625 -0.515625 2.71875 -0.515625 C 3.039062 -0.515625 3.328125 -0.59375 3.578125 -0.75 C 3.835938 -0.914062 4.039062 -1.148438 4.1875 -1.453125 C 4.332031 -1.765625 4.40625 -2.148438 4.40625 -2.609375 Z M 4.40625 -2.609375 "/></g></g></g><g fill="#ffffff" fill-opacity="1"><g transform="translate(171.77848, 210.422484)"><g><path d="M 4.8125 -3.578125 L 4.1875 -3.578125 C 4.132812 -3.816406 4.035156 -4.019531 3.890625 -4.1875 C 3.753906 -4.351562 3.582031 -4.476562 3.375 -4.5625 C 3.164062 -4.644531 2.945312 -4.6875 2.71875 -4.6875 C 2.40625 -4.6875 2.117188 -4.601562 1.859375 -4.4375 C 1.609375 -4.28125 1.40625 -4.046875 1.25 -3.734375 C 1.101562 -3.429688 1.03125 -3.054688 1.03125 -2.609375 C 1.03125 -2.148438 1.101562 -1.765625 1.25 -1.453125 C 1.40625 -1.148438 1.609375 -0.914062 1.859375 -0.75 C 2.117188 -0.59375 2.40625 -0.515625 2.71875 -0.515625 C 2.945312 -0.515625 3.164062 -0.554688 3.375 -0.640625 C 3.582031 -0.722656 3.753906 -0.847656 3.890625 -1.015625 C 4.035156 -1.179688 4.132812 -1.382812 4.1875 -1.625 L 4.8125 -1.625 C 4.75 -1.269531 4.617188 -0.960938 4.421875 -0.703125 C 4.222656 -0.453125 3.976562 -0.257812 3.6875 -0.125 C 3.394531 0.0078125 3.070312 0.078125 2.71875 0.078125 C 2.28125 0.078125 1.882812 -0.03125 1.53125 -0.25 C 1.1875 -0.46875 0.914062 -0.773438 0.71875 -1.171875 C 0.519531 -1.578125 0.421875 -2.054688 0.421875 -2.609375 C 0.421875 -3.148438 0.519531 -3.617188 0.71875 -4.015625 C 0.914062 -4.421875 1.1875 -4.734375 1.53125 -4.953125 C 1.882812 -5.171875 2.28125 -5.28125 2.71875 -5.28125 C 3.070312 -5.28125 3.394531 -5.210938 3.6875 -5.078125 C 3.976562 -4.941406 4.222656 -4.742188 4.421875 -4.484375 C 4.617188 -4.234375 4.75 -3.929688 4.8125 -3.578125 Z M 4.8125 -3.578125 "/></g></g></g><g fill="#ffffff" fill-opacity="1"><g transform="translate(177.756761, 210.422484)"><g><path d="M 1.265625 -5.203125 L 1.265625 0 L 0.625 0 L 0.625 -5.203125 Z M 1.265625 -5.203125 "/></g></g></g><g fill="#ffffff" fill-opacity="1"><g transform="translate(180.420978, 210.422484)"><g><path d="M 0.625 0 L 0.625 -5.203125 L 3.765625 -5.203125 L 3.765625 -4.640625 L 1.265625 -4.640625 L 1.265625 -2.890625 L 3.609375 -2.890625 L 3.609375 -2.328125 L 1.265625 -2.328125 L 1.265625 -0.5625 L 3.8125 -0.5625 L 3.8125 0 Z M 0.625 0 "/></g></g></g><g fill="#ffffff" fill-opacity="1"><g transform="translate(185.474166, 210.422484)"><g><path d="M 2.234375 0 L 0.625 0 L 0.625 -5.203125 L 2.3125 -5.203125 C 2.8125 -5.203125 3.238281 -5.097656 3.59375 -4.890625 C 3.957031 -4.679688 4.234375 -4.382812 4.421875 -4 C 4.617188 -3.613281 4.71875 -3.148438 4.71875 -2.609375 C 4.71875 -2.066406 4.617188 -1.597656 4.421875 -1.203125 C 4.234375 -0.816406 3.953125 -0.519531 3.578125 -0.3125 C 3.210938 -0.101562 2.765625 0 2.234375 0 Z M 1.265625 -0.5625 L 2.203125 -0.5625 C 2.835938 -0.5625 3.3125 -0.742188 3.625 -1.109375 C 3.945312 -1.472656 4.109375 -1.972656 4.109375 -2.609375 C 4.109375 -3.242188 3.953125 -3.738281 3.640625 -4.09375 C 3.335938 -4.457031 2.878906 -4.640625 2.265625 -4.640625 L 1.265625 -4.640625 Z M 1.265625 -0.5625 "/></g></g></g><g fill="#ffffff" fill-opacity="1"><g transform="translate(191.391447, 210.422484)"><g><path d="M 0.84375 0 L 0.1875 0 L 2.09375 -5.203125 L 2.75 -5.203125 L 4.65625 0 L 4 0 L 3.46875 -1.46875 L 1.375 -1.46875 Z M 1.5625 -2.03125 L 3.265625 -2.03125 L 2.4375 -4.375 L 2.40625 -4.375 Z M 1.5625 -2.03125 "/></g></g></g><g fill="#ffffff" fill-opacity="1"><g transform="translate(197.003761, 210.422484)"><g><path d="M 2.234375 0 L 0.625 0 L 0.625 -5.203125 L 2.3125 -5.203125 C 2.8125 -5.203125 3.238281 -5.097656 3.59375 -4.890625 C 3.957031 -4.679688 4.234375 -4.382812 4.421875 -4 C 4.617188 -3.613281 4.71875 -3.148438 4.71875 -2.609375 C 4.71875 -2.066406 4.617188 -1.597656 4.421875 -1.203125 C 4.234375 -0.816406 3.953125 -0.519531 3.578125 -0.3125 C 3.210938 -0.101562 2.765625 0 2.234375 0 Z M 1.265625 -0.5625 L 2.203125 -0.5625 C 2.835938 -0.5625 3.3125 -0.742188 3.625 -1.109375 C 3.945312 -1.472656 4.109375 -1.972656 4.109375 -2.609375 C 4.109375 -3.242188 3.953125 -3.738281 3.640625 -4.09375 C 3.335938 -4.457031 2.878906 -4.640625 2.265625 -4.640625 L 1.265625 -4.640625 Z M 1.265625 -0.5625 "/></g></g></g><g fill="#ffffff" fill-opacity="1"><g transform="translate(202.921042, 210.422484)"><g><path d="M 0.625 0 L 0.625 -5.203125 L 3.765625 -5.203125 L 3.765625 -4.640625 L 1.265625 -4.640625 L 1.265625 -2.890625 L 3.609375 -2.890625 L 3.609375 -2.328125 L 1.265625 -2.328125 L 1.265625 -0.5625 L 3.8125 -0.5625 L 3.8125 0 Z M 0.625 0 "/></g></g></g><g fill="#ffffff" fill-opacity="1"><g transform="translate(207.97423, 210.422484)"><g/></g></g><g fill="#ffffff" fill-opacity="1"><g transform="translate(210.760441, 210.422484)"><g><path d="M 2.234375 0 L 0.625 0 L 0.625 -5.203125 L 2.3125 -5.203125 C 2.8125 -5.203125 3.238281 -5.097656 3.59375 -4.890625 C 3.957031 -4.679688 4.234375 -4.382812 4.421875 -4 C 4.617188 -3.613281 4.71875 -3.148438 4.71875 -2.609375 C 4.71875 -2.066406 4.617188 -1.597656 4.421875 -1.203125 C 4.234375 -0.816406 3.953125 -0.519531 3.578125 -0.3125 C 3.210938 -0.101562 2.765625 0 2.234375 0 Z M 1.265625 -0.5625 L 2.203125 -0.5625 C 2.835938 -0.5625 3.3125 -0.742188 3.625 -1.109375 C 3.945312 -1.472656 4.109375 -1.972656 4.109375 -2.609375 C 4.109375 -3.242188 3.953125 -3.738281 3.640625 -4.09375 C 3.335938 -4.457031 2.878906 -4.640625 2.265625 -4.640625 L 1.265625 -4.640625 Z M 1.265625 -0.5625 "/></g></g></g><g fill="#ffffff" fill-opacity="1"><g transform="translate(216.677723, 210.422484)"><g><path d="M 0.625 0 L 0.625 -5.203125 L 3.765625 -5.203125 L 3.765625 -4.640625 L 1.265625 -4.640625 L 1.265625 -2.890625 L 3.609375 -2.890625 L 3.609375 -2.328125 L 1.265625 -2.328125 L 1.265625 -0.5625 L 3.8125 -0.5625 L 3.8125 0 Z M 0.625 0 "/></g></g></g><g fill="#ffffff" fill-opacity="1"><g transform="translate(221.730911, 210.422484)"><g/></g></g><g fill="#ffffff" fill-opacity="1"><g transform="translate(224.517122, 210.422484)"><g><path d="M 0.84375 0 L 0.1875 0 L 2.09375 -5.203125 L 2.75 -5.203125 L 4.65625 0 L 4 0 L 3.46875 -1.46875 L 1.375 -1.46875 Z M 1.5625 -2.03125 L 3.265625 -2.03125 L 2.4375 -4.375 L 2.40625 -4.375 Z M 1.5625 -2.03125 "/></g></g></g><g fill="#ffffff" fill-opacity="1"><g transform="translate(230.129439, 210.422484)"><g><path d="M 2.234375 0 L 0.625 0 L 0.625 -5.203125 L 2.3125 -5.203125 C 2.8125 -5.203125 3.238281 -5.097656 3.59375 -4.890625 C 3.957031 -4.679688 4.234375 -4.382812 4.421875 -4 C 4.617188 -3.613281 4.71875 -3.148438 4.71875 -2.609375 C 4.71875 -2.066406 4.617188 -1.597656 4.421875 -1.203125 C 4.234375 -0.816406 3.953125 -0.519531 3.578125 -0.3125 C 3.210938 -0.101562 2.765625 0 2.234375 0 Z M 1.265625 -0.5625 L 2.203125 -0.5625 C 2.835938 -0.5625 3.3125 -0.742188 3.625 -1.109375 C 3.945312 -1.472656 4.109375 -1.972656 4.109375 -2.609375 C 4.109375 -3.242188 3.953125 -3.738281 3.640625 -4.09375 C 3.335938 -4.457031 2.878906 -4.640625 2.265625 -4.640625 L 1.265625 -4.640625 Z M 1.265625 -0.5625 "/></g></g></g><g fill="#ffffff" fill-opacity="1"><g transform="translate(236.046721, 210.422484)"><g><path d="M 0.84375 -5.203125 L 2.390625 -0.828125 L 2.453125 -0.828125 L 4 -5.203125 L 4.65625 -5.203125 L 2.75 0 L 2.09375 0 L 0.1875 -5.203125 Z M 0.84375 -5.203125 "/></g></g></g><g fill="#ffffff" fill-opacity="1"><g transform="translate(241.659034, 210.422484)"><g><path d="M 5.015625 -2.609375 C 5.015625 -2.054688 4.914062 -1.578125 4.71875 -1.171875 C 4.519531 -0.773438 4.25 -0.46875 3.90625 -0.25 C 3.5625 -0.03125 3.164062 0.078125 2.71875 0.078125 C 2.28125 0.078125 1.882812 -0.03125 1.53125 -0.25 C 1.1875 -0.46875 0.914062 -0.773438 0.71875 -1.171875 C 0.519531 -1.578125 0.421875 -2.054688 0.421875 -2.609375 C 0.421875 -3.148438 0.519531 -3.617188 0.71875 -4.015625 C 0.914062 -4.421875 1.1875 -4.734375 1.53125 -4.953125 C 1.882812 -5.171875 2.28125 -5.28125 2.71875 -5.28125 C 3.164062 -5.28125 3.5625 -5.171875 3.90625 -4.953125 C 4.25 -4.734375 4.519531 -4.421875 4.71875 -4.015625 C 4.914062 -3.617188 5.015625 -3.148438 5.015625 -2.609375 Z M 4.40625 -2.609375 C 4.40625 -3.054688 4.332031 -3.429688 4.1875 -3.734375 C 4.039062 -4.046875 3.835938 -4.28125 3.578125 -4.4375 C 3.328125 -4.601562 3.039062 -4.6875 2.71875 -4.6875 C 2.40625 -4.6875 2.117188 -4.601562 1.859375 -4.4375 C 1.609375 -4.28125 1.40625 -4.046875 1.25 -3.734375 C 1.101562 -3.429688 1.03125 -3.054688 1.03125 -2.609375 C 1.03125 -2.148438 1.101562 -1.765625 1.25 -1.453125 C 1.40625 -1.148438 1.609375 -0.914062 1.859375 -0.75 C 2.117188 -0.59375 2.40625 -0.515625 2.71875 -0.515625 C 3.039062 -0.515625 3.328125 -0.59375 3.578125 -0.75 C 3.835938 -0.914062 4.039062 -1.148438 4.1875 -1.453125 C 4.332031 -1.765625 4.40625 -2.148438 4.40625 -2.609375 Z M 4.40625 -2.609375 "/></g></g></g><g fill="#ffffff" fill-opacity="1"><g transform="translate(247.881293, 210.422484)"><g><path d="M 4.1875 -3.578125 C 4.070312 -3.921875 3.890625 -4.191406 3.640625 -4.390625 C 3.390625 -4.585938 3.078125 -4.6875 2.703125 -4.6875 C 2.390625 -4.6875 2.109375 -4.601562 1.859375 -4.4375 C 1.609375 -4.28125 1.40625 -4.046875 1.25 -3.734375 C 1.101562 -3.429688 1.03125 -3.054688 1.03125 -2.609375 C 1.03125 -2.148438 1.101562 -1.765625 1.25 -1.453125 C 1.40625 -1.148438 1.613281 -0.914062 1.875 -0.75 C 2.132812 -0.59375 2.425781 -0.515625 2.75 -0.515625 C 3.039062 -0.515625 3.296875 -0.578125 3.515625 -0.703125 C 3.742188 -0.828125 3.921875 -1.003906 4.046875 -1.234375 C 4.179688 -1.460938 4.253906 -1.734375 4.265625 -2.046875 L 2.890625 -2.046875 L 2.890625 -2.609375 L 4.875 -2.609375 L 4.875 -2.046875 C 4.875 -1.617188 4.78125 -1.242188 4.59375 -0.921875 C 4.414062 -0.609375 4.164062 -0.363281 3.84375 -0.1875 C 3.519531 -0.0078125 3.15625 0.078125 2.75 0.078125 C 2.28125 0.078125 1.875 -0.03125 1.53125 -0.25 C 1.1875 -0.46875 0.914062 -0.773438 0.71875 -1.171875 C 0.519531 -1.578125 0.421875 -2.054688 0.421875 -2.609375 C 0.421875 -3.148438 0.519531 -3.617188 0.71875 -4.015625 C 0.914062 -4.421875 1.179688 -4.734375 1.515625 -4.953125 C 1.859375 -5.171875 2.253906 -5.28125 2.703125 -5.28125 C 3.066406 -5.28125 3.394531 -5.207031 3.6875 -5.0625 C 3.988281 -4.914062 4.238281 -4.710938 4.4375 -4.453125 C 4.632812 -4.203125 4.769531 -3.910156 4.84375 -3.578125 Z M 4.1875 -3.578125 "/></g></g></g><g fill="#ffffff" fill-opacity="1"><g transform="translate(253.971397, 210.422484)"><g><path d="M 0.84375 0 L 0.1875 0 L 2.09375 -5.203125 L 2.75 -5.203125 L 4.65625 0 L 4 0 L 3.46875 -1.46875 L 1.375 -1.46875 Z M 1.5625 -2.03125 L 3.265625 -2.03125 L 2.4375 -4.375 L 2.40625 -4.375 Z M 1.5625 -2.03125 "/></g></g></g><g fill="#ffffff" fill-opacity="1"><g transform="translate(259.58371, 210.422484)"><g><path d="M 2.234375 0 L 0.625 0 L 0.625 -5.203125 L 2.3125 -5.203125 C 2.8125 -5.203125 3.238281 -5.097656 3.59375 -4.890625 C 3.957031 -4.679688 4.234375 -4.382812 4.421875 -4 C 4.617188 -3.613281 4.71875 -3.148438 4.71875 -2.609375 C 4.71875 -2.066406 4.617188 -1.597656 4.421875 -1.203125 C 4.234375 -0.816406 3.953125 -0.519531 3.578125 -0.3125 C 3.210938 -0.101562 2.765625 0 2.234375 0 Z M 1.265625 -0.5625 L 2.203125 -0.5625 C 2.835938 -0.5625 3.3125 -0.742188 3.625 -1.109375 C 3.945312 -1.472656 4.109375 -1.972656 4.109375 -2.609375 C 4.109375 -3.242188 3.953125 -3.738281 3.640625 -4.09375 C 3.335938 -4.457031 2.878906 -4.640625 2.265625 -4.640625 L 1.265625 -4.640625 Z M 1.265625 -0.5625 "/></g></g></g><g fill="#ffffff" fill-opacity="1"><g transform="translate(265.500992, 210.422484)"><g><path d="M 5.015625 -2.609375 C 5.015625 -2.054688 4.914062 -1.578125 4.71875 -1.171875 C 4.519531 -0.773438 4.25 -0.46875 3.90625 -0.25 C 3.5625 -0.03125 3.164062 0.078125 2.71875 0.078125 C 2.28125 0.078125 1.882812 -0.03125 1.53125 -0.25 C 1.1875 -0.46875 0.914062 -0.773438 0.71875 -1.171875 C 0.519531 -1.578125 0.421875 -2.054688 0.421875 -2.609375 C 0.421875 -3.148438 0.519531 -3.617188 0.71875 -4.015625 C 0.914062 -4.421875 1.1875 -4.734375 1.53125 -4.953125 C 1.882812 -5.171875 2.28125 -5.28125 2.71875 -5.28125 C 3.164062 -5.28125 3.5625 -5.171875 3.90625 -4.953125 C 4.25 -4.734375 4.519531 -4.421875 4.71875 -4.015625 C 4.914062 -3.617188 5.015625 -3.148438 5.015625 -2.609375 Z M 4.40625 -2.609375 C 4.40625 -3.054688 4.332031 -3.429688 4.1875 -3.734375 C 4.039062 -4.046875 3.835938 -4.28125 3.578125 -4.4375 C 3.328125 -4.601562 3.039062 -4.6875 2.71875 -4.6875 C 2.40625 -4.6875 2.117188 -4.601562 1.859375 -4.4375 C 1.609375 -4.28125 1.40625 -4.046875 1.25 -3.734375 C 1.101562 -3.429688 1.03125 -3.054688 1.03125 -2.609375 C 1.03125 -2.148438 1.101562 -1.765625 1.25 -1.453125 C 1.40625 -1.148438 1.609375 -0.914062 1.859375 -0.75 C 2.117188 -0.59375 2.40625 -0.515625 2.71875 -0.515625 C 3.039062 -0.515625 3.328125 -0.59375 3.578125 -0.75 C 3.835938 -0.914062 4.039062 -1.148438 4.1875 -1.453125 C 4.332031 -1.765625 4.40625 -2.148438 4.40625 -2.609375 Z M 4.40625 -2.609375 "/></g></g></g><g fill="#ffffff" fill-opacity="1"><g transform="translate(271.72325, 210.422484)"><g><path d="M 3.46875 -3.90625 C 3.445312 -4.164062 3.328125 -4.363281 3.109375 -4.5 C 2.890625 -4.644531 2.625 -4.71875 2.3125 -4.71875 C 1.96875 -4.71875 1.6875 -4.632812 1.46875 -4.46875 C 1.257812 -4.300781 1.15625 -4.097656 1.15625 -3.859375 C 1.15625 -3.671875 1.210938 -3.519531 1.328125 -3.40625 C 1.441406 -3.289062 1.578125 -3.203125 1.734375 -3.140625 C 1.890625 -3.078125 2.035156 -3.023438 2.171875 -2.984375 L 2.6875 -2.84375 C 2.820312 -2.8125 2.972656 -2.765625 3.140625 -2.703125 C 3.304688 -2.640625 3.46875 -2.550781 3.625 -2.4375 C 3.78125 -2.332031 3.90625 -2.195312 4 -2.03125 C 4.101562 -1.863281 4.15625 -1.65625 4.15625 -1.40625 C 4.15625 -1.125 4.082031 -0.867188 3.9375 -0.640625 C 3.789062 -0.421875 3.578125 -0.242188 3.296875 -0.109375 C 3.015625 0.0234375 2.675781 0.09375 2.28125 0.09375 C 1.71875 0.09375 1.269531 -0.0351562 0.9375 -0.296875 C 0.613281 -0.566406 0.4375 -0.914062 0.40625 -1.34375 L 1.0625 -1.34375 C 1.070312 -1.144531 1.132812 -0.976562 1.25 -0.84375 C 1.375 -0.71875 1.523438 -0.625 1.703125 -0.5625 C 1.878906 -0.507812 2.070312 -0.484375 2.28125 -0.484375 C 2.519531 -0.484375 2.734375 -0.519531 2.921875 -0.59375 C 3.117188 -0.675781 3.269531 -0.785156 3.375 -0.921875 C 3.488281 -1.066406 3.546875 -1.234375 3.546875 -1.421875 C 3.546875 -1.597656 3.5 -1.738281 3.40625 -1.84375 C 3.3125 -1.945312 3.179688 -2.03125 3.015625 -2.09375 C 2.859375 -2.164062 2.691406 -2.226562 2.515625 -2.28125 L 1.875 -2.46875 C 1.46875 -2.582031 1.144531 -2.75 0.90625 -2.96875 C 0.664062 -3.1875 0.546875 -3.472656 0.546875 -3.828125 C 0.546875 -4.117188 0.625 -4.367188 0.78125 -4.578125 C 0.945312 -4.796875 1.160156 -4.96875 1.421875 -5.09375 C 1.691406 -5.21875 1.992188 -5.28125 2.328125 -5.28125 C 2.660156 -5.28125 2.957031 -5.21875 3.21875 -5.09375 C 3.476562 -4.976562 3.6875 -4.816406 3.84375 -4.609375 C 4 -4.398438 4.082031 -4.164062 4.09375 -3.90625 Z M 3.46875 -3.90625 "/></g></g></g><path fill="#ffffff" d="M 161.75 200.539062 L 162.285156 200.539062 L 162.285156 201.074219 L 161.75 201.074219 M 162.824219 200.539062 L 163.359375 200.539062 L 163.359375 201.074219 L 162.824219 201.074219 M 163.894531 200.539062 L 164.429688 200.539062 L 164.429688 201.074219 L 163.894531 201.074219 M 164.964844 200.539062 L 165.5 200.539062 L 165.5 201.074219 L 164.964844 201.074219 M 166.035156 200.539062 L 166.574219 200.539062 L 166.574219 201.074219 L 166.035156 201.074219 M 167.109375 200.539062 L 167.644531 200.539062 L 167.644531 201.074219 L 167.109375 201.074219 M 168.179688 200.539062 L 168.714844 200.539062 L 168.714844 201.074219 L 168.179688 201.074219 M 169.25 200.539062 L 169.785156 200.539062 L 169.785156 201.074219 L 169.25 201.074219 M 170.324219 200.539062 L 170.859375 200.539062 L 170.859375 201.074219 L 170.324219 201.074219 M 171.394531 200.539062 L 171.929688 200.539062 L 171.929688 201.074219 L 171.394531 201.074219 M 172.464844 200.539062 L 173 200.539062 L 173 201.074219 L 172.464844 201.074219 M 173.535156 200.539062 L 174.074219 200.539062 L 174.074219 201.074219 L 173.535156 201.074219 M 174.609375 200.539062 L 175.144531 200.539062 L 175.144531 201.074219 L 174.609375 201.074219 M 175.679688 200.539062 L 176.214844 200.539062 L 176.214844 201.074219 L 175.679688 201.074219 M 176.75 200.539062 L 177.285156 200.539062 L 177.285156 201.074219 L 176.75 201.074219 M 177.824219 200.539062 L 178.359375 200.539062 L 178.359375 201.074219 L 177.824219 201.074219 M 178.894531 200.539062 L 179.429688 200.539062 L 179.429688 201.074219 L 178.894531 201.074219 M 179.964844 200.539062 L 180.5 200.539062 L 180.5 201.074219 L 179.964844 201.074219 M 181.035156 200.539062 L 181.574219 200.539062 L 181.574219 201.074219 L 181.035156 201.074219 M 182.109375 200.539062 L 182.644531 200.539062 L 182.644531 201.074219 L 182.109375 201.074219 M 183.179688 200.539062 L 183.714844 200.539062 L 183.714844 201.074219 L 183.179688 201.074219 M 184.25 200.539062 L 184.785156 200.539062 L 184.785156 201.074219 L 184.25 201.074219 M 185.324219 200.539062 L 185.859375 200.539062 L 185.859375 201.074219 L 185.324219 201.074219 M 186.394531 200.539062 L 186.929688 200.539062 L 186.929688 201.074219 L 186.394531 201.074219 M 187.464844 200.539062 L 188 200.539062 L 188 201.074219 L 187.464844 201.074219 M 188.535156 200.539062 L 189.074219 200.539062 L 189.074219 201.074219 L 188.535156 201.074219 M 189.609375 200.539062 L 190.144531 200.539062 L 190.144531 201.074219 L 189.609375 201.074219 M 190.679688 200.539062 L 191.214844 200.539062 L 191.214844 201.074219 L 190.679688 201.074219 M 191.75 200.539062 L 192.285156 200.539062 L 192.285156 201.074219 L 191.75 201.074219 M 192.824219 200.539062 L 193.359375 200.539062 L 193.359375 201.074219 L 192.824219 201.074219 M 193.894531 200.539062 L 194.429688 200.539062 L 194.429688 201.074219 L 193.894531 201.074219 M 194.964844 200.539062 L 195.5 200.539062 L 195.5 201.074219 L 194.964844 201.074219 M 196.035156 200.539062 L 196.574219 200.539062 L 196.574219 201.074219 L 196.035156 201.074219 M 197.109375 200.539062 L 197.644531 200.539062 L 197.644531 201.074219 L 197.109375 201.074219 M 198.179688 200.539062 L 198.714844 200.539062 L 198.714844 201.074219 L 198.179688 201.074219 M 199.25 200.539062 L 199.785156 200.539062 L 199.785156 201.074219 L 199.25 201.074219 M 200.324219 200.539062 L 200.859375 200.539062 L 200.859375 201.074219 L 200.324219 201.074219 M 201.394531 200.539062 L 201.929688 200.539062 L 201.929688 201.074219 L 201.394531 201.074219 M 202.464844 200.539062 L 203 200.539062 L 203 201.074219 L 202.464844 201.074219 M 203.535156 200.539062 L 204.074219 200.539062 L 204.074219 201.074219 L 203.535156 201.074219 M 204.609375 200.539062 L 205.144531 200.539062 L 205.144531 201.074219 L 204.609375 201.074219 M 205.679688 200.539062 L 206.214844 200.539062 L 206.214844 201.074219 L 205.679688 201.074219 M 206.75 200.539062 L 207.285156 200.539062 L 207.285156 201.074219 L 206.75 201.074219 M 207.824219 200.539062 L 208.359375 200.539062 L 208.359375 201.074219 L 207.824219 201.074219 M 208.894531 200.539062 L 209.429688 200.539062 L 209.429688 201.074219 L 208.894531 201.074219 M 209.964844 200.539062 L 210.5 200.539062 L 210.5 201.074219 L 209.964844 201.074219 M 211.035156 200.539062 L 211.574219 200.539062 L 211.574219 201.074219 L 211.035156 201.074219 M 212.109375 200.539062 L 212.644531 200.539062 L 212.644531 201.074219 L 212.109375 201.074219 M 213.179688 200.539062 L 213.714844 200.539062 L 213.714844 201.074219 L 213.179688 201.074219 M 214.25 200.539062 L 214.785156 200.539062 L 214.785156 201.074219 L 214.25 201.074219 M 215.324219 200.539062 L 215.859375 200.539062 L 215.859375 201.074219 L 215.324219 201.074219 M 216.394531 200.539062 L 216.929688 200.539062 L 216.929688 201.074219 L 216.394531 201.074219 M 217.464844 200.539062 L 218 200.539062 L 218 201.074219 L 217.464844 201.074219 M 218.535156 200.539062 L 219.074219 200.539062 L 219.074219 201.074219 L 218.535156 201.074219 M 219.609375 200.539062 L 220.144531 200.539062 L 220.144531 201.074219 L 219.609375 201.074219 M 220.679688 200.539062 L 221.214844 200.539062 L 221.214844 201.074219 L 220.679688 201.074219 M 221.75 200.539062 L 222.285156 200.539062 L 222.285156 201.074219 L 221.75 201.074219 M 222.824219 200.539062 L 223.359375 200.539062 L 223.359375 201.074219 L 222.824219 201.074219 M 223.894531 200.539062 L 224.429688 200.539062 L 224.429688 201.074219 L 223.894531 201.074219 M 224.964844 200.539062 L 225.5 200.539062 L 225.5 201.074219 L 224.964844 201.074219 M 226.035156 200.539062 L 226.574219 200.539062 L 226.574219 201.074219 L 226.035156 201.074219 M 227.109375 200.539062 L 227.644531 200.539062 L 227.644531 201.074219 L 227.109375 201.074219 M 228.179688 200.539062 L 228.714844 200.539062 L 228.714844 201.074219 L 228.179688 201.074219 M 229.25 200.539062 L 229.785156 200.539062 L 229.785156 201.074219 L 229.25 201.074219 M 230.324219 200.539062 L 230.859375 200.539062 L 230.859375 201.074219 L 230.324219 201.074219 M 231.394531 200.539062 L 231.929688 200.539062 L 231.929688 201.074219 L 231.394531 201.074219 M 232.464844 200.539062 L 233 200.539062 L 233 201.074219 L 232.464844 201.074219 M 233.535156 200.539062 L 234.074219 200.539062 L 234.074219 201.074219 L 233.535156 201.074219 M 234.609375 200.539062 L 235.144531 200.539062 L 235.144531 201.074219 L 234.609375 201.074219 M 235.679688 200.539062 L 236.214844 200.539062 L 236.214844 201.074219 L 235.679688 201.074219 M 236.75 200.539062 L 237.285156 200.539062 L 237.285156 201.074219 L 236.75 201.074219 M 237.824219 200.539062 L 238.359375 200.539062 L 238.359375 201.074219 L 237.824219 201.074219 M 238.894531 200.539062 L 239.429688 200.539062 L 239.429688 201.074219 L 238.894531 201.074219 M 239.964844 200.539062 L 240.5 200.539062 L 240.5 201.074219 L 239.964844 201.074219 M 241.035156 200.539062 L 241.574219 200.539062 L 241.574219 201.074219 L 241.035156 201.074219 M 242.109375 200.539062 L 242.644531 200.539062 L 242.644531 201.074219 L 242.109375 201.074219 M 243.179688 200.539062 L 243.714844 200.539062 L 243.714844 201.074219 L 243.179688 201.074219 M 244.25 200.539062 L 244.785156 200.539062 L 244.785156 201.074219 L 244.25 201.074219 M 245.324219 200.539062 L 245.859375 200.539062 L 245.859375 201.074219 L 245.324219 201.074219 M 246.394531 200.539062 L 246.929688 200.539062 L 246.929688 201.074219 L 246.394531 201.074219 M 247.464844 200.539062 L 248 200.539062 L 248 201.074219 L 247.464844 201.074219 M 248.535156 200.539062 L 249.074219 200.539062 L 249.074219 201.074219 L 248.535156 201.074219 M 249.609375 200.539062 L 250.144531 200.539062 L 250.144531 201.074219 L 249.609375 201.074219 M 250.679688 200.539062 L 251.214844 200.539062 L 251.214844 201.074219 L 250.679688 201.074219 M 251.75 200.539062 L 252.285156 200.539062 L 252.285156 201.074219 L 251.75 201.074219 M 252.824219 200.539062 L 253.359375 200.539062 L 253.359375 201.074219 L 252.824219 201.074219 M 253.894531 200.539062 L 254.429688 200.539062 L 254.429688 201.074219 L 253.894531 201.074219 M 254.964844 200.539062 L 255.5 200.539062 L 255.5 201.074219 L 254.964844 201.074219 M 256.035156 200.539062 L 256.574219 200.539062 L 256.574219 201.074219 L 256.035156 201.074219 M 257.109375 200.539062 L 257.644531 200.539062 L 257.644531 201.074219 L 257.109375 201.074219 M 258.179688 200.539062 L 258.714844 200.539062 L 258.714844 201.074219 L 258.179688 201.074219 M 259.25 200.539062 L 259.785156 200.539062 L 259.785156 201.074219 L 259.25 201.074219 M 260.324219 200.539062 L 260.859375 200.539062 L 260.859375 201.074219 L 260.324219 201.074219 M 261.394531 200.539062 L 261.929688 200.539062 L 261.929688 201.074219 L 261.394531 201.074219 M 262.464844 200.539062 L 263 200.539062 L 263 201.074219 L 262.464844 201.074219 M 263.535156 200.539062 L 264.074219 200.539062 L 264.074219 201.074219 L 263.535156 201.074219 " fill-opacity="1" fill-rule="nonzero"/></svg>